<svg xmlns="http://www.w3.org/2000/svg" viewBox="0 0 773.63 1101.44"><defs><style>.cls-1{fill:#006837;stroke:#006837;}.cls-1,.cls-10,.cls-12,.cls-15,.cls-16,.cls-2,.cls-3,.cls-4,.cls-6{stroke-miterlimit:10;}.cls-2{fill:#053d21;stroke:#053d21;}.cls-3{fill:#ffda00;stroke:#ffda00;}.cls-4,.cls-5{fill:#c6c11b;}.cls-4{stroke:#c6c11b;}.cls-6{fill:#fffdf5;stroke:#fffeeb;}.cls-7{fill:#fffcd3;}.cls-8{fill:#ffeca1;}.cls-10,.cls-9{fill:#e0dba9;}.cls-10{stroke:#ffeca1;opacity:0.51;}.cls-11{fill:#715a00;}.cls-12{fill:#594505;stroke:#594505;}.cls-13{fill:#ed1e79;}.cls-14{fill:#9e005d;}.cls-15{stroke:#000;}.cls-15,.cls-16{stroke-width:3px;}.cls-16{fill:#fff;stroke:#fff;}.cls-17{fill:#ff5da6;}.cls-18{fill:#281a0f;}.cls-19{fill:#42210b;}.cls-20{fill:#1e0f07;}.cls-21{fill:#ff5dbc;}.cls-22{fill:#ff21d2;}.cls-23{fill:#ffb172;}</style></defs><g id="braços_e_pernas" data-name="braços e pernas"><path class="cls-1" d="M1091.29,1027.14h0a4.14,4.14,0,0,0-1.84.91c-59.52,50.6-71.44,92.51-85.14,83-40.34-28-103.63-113.31-120.12-136C876.45,840.1,771.71,733.2,643.62,733.2c-133.11,0-241,115.46-241,257.87q0,10.2.73,20.19c-6.28,11.41-45.63,83.56-57.05,120.37q-.87,2.79-1.45,5.3c-.1.44-.2.89-.29,1.35-.12.63-.24,1.28-.36,2,0,0,0,.07,0,.1s0,.09,0,.13c-6.5,38.55,19.73,98.74,56.08,139.54.79.89,1.58,1.76,2.38,2.63,4.21,4.57,7.8,1.66-20.2-48.1-15.75-28-24.18-60.9-20.94-82.4,3.58-23.7,29.64-70.3,47.81-100.58,11.2,49.82,35.91,94,69.76,127.89,4.48,19.54,26.49,111.79,48,134.14a5.74,5.74,0,0,1,1-.2c4.55-.45,8.9-1.93,13.29-3.21.69-21.51-11.79-65.2-22.53-98.46A228.34,228.34,0,0,0,643.62,1249c51.2,0,98.67-17.08,137.71-46.21-.17,33.78,1.36,85.35,11.4,105.44a5.07,5.07,0,0,0,.77,1.14c4,4.7,15,.83,15.19-3.16,0-.27,0-.54,0-.82,1.58-28.6,1.82-106.54,1.86-128.3,42.82-44,70.47-104.81,73.73-172.49,22.73,27.14,64.34,83,96.16,110.42.63.47,1.94,1.49,3.91,3,2.93,2.2,6.93,5.17,11,8,7.78,5.42,13.85,8.7,16,7.84,23-9.18,67-67.41,85.52-98.93.28-.47.55-1.46.82-1.92C1099.53,1029.88,1094.93,1026.34,1091.29,1027.14Z" transform="translate(-342.65 -304.93)"/></g><g id="Camada_14" data-name="Camada 14"><polygon class="cls-2" points="145.36 910.52 185.5 937.31 179.71 913.77 137.5 884.84 145.36 910.52"/><polygon class="cls-2" points="438.93 923.66 467.86 896.75 467.94 872.11 438.68 897.81 438.93 923.66"/><path class="cls-2" d="M783.74,1266.56,796,1304.3s-3.64,11.27-5.93,0S783.74,1266.56,783.74,1266.56Z" transform="translate(-342.65 -304.93)"/><path class="cls-2" d="M536.25,1313v-38.81s7,26.59,5.68,36.91-5.68,1.9-5.68,1.9" transform="translate(-342.65 -304.93)"/><path class="cls-2" d="M406.7,1047.47s-31.4,56.68-37,70.21c-2,4.85-7.27,29.56-7.27,29.56s3.44-18,22.08-52.28c13.05-24,24.78-43.39,24.78-43.39Z" transform="translate(-342.65 -304.93)"/><path class="cls-2" d="M879.47,1000.49s81.23,100.7,94.82,108.9-91.93-109.58-91.93-109.58Z" transform="translate(-342.65 -304.93)"/></g><g id="bolinha"><path class="cls-3" d="M885.17,990c0,142.56-116.75,283.83-238.46,284.21-122.35.38-249.28-142.63-249.28-285.19S511.14,731.85,644.22,731.85,885.17,847.42,885.17,990Z" transform="translate(-342.65 -304.93)"/></g><g id="Camada_12" data-name="Camada 12"><path class="cls-4" d="M438.39,1132.61s94.19,125.75,209.61,126c134.93.3,194.73-117.73,194.73-117.73s-67.24,133.56-196,133.3S438.39,1132.61,438.39,1132.61Z" transform="translate(-342.65 -304.93)"/><path class="cls-5" d="M500.84,787.18c8.68-2.51,11.37-3.42,20.05-5.93,11.26-3.25,22.62-6.53,34.31-7.37s22.22-3.14,34-4.48c7.24-.83,17.12-2.68,24.32-3.8,8.48-1.31,24.48-2.17,33.06-2.32,26.69-.48,44.86,3.59,71.18,8.05,29.42,5,57.43,16,85.19,26.94,3.07-2-37-24.93-39.81-27.33s-.71,1.62-4.32.93c-22.44-4.28-8.36-4.86-29.55-13.39-33.83-13.62-71.43-13.24-107.89-12.67-11.47.18-23,.36-34.32,2.22a232.18,232.18,0,0,0-24.48,5.83l-51.81,14.32C502.09,770.58,492,770,490,778.79c3.07,2.43,6.93,8.22,10.84,8.39" transform="translate(-342.65 -304.93)"/><path class="cls-5" d="M501.24,788.63c11.28-3.26,22.47-6.88,33.85-9.75a121.61,121.61,0,0,1,20.11-3.5c6.51-.5,13-1.42,19.41-2.42s12.63-1.74,18.94-2.63c5.8-.82,11.56-1.85,17.34-2.8A241.4,241.4,0,0,1,640.8,765a234.75,234.75,0,0,1,35.27,1.23c12.15,1.37,24.17,3.64,36.2,5.73a314,314,0,0,1,39.25,9.19c12.77,3.94,25.29,8.59,37.74,13.41l9.4,3.68c1.45.57,4.6,2.69,5.7.66.82-1.5-.7-3-1.72-3.89-4.15-3.77-9.16-6.73-13.86-9.73-5.76-3.67-11.59-7.22-17.41-10.79-2-1.21-4-2.41-5.9-3.68-.28-.18-.56-.36-.83-.55s-.82-.6-.38-.26c-1.08-.84-2.51-2-3.79-.71-.29.28-.43,1-.73,1.21s-2.21-.35-2.75-.46c-2.29-.46-4.58-1-6.83-1.6a14.76,14.76,0,0,1-5.45-2.59,37.8,37.8,0,0,0-5-3.95,76.21,76.21,0,0,0-13.55-6.15c-24.11-9-50.1-11.2-75.63-11.55-13.22-.18-26.46,0-39.66.37A199,199,0,0,0,590.48,746a165.18,165.18,0,0,0-19.94,4.12c-13.48,3.54-26.88,7.4-40.32,11.11-6.76,1.87-13.5,3.82-20.28,5.61-4.46,1.17-9.19,1.51-13.52,3.18-3.91,1.51-6.83,4.19-7.86,8.36a1.49,1.49,0,0,0,.38,1.46c3.7,3,6.68,8.39,11.9,8.83,1.93.17,1.92-2.83,0-3s-3.79-2-5.16-3.38c-1.53-1.53-2.94-3.2-4.62-4.58l.39,1.46c1.31-5.27,6.29-6.72,11.05-7.71,2.61-.54,5.24-1,7.83-1.62,3.7-1,7.37-2,11.05-3.05,15.5-4.28,31-8.63,46.48-12.85A181.87,181.87,0,0,1,590.47,749a210.44,210.44,0,0,1,23.81-1.58c14.85-.32,29.74-.56,44.59-.09a251.54,251.54,0,0,1,44,4.78,159.52,159.52,0,0,1,20.69,5.79c5.31,1.89,10.85,3.93,15.56,7.09,1.72,1.16,3.07,2.74,4.76,3.93,2.73,1.92,6.31,2.64,9.5,3.35,1.49.34,3,.65,4.47.93a4.93,4.93,0,0,0,3.45-.18,2.94,2.94,0,0,0,1.29-1.51c0-.15.07-.23.08-.21s-1.09.24-1.07.34.5.37.62.46c1.59,1.21,3.32,2.24,5,3.29,6.37,4,12.8,7.81,19.12,11.83,3.15,2,6.29,4,9.35,6.15a40.85,40.85,0,0,1,5.61,4.44,3.13,3.13,0,0,1,.36.46c.11-.07,0,.41,0,0s-.15.62-.07-.36a1.53,1.53,0,0,1,.57-.95l1.16-.15c-20.41-8-40.88-16.11-62.09-21.82-10.71-2.89-21.56-4.83-32.48-6.74-9.75-1.7-19.49-3.44-29.31-4.68-18.49-2.32-37.05-2.17-55.6-.62-8.58.71-17,2.27-25.51,3.63-4.77.77-9.56,1.31-14.35,2-5.41.74-10.79,1.64-16.2,2.42s-11.15,1.14-16.72,1.8a131.6,131.6,0,0,0-15.89,3c-9.38,2.32-18.62,5.19-27.87,8q-3.42,1-6.86,2a1.5,1.5,0,0,0,.8,2.89Z" transform="translate(-342.65 -304.93)"/></g><g id="Camada_13" data-name="Camada 13"><path class="cls-6" d="M485.06,806.57c-15.13,15.71-24.55,26.16-37.34,45.44-19.37,29.24-44.23,73.44-41.5,123.64,1,19,2.46,61.22,8.93,61.22,0,0-2.88-20.77-2.88-33.88,0-22.58,1.94-65.19,10.11-85.82,11.55-29.17,14.3-27.65,35.05-50.35,14.64-16,25.32-28.34,41.36-48.51,4.95-6.22,16.73-23.08,9.19-26.5C499.55,788,490.56,800.86,485.06,806.57Z" transform="translate(-342.65 -304.93)"/></g><g id="Camada_5" data-name="Camada 5"><path class="cls-7" d="M574,661.94c-2.92-12.62-9.66-24-15.57-35.48-34.08-66.39-42-145.77-21.75-217.59,5-17.67,12.32-35.87,27.11-46.76,8.11-6,17.85-9.26,27.42-12.4,42-13.8,85.32-26.79,129.49-25,8.68.35,17.77,1.43,24.89,6.4,9.54,6.66,13.45,18.7,16.31,30,10.14,40,14.6,81.63,10.63,122.7-5.08,52.36-23.59,102.34-41.94,151.64-1.77,4.76-3.59,9.6-6.66,13.65-9.25,12.2-26.66,13.85-42,14.47l-92.77,3.71c-5.76.23-12.58,0-15.8-4.84" transform="translate(-342.65 -304.93)"/><path class="cls-8" d="M575.44,661.54c-3.71-15.68-12.81-29.38-19.65-43.78A292.38,292.38,0,0,1,539.2,574a303.86,303.86,0,0,1-12-92.06A296.61,296.61,0,0,1,532,435.71c2.69-14.66,6.18-29.5,11.82-43.33,5.47-13.42,13.79-25.64,26.71-32.78,6.94-3.83,14.52-6.29,22-8.75,8.2-2.69,16.42-5.34,24.67-7.84,32.79-9.95,66.73-17.88,101.2-16.88,7.58.22,15.6.67,22.54,4,6.3,3,10.72,8.33,13.78,14.51,3.22,6.51,5,13.65,6.68,20.66q3,12.48,5.31,25.14c6.11,34.14,7.62,69.16,3.14,103.6-4.39,33.65-14.09,66.36-25.2,98.33-2.84,8.17-5.78,16.3-8.76,24.42-2.84,7.72-5.5,15.56-8.66,23.16-2.79,6.71-7,12.19-13.4,15.72-5.63,3.08-12.08,4.53-18.41,5.35-7.28.93-14.66,1.05-22,1.35l-26.94,1.07-53.89,2.16c-5.64.23-14.12,1.4-17.91-4-1.11-1.57-3.72-.07-2.6,1.51,3.89,5.48,11,5.8,17.1,5.58,9.1-.34,18.19-.73,27.29-1.1l55.59-2.22c13.89-.55,29-.15,41.8-6.4A31.21,31.21,0,0,0,728,645.38a93.92,93.92,0,0,0,4.47-10.77l4.62-12.44c12.14-32.86,23.81-66,31-100.39a336.53,336.53,0,0,0,5.36-105,399.24,399.24,0,0,0-9.19-52.27c-3.22-13.22-7.19-28.59-19.85-35.92-6.58-3.8-14.3-4.88-21.76-5.29a206,206,0,0,0-26.06.31,309.93,309.93,0,0,0-51.77,8.6c-17.19,4.24-34.11,9.52-50.94,15-7.73,2.53-15.56,5-22.83,8.67a55.11,55.11,0,0,0-17.21,13.44c-9.37,11-14.6,24.88-18.5,38.6a294.75,294.75,0,0,0-9.22,46.63,305.74,305.74,0,0,0,4,95.29,301.22,301.22,0,0,0,13.08,45.94q4.15,11.12,9.17,21.86c3.47,7.42,7.4,14.59,11.12,21.89s7.09,14.78,9,22.78c.45,1.88,3.34,1.08,2.9-.8Z" transform="translate(-342.65 -304.93)"/><path class="cls-7" d="M758,349a58.44,58.44,0,0,0,42.33-18.42c4.13-4.43,7.56-9.53,12.13-13.51,7.44-6.48,17.36-9.5,27.18-10.42a34.35,34.35,0,0,1,13.06.81c6.82,2,12.24,7.18,16.81,12.64,21.84,26.08,29.35,63.47,19.27,96-5.38,17.36-15.25,32.91-23.37,49.17-20.48,41-30,87.07-53,126.74a212.59,212.59,0,0,1-27.3,37.13c-11.16,12.15-24.49,23.38-40.62,26.84-5,1.08-11,1-14.36-2.86-3.84-4.51-2-11.34.11-16.89,17-45.71,33-92.16,40.26-140.37s5.55-98.68-12.11-144.14" transform="translate(-342.65 -304.93)"/><path class="cls-8" d="M758,350.53a60.17,60.17,0,0,0,34.72-11.26c5.34-3.84,9.62-8.55,13.79-13.59,4.35-5.24,8.94-9.8,15.14-12.79A53.53,53.53,0,0,1,841,308.07c7.24-.53,13.82.79,19.63,5.29,5,3.84,9,8.93,12.63,14.05a101.42,101.42,0,0,1,9.21,16.14c10.19,22.39,12.21,48.6,4.91,72.14-4.23,13.64-11.27,26.14-18,38.68a364.57,364.57,0,0,0-17.54,38c-10.25,25.91-18.36,52.67-30,78a231.45,231.45,0,0,1-20.61,36.32,181,181,0,0,1-26.94,31.08A83,83,0,0,1,758.68,649c-5.37,2.93-11.56,5.49-17.72,6-2.81.23-5.89,0-8.29-1.58-2.61-1.78-3.41-4.84-3.25-7.84a30.24,30.24,0,0,1,2.16-8.71c1.29-3.52,2.6-7,3.89-10.55,10.22-27.9,19.85-56.06,27.18-84.88,7.18-28.21,12.13-57.08,13.17-86.21,1-28.26-1.64-56.81-9.36-84.07q-2.87-10.07-6.64-19.85c-.69-1.78-3.59-1-2.89.8,10.58,27.37,15.48,56.61,16,85.9.57,29.77-3.28,59.43-9.8,88.43-6.7,29.76-16.12,58.82-26.4,87.51q-3.87,10.8-7.88,21.56c-1.95,5.26-4,11.85-1,17.11,3,5.08,9.22,5.93,14.55,5.21a52.76,52.76,0,0,0,18-6.36c11.56-6.36,21.12-15.88,29.7-25.77a213.27,213.27,0,0,0,24.76-35.1c14-24.8,23-51.94,32.71-78.59,4.91-13.46,10-26.87,16.12-39.86s13.63-25.46,19.73-38.55c5.67-12.14,9.68-24.78,10.84-38.17a106.52,106.52,0,0,0-3.39-37.06,103.79,103.79,0,0,0-16.07-33.82c-3.69-5.07-7.78-10-12.81-13.84a29.05,29.05,0,0,0-19.1-5.76c-13.4.48-26.51,5-35.6,15.15-4.52,5-8.47,10.48-13.78,14.78A57.15,57.15,0,0,1,758,347.53a1.5,1.5,0,0,0,0,3Z" transform="translate(-342.65 -304.93)"/><path class="cls-7" d="M851.24,502.53c3.54.75,5.5,4.82,5.34,8.44s-1.85,7-3.12,10.36a47.52,47.52,0,0,0,1.71,36.88c2,4.08,4.53,7.86,6.51,11.93,4.62,9.53,5.91,20.33,6.06,30.92.15,10.17-.75,20.55-4.69,29.93-7.53,17.94-24.81,29.52-41.18,40-5.56,3.57-11.48,7.26-18.09,7.46-8.75.26-16.3-5.56-23.81-10.06A89.92,89.92,0,0,0,742,656" transform="translate(-342.65 -304.93)"/><path class="cls-8" d="M850.84,504c3.79.93,4.67,5.52,4,8.83a39.64,39.64,0,0,1-2.34,6.86,48.79,48.79,0,0,0-2.11,6.57,49.31,49.31,0,0,0,1,26.66,68.51,68.51,0,0,0,6.18,12.86,59.3,59.3,0,0,1,5.8,13.11c2.65,9.22,3.13,19,2.78,28.59-.35,9.38-2,18.8-6.5,27.14-3.9,7.26-9.5,13.41-15.7,18.78A181,181,0,0,1,823.74,668c-7.39,4.79-15.47,10.59-24.75,8.47-4.22-1-8-3.09-11.71-5.32-3.9-2.37-7.7-4.87-11.77-7A91.39,91.39,0,0,0,749,655.43q-3.48-.57-7-.9c-1.93-.18-1.91,2.82,0,3a88.28,88.28,0,0,1,28.2,7.47,106.68,106.68,0,0,1,12.53,6.9,68,68,0,0,0,12,6.45,23,23,0,0,0,13.24,1.1c4.63-1,8.85-3.46,12.82-6a242.74,242.74,0,0,0,21.37-14.75,80.5,80.5,0,0,0,17.54-18.37,58.26,58.26,0,0,0,9-26.08,104.54,104.54,0,0,0-.88-29.71,59.45,59.45,0,0,0-4.26-14c-2.11-4.67-5.07-8.9-7.26-13.53a45.87,45.87,0,0,1-3.52-27.54,44.94,44.94,0,0,1,1.72-6.59c.82-2.42,1.92-4.73,2.69-7.16,1.25-3.94,1.4-8.37-1.22-11.81a7.71,7.71,0,0,0-4.32-2.89c-1.87-.46-2.67,2.43-.79,2.89Z" transform="translate(-342.65 -304.93)"/><path class="cls-7" d="M744.31,656.65c6.85-1.9,13.06-5.63,18.81-9.8,17.5-12.68,31.53-29.65,43-47.94s20.61-38,29.65-57.58c5.66-12.3,11.37-24.81,13.3-38.21" transform="translate(-342.65 -304.93)"/><path class="cls-8" d="M744.71,658.09c11.55-3.26,21.59-11.12,30.39-19a170.93,170.93,0,0,0,23.74-26.67c15.32-21,26.43-44.65,37.27-68.17,6-13.07,12.33-26.33,14.45-40.71.28-1.89-2.61-2.7-2.89-.79-1.87,12.64-7,24.42-12.29,35.95-5.42,11.81-10.86,23.63-16.8,35.19-11.06,21.52-24.08,42.37-41.56,59.31a133.93,133.93,0,0,1-15.18,12.75c-5.5,3.94-11.39,7.42-17.93,9.27a1.5,1.5,0,0,0,.8,2.89Z" transform="translate(-342.65 -304.93)"/><path class="cls-9" d="M527.54,463.15c-3.34-28.78,13.21-55.86,18.09-84.43a48.79,48.79,0,0,0-63.72,19.65,155.61,155.61,0,0,1,45.82,73.56" transform="translate(-342.65 -304.93)"/><path class="cls-8" d="M529,463.15c-2.55-22.68,7-44.14,13.46-65.36a155.93,155.93,0,0,0,4.58-18.67,1.53,1.53,0,0,0-.69-1.69A51.42,51.42,0,0,0,516,373a50.64,50.64,0,0,0-35.39,24.61,1.53,1.53,0,0,0,.24,1.82,154.77,154.77,0,0,1,39.06,54.68,152.81,152.81,0,0,1,6.37,18.21,1.5,1.5,0,0,0,2.9-.79,157.82,157.82,0,0,0-32.55-60.33A154.39,154.39,0,0,0,483,397.31l.23,1.82A48.18,48.18,0,0,1,501.77,381a47.5,47.5,0,0,1,43.11-1l-.69-1.7c-3.9,22.56-14.73,43.34-17.8,66.07a76.49,76.49,0,0,0-.35,18.76c.22,1.9,3.22,1.92,3,0Z" transform="translate(-342.65 -304.93)"/><path class="cls-7" d="M526.83,479.49c-4-28.31-21.61-52.6-39.32-75-7.72-9.78-15.57-19.46-23.42-29.14-4.44-5.48-9-11-14.78-15.05-5-3.47-10.83-5.64-16.65-7.54a219.32,219.32,0,0,0-33.06-8c-2.1-.33-4.31-.63-6.3.11-3.18,1.18-4.87,4.58-6.25,7.68l-13,29.33c-4.37,9.85-8.78,19.8-10.79,30.38-5.05,26.67,5.62,53.55,16.28,78.51,7.1,16.62,14.44,33.44,26,47.32,7.35,8.8,16.24,16.21,23.73,24.9,26.05,30.23,33.46,73.83,61.86,101.85,2.49,2.45,5.21,4.82,8.5,6,8.5,3.05,17.38-2.48,25.35-6.73A99,99,0,0,1,561.44,653c1.59-.16,3.31-.34,4.48-1.42,2.18-2,1.19-5.55,0-8.27L558,624.58c-10.44-24.64-20.93-49.44-26.82-75.54-6.52-28.89-7.27-58.72-8-88.32" transform="translate(-342.65 -304.93)"/><path class="cls-8" d="M528.28,479.09c-3.91-27-19.75-50-36.09-71.09-9.31-12-18.88-23.78-28.48-35.53-4.3-5.26-8.84-10.42-14.59-14.14s-12.66-6-19.31-8.08a219.12,219.12,0,0,0-21.89-5.54,93.72,93.72,0,0,0-10.64-1.78,9.45,9.45,0,0,0-8,2.89c-2,2.2-3.13,5-4.32,7.7l-4.83,10.86c-3.14,7.06-6.31,14.1-9.41,21.18a149.34,149.34,0,0,0-7.59,20.34,78.3,78.3,0,0,0-2.71,21.26c.14,14.73,4.08,29.16,9.12,42.91,4.92,13.43,10.59,26.74,16.76,39.65,6,12.61,13.25,24.49,22.86,34.71,4.89,5.18,10.12,10,15,15.2a119.37,119.37,0,0,1,12,15c6.79,10,12.22,20.88,17.44,31.78,10.24,21.4,20.05,44.74,38,61a22,22,0,0,0,8.34,5.11,18.73,18.73,0,0,0,9.2.18c6.72-1.42,12.57-5.36,18.61-8.4a98.48,98.48,0,0,1,30.52-9.45c2.89-.4,6.6-.14,8.82-2.38,1.89-1.91,1.78-4.78,1.11-7.2-.93-3.34-2.62-6.56-4-9.75-3-7-5.94-14-8.88-21-5.78-13.77-11.39-27.62-16-41.82a259.9,259.9,0,0,1-10.32-43.85,437.82,437.82,0,0,1-3.69-46.05c-.27-7.36-.45-14.72-.63-22.07-.05-1.93-3.05-1.94-3,0,.72,29.47,1.47,59.21,7.91,88.1,6.29,28.27,18,54.93,29.21,81.49l4.33,10.22c1,2.42,3.29,6.11,2.38,8.87-.44,1.36-1.79,1.75-3.07,2-1.65.26-3.32.37-5,.6a97.44,97.44,0,0,0-10.43,2,100.89,100.89,0,0,0-19.21,6.95c-6,2.88-11.67,6.82-18.17,8.56a16,16,0,0,1-9.71-.12c-3.06-1.1-5.56-3.37-7.84-5.61a103.11,103.11,0,0,1-11.4-13.46c-6.81-9.52-12.24-19.93-17.35-30.44-10.28-21.17-19.53-43.28-35.67-60.82-4.69-5.1-9.77-9.83-14.59-14.8A112.4,112.4,0,0,1,400,528.07c-7.46-11.23-13-23.61-18.25-36-11.07-25.84-23.14-54.48-16.27-83.06,3.4-14.1,10.26-27.32,16.13-40.52L386.26,358a65.74,65.74,0,0,1,4-8.48,8,8,0,0,1,2.94-3,8.92,8.92,0,0,1,5.41-.42c3.55.52,7.1,1.21,10.61,2a216.55,216.55,0,0,1,21,5.47c6.56,2.06,13.17,4.35,18.82,8.38s9.79,9.28,14,14.48q7.11,8.76,14.18,17.54c16.72,20.83,34.7,42.25,43.67,67.79a95.79,95.79,0,0,1,4.5,18.19c.28,1.9,3.17,1.09,2.9-.8Z" transform="translate(-342.65 -304.93)"/><path class="cls-9" d="M432.82,570.43c-4.5,23.09-5.83,47.14-.46,70s17.93,44.63,37.18,58.14c3.77,2.65,8.53,5,12.81,3.35,2.56-1,4.36-3.31,5.9-5.6a69.06,69.06,0,0,0,8.16-16.49,11.06,11.06,0,0,0,.79-5.19c-.37-2.25-2-4.06-3.47-5.78-21.61-24.91-33-56.79-48.93-85.67-2.86-5.18-6.42-10.71-12.13-12.25" transform="translate(-342.65 -304.93)"/><path class="cls-8" d="M431.37,570c-4.41,22.76-5.85,46.42-.83,69.21C434.67,658,443.45,676,456.91,689.8a85.14,85.14,0,0,0,10.76,9.31c3.93,2.86,8.82,5.81,13.9,4.66s8-6.36,10.37-10.46a59,59,0,0,0,6.43-14.74,9.23,9.23,0,0,0-1-7.4,55.63,55.63,0,0,0-4.81-5.93,153.72,153.72,0,0,1-9.21-12.48,267.45,267.45,0,0,1-15.44-26.91c-4.77-9.35-9.25-18.84-13.94-28.22-2.29-4.59-4.64-9.15-7.09-13.66-2.2-4.06-4.53-8.33-8.13-11.34a15.44,15.44,0,0,0-5.71-3.1,1.51,1.51,0,0,0-.8,2.9c4.23,1.21,7.1,4.72,9.34,8.31,2.55,4.07,4.71,8.41,6.9,12.68,4.53,8.82,8.79,17.79,13.19,26.68,8.77,17.71,18.26,35.13,31.24,50.16,1.53,1.78,3.07,3.68,2.8,6.17s-1.53,5.32-2.55,7.73a56.94,56.94,0,0,1-7.52,13.23c-1.45,1.81-3.28,3.38-5.69,3.61a12.07,12.07,0,0,1-6.79-1.86,58.38,58.38,0,0,1-11.09-8.47c-13.41-12.43-22.49-29.06-27.28-46.61-5.79-21.2-5.42-43.68-2-65.24.42-2.67.9-5.34,1.42-8,.36-1.89-2.53-2.7-2.9-.8Z" transform="translate(-342.65 -304.93)"/></g><g id="flor_cabeça" data-name="flor cabeça"><path class="cls-7" d="M676,751c15.15,4.61,37.64,10.83,52.79,15.44l17.83,5.43c2.7.82,5.59,1.65,8.3.87,3.39-1,5.61-4.14,7.33-7.2,7.86-14,11.29-30.21,10.94-46.23s-4.39-31.84-10.66-46.58c-7.09-16.65-18.37-33.13-35.56-38.8-9.11-3-20.13-2.08-29.53-1.38a123.5,123.5,0,0,0-15.57,2,23.27,23.27,0,0,0-5.79,1.5c-2.62,1.34-4.7,4.89-6.32,7.34a64.77,64.77,0,0,0-9.35,23.8c-2.15,11.55-1.61,23.47.22,35.07a47.53,47.53,0,0,0,1.55,7.1c.75,2.34,1.8,4.56,2.63,6.86,2.77,7.7,4.12,16.07,7,23.48,1.35,3.51,1.83,6.77,4,10,.39.59.76,1.77.27,1.26" transform="translate(-342.65 -304.93)"/><path class="cls-8" d="M675.56,752.48c12.26,3.73,24.6,7.18,36.91,10.75q9.12,2.64,18.23,5.4L742,772.06c3.52,1.07,7.34,2.71,11.09,2.51,7-.38,10.48-7.8,13.08-13.34a87.85,87.85,0,0,0,6.59-20,106.91,106.91,0,0,0-.63-43.38,128.56,128.56,0,0,0-14.83-38.82c-6.14-10.33-14.57-19.93-25.73-24.91a48.13,48.13,0,0,0-19.48-3.76,172.17,172.17,0,0,0-21.76,1.38c-3.63.43-7.21,1.08-10.8,1.77a12,12,0,0,0-7.69,4.33A62,62,0,0,0,662,655.52c-5.26,14.3-5.35,29.89-3.24,44.81a52.39,52.39,0,0,0,2.52,11.22c1.3,3.44,2.67,6.81,3.69,10.34s1.87,7.07,2.84,10.6,2.23,6.76,3.31,10.16c.51,1.61,1,3.23,1.64,4.79a22.42,22.42,0,0,0,1.13,2.31c.2.34.45.67.63,1,0,.09.12.57.14.36l1.1-1.44h-.07l1.46.39L677,750c-1.5-1.17-3.64.93-2.12,2.12a1.81,1.81,0,0,0,1.68.49,1.55,1.55,0,0,0,1.1-1.45c.14-1.3-1.06-2.61-1.6-3.68a29,29,0,0,1-1.79-4.79c-1-3.24-2.26-6.39-3.2-9.66-2-6.91-3.53-13.85-6.22-20.53s-3.55-14-4.08-21.19a92.6,92.6,0,0,1,.85-22.68,66,66,0,0,1,6.45-19.42,69.34,69.34,0,0,1,5.14-8.29,13.4,13.4,0,0,1,2.71-3,10.28,10.28,0,0,1,4.35-1.51,177.73,177.73,0,0,1,21.08-2.63c6.71-.47,13.6-.84,20.26.38,11.76,2.14,21.42,10,28.39,19.39,7.59,10.22,12.73,22.25,16.41,34.37a112.31,112.31,0,0,1,4.86,42.43,90.58,90.58,0,0,1-4,19.9,80.72,80.72,0,0,1-3.81,9.66,39.93,39.93,0,0,1-4.84,8.41,9.63,9.63,0,0,1-3.1,2.61,8.27,8.27,0,0,1-5.31.38c-3.63-.75-7.19-2.08-10.73-3.15-6.32-1.93-12.65-3.87-19-5.73-12.05-3.54-24.14-6.94-36.19-10.48q-4-1.17-7.93-2.37c-1.85-.57-2.65,2.33-.8,2.89Z" transform="translate(-342.65 -304.93)"/><path class="cls-7" d="M675.69,636.26c-4.07,2.07-6.64,6.2-8.66,10.29a84.91,84.91,0,0,0-5.16,61.33c1.7,5.69,3,12.54,5.34,18,3.23,7.7,5,17.74,8.25,25.44" transform="translate(-342.65 -304.93)"/><path class="cls-8" d="M674.93,635a20.29,20.29,0,0,0-7.71,8,71.07,71.07,0,0,0-5,10.87,86.82,86.82,0,0,0-3.35,48.56c.88,4,2.11,7.84,3.13,11.76a93.86,93.86,0,0,0,3.66,11.93c3.41,8.33,4.88,17.31,8.33,25.63.73,1.76,3.63,1,2.89-.79-3-7.21-4.45-14.92-7-22.27-1.27-3.63-2.73-7.13-3.76-10.85S664,710.1,663,706.24a83.61,83.61,0,0,1,.67-47.08,78.44,78.44,0,0,1,5-12.38c1.85-3.66,4.13-7.26,7.85-9.23,1.71-.9.2-3.49-1.51-2.59Z" transform="translate(-342.65 -304.93)"/><path class="cls-7" d="M750,652c16.3.43,34-1.72,47.65,7.17a67.56,67.56,0,0,1,8.82,7.3c8.53,7.91,17.19,16,22.81,26.19,3.74,6.77,6,14.25,8,21.72,3.66,13.44,6.71,27.42,4.8,41.22s-9.69,27.53-22.47,33.08c-8.41,3.66-18,3.46-27.06,2-11.63-1.9-23.35-6-32.31-13.9a17.8,17.8,0,0,1-3.2-3.11c-1.1-1.68-.5-1.95.62-3.64q2.76-4.18,5.12-8.6a109.86,109.86,0,0,0,7.95-18.86,58.48,58.48,0,0,0,2.43-10.43,80.92,80.92,0,0,0,.28-12.65,183.1,183.1,0,0,0-1.23-19,92.3,92.3,0,0,0-22.39-48.74" transform="translate(-342.65 -304.93)"/><path class="cls-8" d="M750,653.53c12.29.31,25-1,37,2.49a40.91,40.91,0,0,1,16,9.37c4.85,4.37,9.66,8.85,14.12,13.62a71.77,71.77,0,0,1,11.46,15.64,96.75,96.75,0,0,1,6.87,18.84c3.77,13.64,7.21,28.08,5.08,42.29-1.6,10.73-6.74,21.67-15.68,28.18-10.55,7.68-24.26,7-36.43,4.43a68.61,68.61,0,0,1-17.79-6.27,50.07,50.07,0,0,1-7.74-5c-1.18-1-2.37-1.93-3.47-3a4.63,4.63,0,0,1-1.33-1.57c-.17-.51,0-.52.37-1.07a104.61,104.61,0,0,0,10-18.54c2.66-6.29,5.05-12.92,6-19.71,1-7.09.48-14.43.14-21.57a110.38,110.38,0,0,0-2.6-20.24,93.55,93.55,0,0,0-15.43-33.61q-2.7-3.72-5.75-7.15c-1.28-1.45-3.39.68-2.12,2.12a91.05,91.05,0,0,1,18.89,33.78,93.8,93.8,0,0,1,3.68,19.73c.3,3.74.44,7.49.55,11.24s.28,7.48.08,11.22c-.38,7.2-2.68,14.22-5.33,20.88a106.51,106.51,0,0,1-10,19.24c-.65,1-1.65,2-1.66,3.33,0,1.45,1.08,2.79,2.05,3.75a50.92,50.92,0,0,0,7.46,6A63.27,63.27,0,0,0,782,789.85c12.39,3.61,27,5.45,39.1-.14,10.51-4.88,17.55-15.2,20.82-26,4-13.44,2.19-27.84-1-41.25s-7-27.17-15.52-38.36A123.64,123.64,0,0,0,812,669.57c-4.87-4.62-9.73-9.64-15.64-12.93-11.14-6.19-24.36-6.1-36.74-6-3.19,0-6.38,0-9.57-.06-1.93,0-1.93,3,0,3Z" transform="translate(-342.65 -304.93)"/><path class="cls-7" d="M610.39,757.63q3.9-.2,7.79-.49c15.13-1.15,30.12-3.59,45.22-4.94,2.05-.19,4.1-.35,6.15-.5,1.33-.09,4.36.33,5.47-.26,1.73-.91-1.3-7.33-2-9.4-2.55-7.89-5.18-15.75-8.14-23.5a75.57,75.57,0,0,1-2.7-7.75,68,68,0,0,1-1.66-10.15c-.44-4-.89-7.93-1-11.91a86.27,86.27,0,0,1,5.07-33c1.45-4,3.44-7.82,4.77-11.85,1.11-3.34-.74-4.79-3.2-7-4.84-4.31-11-6.39-17.2-7.94-8.6-2.15-17.57-2.23-26.43-2-16.41.43-33.61,2.14-47.24,11.29-17.21,11.56-25.53,33.72-23.56,54.35s13.07,39.62,27.65,54.35c3.42,3.46,7.13,6.78,11.61,8.68C597,758.21,603.83,757.94,610.39,757.63Z" transform="translate(-342.65 -304.93)"/><path class="cls-8" d="M610.39,759.13c17.11-.84,34-3.62,51-5.25a90.21,90.21,0,0,1,10.77-.63c2.36.06,4.91-.32,4.85-3.21-.06-2.36-1.15-4.69-2-6.85-1.23-3.16-2.16-6.44-3.23-9.66-1.35-4-2.73-8-4.2-12a111.11,111.11,0,0,1-4.16-11.86,92.31,92.31,0,0,1-1.77-12.16,115.09,115.09,0,0,1-.79-12.31,85,85,0,0,1,3.43-24,103,103,0,0,1,4.32-11.52c1.26-3,3.48-6.75,2-10a10.49,10.49,0,0,0-2.73-3.24,32.8,32.8,0,0,0-4.17-3.27,40,40,0,0,0-9.78-4.41,81.57,81.57,0,0,0-23.6-3.42,192.81,192.81,0,0,0-22.67,1A87.23,87.23,0,0,0,586.38,631a53.55,53.55,0,0,0-29.12,25.46,65.13,65.13,0,0,0-6.92,37.37c1.59,14,7.24,27.34,15.25,38.91a112,112,0,0,0,13.77,16.34,40.64,40.64,0,0,0,8.74,6.83,28.53,28.53,0,0,0,10.83,3.17,76.91,76.91,0,0,0,11.46,0c1.92-.09,1.93-3.09,0-3-7.4.35-15.12.63-21.7-3.34a43.27,43.27,0,0,1-8.27-6.88q-3.61-3.64-6.89-7.6c-8.59-10.39-15.35-22.51-18.59-35.66a64.66,64.66,0,0,1,1.55-36.94c4-11.54,11.73-21.75,22.38-27.92,12.13-7,26.51-8.68,40.27-9.2,7.76-.29,15.65-.46,23.36.66,6.82,1,14.09,2.86,19.9,6.69a30.11,30.11,0,0,1,3.8,3.06c.91.84,2,1.78,2,3.11,0,1.64-1,3.46-1.6,4.94-.78,1.9-1.63,3.77-2.41,5.67a84.4,84.4,0,0,0-5.62,22,136.13,136.13,0,0,0,1.88,35.06,85.82,85.82,0,0,0,3.73,10.93c2.75,7.33,5,14.82,7.62,22.17A43.5,43.5,0,0,1,674,749.3a6.81,6.81,0,0,0,.09,1.13v-.06c-.08.26,0,.21.14-.15-.23-.25.63.27-.21,0a8.12,8.12,0,0,0-1.77,0c-.73,0-1.45-.07-2.18-.06-3.66,0-7.4.56-11,.93-4.1.42-8.19.91-12.28,1.4-8.18,1-16.36,2.06-24.57,2.79q-5.85.54-11.73.82C608.47,756.22,608.46,759.22,610.39,759.13Z" transform="translate(-342.65 -304.93)"/><path class="cls-7" d="M566,643.76c-16.18-6.9-32-5.44-48.55.59-3.39,1.24-8.44,3.12-11.46,5.1-8.19,5.36-12.32,11.85-15.42,21.22-2.77,8.39-3.36,18.05-3.67,26.88-.24,6.84,1.39,14.7,3,21.35a80,80,0,0,0,22.63,39.33l13.41,7.93c2.9,1.48,6.3,2.67,8.79,3.83,4.49,2.1,8.11,2.31,12.95,1.27,10.83-2.33,16.2-3.75,26.38-8.09,2.59-1.11,8.9-3.72,11.45-4.92,2.31-1.08,5.26-1.35,2.67-3.48-4.32-3.56-11-9.46-14-13.36C563.66,727.67,555.63,712,552,695.09s4.91-36.23,13.62-51.2" transform="translate(-342.65 -304.93)"/><path class="cls-8" d="M566.72,642.47a58.9,58.9,0,0,0-22.66-4.79,74.12,74.12,0,0,0-22.92,3.81c-6.38,2-13.05,4.33-18.43,8.42a36.47,36.47,0,0,0-11,13.73,66.1,66.1,0,0,0-5.45,20.53c-.84,7.37-1.32,14.94-.34,22.31,1.84,13.76,6.13,27.34,13.91,38.91a87.42,87.42,0,0,0,6.08,8c1.14,1.32,2.32,2.62,3.53,3.88a16.51,16.51,0,0,0,2.41,2.32c2.68,1.82,5.63,3.34,8.42,5l4.21,2.49a42.41,42.41,0,0,0,5.6,2.59c3.2,1.32,6.34,3,9.81,3.52s7.11-.21,10.63-1a126.19,126.19,0,0,0,18.5-5.34c5.48-2.12,10.92-4.44,16.27-6.84,1.78-.8,5.83-1.56,5.34-4.24-.25-1.34-1.55-2.16-2.52-3q-1.83-1.53-3.61-3.11c-2.41-2.15-4.79-4.35-7-6.71a67.65,67.65,0,0,1-5.83-7.54,114.12,114.12,0,0,1-18-39.88c-3.2-14.27,2-29,8.29-41.67,1.56-3.13,3.24-6.19,5-9.21a1.5,1.5,0,0,0-2.59-1.52c-7,12-13.27,25.29-14.5,39.33-.61,6.92.59,13.52,2.53,20.14a111.71,111.71,0,0,0,7.83,19.53,129.33,129.33,0,0,0,11.16,18,82.37,82.37,0,0,0,12.74,13.19c1,.86,2,1.68,3,2.55,0,0,.6.53.6.53l.21-.75a3.75,3.75,0,0,1-.44.24c-.66.32-1.38.53-2.06.81-2.41,1-4.79,2.11-7.2,3.13-5.44,2.3-10.85,4.66-16.5,6.42-2.81.88-5.66,1.61-8.52,2.29-3.45.8-7,1.86-10.57,1.87s-6.46-1.42-9.62-2.74a59.7,59.7,0,0,1-6.59-2.92c-2.88-1.64-5.7-3.37-8.55-5.06l-4-2.36c-1.65-1-3-2.81-4.26-4.24a79.32,79.32,0,0,1-18.09-33.75c-1.76-6.94-3.32-14.14-3.16-21.33a110.2,110.2,0,0,1,2.23-21.82,47.17,47.17,0,0,1,7.14-17,33.29,33.29,0,0,1,14-11c13.29-5.75,28.2-9.35,42.63-6.45a56.42,56.42,0,0,1,10.84,3.35,1.56,1.56,0,0,0,2-.54,1.5,1.5,0,0,0-.54-2Z" transform="translate(-342.65 -304.93)"/><path class="cls-7" d="M488.18,709.92c-6.53-54.29,21.32-59.94,18.69-62h0a48.21,48.21,0,0,0-9.43.9,51.23,51.23,0,0,0-32,19.33c-7.11,9.5-10.64,21.23-12.47,33-2.58,16.54-1.84,34.27,6.3,48.9a109,109,0,0,0,19.45,25.69c3.6,3.43,8.66,5.4,13.49,6.55a25.72,25.72,0,0,0,8.49.17,138.3,138.3,0,0,0,26.59-5.77c4.32-1.33,8.6-2.83,12.8-4.52C544.07,770.56,495.22,768.45,488.18,709.92Z" transform="translate(-342.65 -304.93)"/><path class="cls-8" d="M489.68,709.92c-1.72-14.43-2-30.4,4.28-43.87a38.17,38.17,0,0,1,6.58-9.92,38.56,38.56,0,0,1,3.21-3c.45-.38.9-.74,1.37-1.11l.3-.23.61-.47c1.15-.87,3.86-2.81,1.9-4.41l-1.46,2.51h0l.4-3a54,54,0,0,0-36.73,14.3c-10.18,9.44-15.39,22.78-17.94,36.18-2.59,13.66-3.13,28.14.75,41.61a72,72,0,0,0,9.13,19.06,107.13,107.13,0,0,0,13.42,17,29.83,29.83,0,0,0,7.83,6.08,33.63,33.63,0,0,0,9.9,3.28c3.86.57,7.85,0,11.68-.56s7.55-1.26,11.28-2.14a171.81,171.81,0,0,0,22.51-7c1-.38,2.74-.68,3.08-1.94a1.75,1.75,0,0,0-1-1.94,14.65,14.65,0,0,0-3-1c-1.7-.51-3.4-1-5.07-1.63a66.54,66.54,0,0,1-14.44-7.11c-14.67-9.62-23.58-25.12-27.23-42-.62-2.88-1.1-5.78-1.46-8.69-.23-1.9-3.23-1.92-3,0,2.23,18.27,9.29,36.13,23.53,48.34,7.89,6.75,17.15,11.13,27,14.08l1.54.47.57.2c.38.12-.35-.22.06,0,.2.12,0,.1-.18-.15.08.11-.3-.51-.31-.57a1.43,1.43,0,0,1,.36-1.36c-.11.13.32-.36.18-.15l-.16.06-1.36.54-2.27.85q-3,1.1-5.95,2.08a157.16,157.16,0,0,1-21.79,5.58,67.69,67.69,0,0,1-11.44,1.28,25.91,25.91,0,0,1-9.7-2.23c-6.42-2.64-11-8.15-15.29-13.44A107.41,107.41,0,0,1,460,748.14c-6.32-12-7.59-26-6.42-39.39s4.42-27.3,12.19-38.45a51.34,51.34,0,0,1,41.12-20.87,1.51,1.51,0,0,0,.4-2.95h0c-1.33-.3-2.7,1.5-1.46,2.51.23.19-.2-.36-.23-.46a2.81,2.81,0,0,1,0-.58c0-.14.39-.46,0-.16l-.65.56c-.38.32.15-.11-.16.13l-.52.39a46.32,46.32,0,0,0-5.9,5.2c-6.79,7.3-10.29,17-11.73,26.71a109.85,109.85,0,0,0,0,29.15C486.9,711.81,489.91,711.83,489.68,709.92Z" transform="translate(-342.65 -304.93)"/></g><g id="Camada_16" data-name="Camada 16"><path class="cls-10" d="M486.85,780.59c3.85-1.38,22.73-17.06,31.82-18,48.54-4.81,45-16,60.69-15.66,52.62,1.26,70.45-7.52,92.37-7.21,23.21.33,67.11,22.19,87.91,29.92,41.19,15.32,69.14,13,69.14,13s-1.74,11.83-36.17,8c-30.24-3.38-27.19-13.39-37.06-14.88-18-2.73-64.75-22.15-80-22.47-39.12-.82-80.09,4.46-86.38,6.47-37.74,12.06-48.48,12.69-61.82,16.85C499.55,785.34,477.27,784,486.85,780.59Z" transform="translate(-342.65 -304.93)"/><path class="cls-9" d="M778,652l51.86-53.06C838,590.58,846.28,582,851,571.33A28.23,28.23,0,0,0,853.82,558c-.59-8.09-6.1-15.43-5.61-23.52.54-9,8.48-17,6.93-25.87-.29-1.69-1.06-3.46-2.61-4.21-3.57-1.73-6.7,3-7.93,6.78A412,412,0,0,1,814,581.84c-10,18.19-21.51,35.81-36.65,50-5.42,5.07-11.27,9.67-16.9,14.51-.82.71-1.7,1.56-1.67,2.64,0,1.39,1.52,2.23,2.82,2.74a63.8,63.8,0,0,0,14.3,3.79" transform="translate(-342.65 -304.93)"/><path class="cls-8" d="M779,653l29.76-30.44c9.55-9.78,19.33-19.39,28.62-29.41a97.66,97.66,0,0,0,11.09-14c3.34-5.29,6.16-11.26,6.78-17.55s-1.81-11.71-3.76-17.39a27.41,27.41,0,0,1-1.82-8.56,21,21,0,0,1,1.61-7.69c1.88-5,4.77-9.7,5.42-15.09a12.64,12.64,0,0,0-1-7.38,5.3,5.3,0,0,0-5.85-2.87c-2.34.56-4.05,2.69-5.18,4.69-1.46,2.57-2.18,5.52-3.12,8.29q-3.16,9.3-6.75,18.44-7.34,18.63-16.48,36.48a313.47,313.47,0,0,1-19.12,32.91,158.15,158.15,0,0,1-23.93,28.27c-5,4.54-10.21,8.72-15.31,13.09-2,1.68-3.85,4.22-1.62,6.6a7.93,7.93,0,0,0,2.89,1.75c1.57.63,3.19,1.18,4.81,1.67a65.69,65.69,0,0,0,9.49,2.12c1.89.28,2.7-2.61.8-2.89a65.39,65.39,0,0,1-9.49-2.12c-1.33-.4-2.65-.85-4-1.34-.7-.27-2.79-.84-2.53-1.92.12-.5.83-1,1.18-1.29.59-.52,1.2-1,1.81-1.54q1.8-1.53,3.63-3c2.48-2.08,5-4.15,7.41-6.28A156.76,156.76,0,0,0,798.28,610a273.12,273.12,0,0,0,18.59-30.25q9-16.68,16.4-34.12,3.74-8.77,7.08-17.72c1.08-2.92,2.14-5.85,3.16-8.8s1.78-6,3-8.78c.73-1.68,2.1-4.38,4.12-4.76,2.36-.45,3.07,2.8,3.18,4.5.33,5.09-2.31,9.8-4.26,14.33-2.12,4.93-3.45,9.76-2.47,15.14s3.78,10.52,4.89,16c1.24,6.15-.74,12.29-3.55,17.73a72.33,72.33,0,0,1-9.86,14.13c-3.89,4.49-8.1,8.71-12.25,13L812,615l-28.19,28.84-7,7.12c-1.35,1.38.77,3.5,2.12,2.12Z" transform="translate(-342.65 -304.93)"/><path class="cls-9" d="M768.73,347.07c10.18,19.35,10.45,42.2,10.48,64.06,0,15.4,0,31.2-5.47,45.6,1.54-6.5.71-13.3-.17-19.92Q768.14,396,761,355.41c-.32-1.78-.61-3.73.27-5.32s3.46-2.24,4.46-.73" transform="translate(-342.65 -304.93)"/><path class="cls-8" d="M767.43,347.83c6.54,12.51,8.92,26.6,9.77,40.55.43,7.14.49,14.3.5,21.45,0,7.32,0,14.66-.48,22a87.1,87.1,0,0,1-4.93,24.54l2.9.8c1.63-7.14.67-14.39-.29-21.55q-1.49-11.15-3.1-22.27-3.22-22.1-6.95-44.12-1-6.12-2.11-12.22c-.3-1.73-1-4-.4-5.72.32-.89,1.55-1.77,2.28-.83a1.5,1.5,0,0,0,2.12,0,1.53,1.53,0,0,0,0-2.12c-1.71-2.21-5.28-1.31-6.67.8-1.91,2.9-.51,7,0,10.13q2.07,11.73,4,23.49,3.82,23.5,7,47.11c1.19,8.64,3.15,17.85,1.17,26.5a1.51,1.51,0,0,0,2.9.8c5.37-14.37,5.53-29.93,5.52-45.08,0-14.38-.07-28.9-2.89-43.06a84.22,84.22,0,0,0-7.8-22.67c-.89-1.72-3.48-.2-2.59,1.51Z" transform="translate(-342.65 -304.93)"/></g><g id="sapato"><path class="cls-11" d="M518.23,1313.31a39.57,39.57,0,0,0,25.65-3.09,127,127,0,0,0,5.82,16.16c2.37,5.4,5.3,10.84,10.14,14.2,3.54,2.46,8.26,4,9.77,8.07,1.67,4.45-1.62,9.16-5.07,12.44-7.67,7.3-17,12.53-26.28,17.68l-18.13,10.1c-8.53,4.75-17.13,9.53-26.45,12.46a72.48,72.48,0,0,1-45.93-1c-5.93-2.14-12-5.48-14.55-11.24a20.17,20.17,0,0,1-1.28-10c1.42-16,13.84-29.31,28.37-36.08s31-8,47-8.52c10-.3,20.22-.31,29.6,3.1C530.5,1330,524.6,1321,518.23,1313.31Z" transform="translate(-342.65 -304.93)"/><path class="cls-11" d="M517.83,1314.75a41.62,41.62,0,0,0,26.81-3.24l-2.2-.89a128.86,128.86,0,0,0,6.29,17.25c2.09,4.66,4.67,9.34,8.62,12.68a43.4,43.4,0,0,0,5.91,3.85c1.77,1,3.64,2.23,4.64,4.09,2.6,4.84-2.61,10-5.87,12.89-8.67,7.75-19.18,13.12-29.27,18.74-5.41,3-10.82,6-16.23,9a165,165,0,0,1-16.28,8.17,72.71,72.71,0,0,1-34.1,5.53,69.82,69.82,0,0,1-17.15-3.63c-4.45-1.54-9-3.62-12.16-7.19-3.66-4.12-4-9.8-3.15-15a36.92,36.92,0,0,1,4.87-13,51.08,51.08,0,0,1,21.16-19c10.26-5.11,21.79-7.21,33.13-8.18,5.79-.5,11.61-.73,17.42-.86a93.55,93.55,0,0,1,17.78.94,50,50,0,0,1,8.43,2.19c1.54.55,2.32-1.47,1.45-2.51-6.53-7.88-12.11-16.49-18.64-24.36-1.24-1.49-3.35.64-2.12,2.12,6.53,7.88,12.11,16.48,18.64,24.36l1.46-2.5c-11.69-4.18-24.56-3.5-36.76-2.89s-24.44,2-35.87,6.31c-9.69,3.66-18.61,9.52-25.09,17.69-6.23,7.85-10.82,18.66-8.83,28.84,2.18,11.17,14.64,15.64,24.38,17.94a74.54,74.54,0,0,0,36-.47c12.21-3.24,23.2-9.8,34.14-15.89,5.64-3.14,11.28-6.26,16.9-9.42a158.16,158.16,0,0,0,15.39-9.53c4.51-3.26,9.5-7,12.33-11.86a11,11,0,0,0,1.56-7.59,9.72,9.72,0,0,0-3.73-5.61,59,59,0,0,0-5.9-3.71,20.77,20.77,0,0,1-5.81-5.4c-3.44-4.69-5.65-10.32-7.65-15.74q-1.65-4.49-3-9.08a1.52,1.52,0,0,0-2.2-.9,38.28,38.28,0,0,1-24.5,2.94C516.74,1311.46,515.94,1314.35,517.83,1314.75Z" transform="translate(-342.65 -304.93)"/><path class="cls-11" d="M812.62,1299.44a39.64,39.64,0,0,1-25.46,4.45,126,126,0,0,1-.9,17.15c-.71,5.85-1.94,11.91-5.61,16.52-2.68,3.38-6.74,6.25-7,10.55-.32,4.75,4.2,8.31,8.44,10.45,9.46,4.77,19.93,7.08,30.27,9.34l20.28,4.43c9.54,2.08,19.15,4.17,28.92,4.29a72.57,72.57,0,0,0,43.7-14.19c5-3.75,9.89-8.7,10.68-15a20.19,20.19,0,0,0-1.65-9.91c-6-14.87-21.72-24.07-37.59-26.35s-31.95,1.25-47.43,5.41c-9.64,2.59-19.45,5.54-27.45,11.52C805.69,1319,808.73,1308.61,812.62,1299.44Z" transform="translate(-342.65 -304.93)"/><path class="cls-11" d="M811.86,1298.14a38.25,38.25,0,0,1-24.3,4.3,1.53,1.53,0,0,0-1.9,1.45,116,116,0,0,1-1.24,19.62c-.86,5.43-2.48,10.53-6.26,14.65-3.2,3.48-7,7.21-5.81,12.4,1.13,5,6.15,8,10.39,10,11.18,5.3,23.48,7.54,35.48,10.16,12.83,2.81,25.78,6.33,38.93,7.23a74.21,74.21,0,0,0,34-5.74,71.29,71.29,0,0,0,15-8.59c4.15-3.1,8.09-6.84,10.11-11.72,4.14-10-2.67-21.45-9.76-28.27a53.15,53.15,0,0,0-26.15-13.28c-12.29-2.5-25-1.18-37.19,1.36-6.22,1.3-12.39,2.89-18.5,4.64a92.93,92.93,0,0,0-16.25,6,50.41,50.41,0,0,0-7.37,4.5l2.21,1.7c4-9.43,6.84-19.29,10.81-28.72a1.5,1.5,0,0,0-1-1.84,1.53,1.53,0,0,0-1.85,1c-4,9.43-6.84,19.28-10.81,28.71-.5,1.17,1.19,2.44,2.2,1.69,9.16-6.77,20.42-9.68,31.29-12.47,11.95-3.07,24.24-5.52,36.64-4.85a55.63,55.63,0,0,1,27.79,8.75,40.71,40.71,0,0,1,10.28,9.57c2.93,4,5.49,8.85,5.91,13.83.45,5.26-2.19,9.73-5.82,13.32a56.47,56.47,0,0,1-13.23,9.27,71,71,0,0,1-31.31,8.24c-12.5.31-24.77-2.84-36.89-5.49-11.73-2.56-23.75-4.62-35.14-8.51-4.82-1.64-10.31-3.54-14.11-7.08a7.67,7.67,0,0,1-2.86-5.56c0-2.31,1.55-4.24,3-5.88a52.12,52.12,0,0,0,4.66-5.41,26.17,26.17,0,0,0,3.27-7.2c1.6-5.39,2.07-11.17,2.39-16.75.18-3.11.24-6.22.2-9.33l-1.9,1.44a41.57,41.57,0,0,0,26.61-4.6C815.07,1299.8,813.55,1297.21,811.86,1298.14Z" transform="translate(-342.65 -304.93)"/></g><g id="Camada_15" data-name="Camada 15"><path class="cls-12" d="M452.74,1402c0-1.3,10.51-8,48.19-14.74,38.24-6.81,43.36-11.83,43.36-11.83s-40.65,26.18-53.59,29.22S452.66,1404.6,452.74,1402Z" transform="translate(-342.65 -304.93)"/><path class="cls-12" d="M805.43,1366.35l52.93,3.5,41-3.5a74,74,0,0,1-43.72,10C830.79,1373.94,805.43,1366.35,805.43,1366.35Z" transform="translate(-342.65 -304.93)"/><path class="cls-12" d="M792.92,1303.42s.51,19.28-5.37,28-11.69,10.71-11.74,16.6c0,5-.72,6.57-.72,6.57a8.41,8.41,0,0,1-1.32-9.93c2.32-4.51,7.4-8.09,9.17-12.83,2.46-6.63,3.63-21,3.46-28.26C786.38,1302.44,792.92,1303.42,792.92,1303.42Z" transform="translate(-342.65 -304.93)"/><path class="cls-12" d="M544.53,1310.22A115.89,115.89,0,0,0,555,1334.83c1.85,3.06,15,8.72,15.45,14.17a13.06,13.06,0,0,1-4,10.55c-2.89,2.9-3.61,3.11-3.61,3.11s8.46-4.85-.73-14.87-14.75-16.47-17.37-23S544,1308.58,544.53,1310.22Z" transform="translate(-342.65 -304.93)"/></g><g id="Camada_8" data-name="Camada 8"><path class="cls-13" d="M679,1146.3c5.53-7.31,19.38-54.51,22.31-63.19-15-8.79-31.21-15.74-48.57-16.07-11.73-.22-23.41,1.59-34.93,3.81-7.06,1.36-15.25,5-21.54,8.51,1.78,9.94,4.64,19.09,7.85,28.67,4.24,12.68,9.26,25.35,17.59,35.82s20.41,20.07,33.76,19.41c7-.35,15.43-4.82,23.53-17" transform="translate(-342.65 -304.93)"/><path class="cls-14" d="M680.26,1147.06c1.85-2.49,3-5.62,4.13-8.46,1.85-4.57,3.5-9.22,5.1-13.89,3.49-10.14,6.69-20.39,9.88-30.63,1.1-3.53,2.16-7.07,3.34-10.57a1.53,1.53,0,0,0-.69-1.7c-12.26-7.18-25.52-13.3-39.68-15.43-15-2.25-30.62.08-45.36,3.1-7.55,1.55-14.8,4.87-21.51,8.58a1.55,1.55,0,0,0-.69,1.7c1.94,10.69,5.23,21.09,8.76,31.35,3.26,9.45,7,18.84,12.42,27.3,5.07,7.95,11.65,15.26,19.61,20.4,6.84,4.41,15.5,7.32,23.66,5.41,9.13-2.13,16-9.69,21-17.16,1.08-1.61-1.52-3.11-2.59-1.52-4.33,6.43-10.08,13-17.72,15.37-7.33,2.31-15.32-.13-21.68-4-16.2-9.75-25.11-27.57-31.19-44.78-3.83-10.84-7.36-21.88-9.41-33.21l-.69,1.69a80.17,80.17,0,0,1,18.8-7.82c3.47-.88,7.05-1.43,10.58-2,3.73-.62,7.47-1.16,11.23-1.55a98.43,98.43,0,0,1,22.17-.22,83.81,83.81,0,0,1,19.58,5,140.17,140.17,0,0,1,21.17,10.37l-.69-1.69c-2.56,7.6-4.8,15.32-7.23,23-3.23,10.16-6.47,20.34-10.35,30.26-1.26,3.22-2.48,6.81-4.57,9.61-1.16,1.55,1.44,3,2.59,1.52Z" transform="translate(-342.65 -304.93)"/><ellipse class="cls-15" cx="196.45" cy="667.53" rx="20.43" ry="42.89"/><ellipse class="cls-15" cx="740.34" cy="960.53" rx="20.43" ry="42.89" transform="translate(-477.37 -184.04) rotate(-8.56)"/><circle class="cls-16" cx="205.42" cy="684.07" r="7.18"/><circle class="cls-16" cx="408" cy="679.47" r="7.18"/><circle class="cls-16" cx="186.77" cy="642.17" r="3.16"/><circle class="cls-16" cx="382.21" cy="639.01" r="3.16"/><path class="cls-17" d="M607.9,1114.34c.83-6.42,3.69-14.2,11.45-18.81a59.69,59.69,0,0,1,55.68-2.94,27.78,27.78,0,0,1,7.17,4.45,21.93,21.93,0,0,1,7.12,16c.09,19.62-11.87,36.5-16.82,40.85a53.87,53.87,0,0,1-8.7,6.26,18.82,18.82,0,0,1-8.93,2c-8.06,0-15.79-3.64-22-8.73a72.64,72.64,0,0,1-15-16.22c-1.37-2-3.48-6-4.6-8.07C610.78,1124.41,608,1119.62,607.9,1114.34Z" transform="translate(-342.65 -304.93)"/><path class="cls-14" d="M609.4,1114.34c.89-6.71,4.07-13.19,9.85-17a56,56,0,0,1,23.43-8.34,58.87,58.87,0,0,1,24.36,2.13,47,47,0,0,1,11.53,5,19.78,19.78,0,0,1,7.71,9.24,25.14,25.14,0,0,1,1.38,11.82,54.91,54.91,0,0,1-2.34,11.7,65,65,0,0,1-9,18.16,39.31,39.31,0,0,1-12.5,11.29c-7.32,4.27-16.88,1.9-23.84-2s-13-9.74-17.86-16a66.36,66.36,0,0,1-6-9.18,90.79,90.79,0,0,1-5.33-10.56,19.43,19.43,0,0,1-1.41-6.38c-.07-1.93-3.07-1.94-3,0,.16,4.74,2.13,9,4.31,13.15,1.77,3.35,3.47,6.79,5.55,10a73.16,73.16,0,0,0,17.47,18.49c7.08,5.25,16.15,8.73,25,7.36,4.53-.69,8.23-3.18,11.79-5.92a36.1,36.1,0,0,0,5.81-5.44,65.44,65.44,0,0,0,10.1-17.33,61,61,0,0,0,3.49-12.06,40.1,40.1,0,0,0,.54-13.11A23.55,23.55,0,0,0,685.2,1098c-2.92-3.45-6.89-5.63-11-7.38a61.09,61.09,0,0,0-51.85,1.57c-3.8,1.91-7.39,4.16-10.08,7.52a27.12,27.12,0,0,0-4.92,9.71,35.92,35.92,0,0,0-1,4.94c-.11.81.76,1.49,1.5,1.5A1.54,1.54,0,0,0,609.4,1114.34Z" transform="translate(-342.65 -304.93)"/></g><g id="Camada_10" data-name="Camada 10"><path class="cls-18" d="M1114.81,1087.48c-4.47-28.59-16.66-55.28-26.89-82.35-10.11-26.76-18.36-54.17-26.61-81.56-1.7-5.64-3.42-11.38-3.55-17.28-.11-5.1,1-10.14,1.89-15.16a261.57,261.57,0,0,0,3.11-72.62c-.22-2.28-.93-5.09-3.17-5.54-8,13.27-9.24,29.55-8.71,45.07.31,9.09.8,19.25-5.21,26.08-1.54-9.17-4-19.64-12.28-23.85q9.48,36.47,20.1,72.63-13.66-11.55-28.33-21.85c-4.29-3-9.3-6.08-14.43-5l25.45,23c8.23,7.44,16.57,15,22.4,24.45,12.39,20.07,11.82,45.8,22.7,66.72,2.65,5.09,5.94,9.83,8.4,15,4.31,9.1,5.86,19.23,8.6,28.93A42.6,42.6,0,0,0,1114.81,1087.48Z" transform="translate(-342.65 -304.93)"/><path class="cls-19" d="M1116.25,1087.08c-2.86-18.18-8.82-35.64-15.38-52.78-6.72-17.56-13.75-35-19.81-52.79-6.23-18.37-11.86-36.94-17.45-55.51a129.28,129.28,0,0,1-3.69-13.66,41.43,41.43,0,0,1,0-14.31c.75-4.71,1.73-9.39,2.46-14.11s1.32-9.41,1.79-14.13a259.46,259.46,0,0,0,1.29-28.7q-.08-7.19-.54-14.36c-.15-2.39-.34-4.77-.56-7.16a15.6,15.6,0,0,0-1.07-5.11,5,5,0,0,0-3.31-2.94,1.55,1.55,0,0,0-1.7.69c-5.1,8.51-7.52,18.21-8.48,28a127.4,127.4,0,0,0-.5,15c.09,4.64.41,9.3.1,13.94-.33,5-1.49,10-4.8,13.88l2.51.66c-1.55-9.15-4-20.05-13-24.75a1.52,1.52,0,0,0-2.2,1.69q7.36,28.33,15.42,56.49,2.31,8.08,4.68,16.15l2.5-1.46q-10.5-8.87-21.58-17a122.3,122.3,0,0,0-10.93-7.58c-3.6-2.09-7.53-3.42-11.71-2.65a1.51,1.51,0,0,0-.66,2.51l18.17,16.42c5.53,5,11.16,9.91,16.49,15.13A82.31,82.31,0,0,1,1057.75,955a81.43,81.43,0,0,1,7.81,18.56c3.83,12.79,5.82,26.1,10.55,38.61,2.53,6.7,6.14,12.68,9.68,18.87a79.86,79.86,0,0,1,7.76,20.49c1.87,7.42,3.22,15.11,6.87,21.92a46.23,46.23,0,0,0,13.63,15.31c1.56,1.15,3.06-1.46,1.51-2.59a43.11,43.11,0,0,1-12.26-13.69c-3.32-6-4.65-12.74-6.26-19.33-1.72-7-3.63-14.05-7-20.51s-7.42-12.28-10.17-19c-5.05-12.31-7.12-25.56-10.7-38.32a96.8,96.8,0,0,0-7-18.55A74.51,74.51,0,0,0,1049.84,940c-5.61-5.92-11.81-11.28-17.85-16.74L1011.79,905l-.66,2.51c3.92-.73,7.65,1.19,10.86,3.23,3.55,2.26,6.93,4.82,10.31,7.32q10.32,7.62,20.13,15.92a1.52,1.52,0,0,0,2.51-1.46q-8.25-28.1-15.82-56.38-2.16-8.11-4.28-16.25l-2.21,1.69c8.22,4.3,10.19,14.63,11.59,23a1.51,1.51,0,0,0,2.51.66c6.15-7.16,6-17,5.7-25.88-.34-10-.19-20.13,2.18-29.93a55.56,55.56,0,0,1,6.28-15.64l-1.7.69c1.48.38,1.83,2.29,2,3.59.31,2.18.41,4.41.57,6.6q.53,7.17.66,14.35a262.31,262.31,0,0,1-1,28.18c-.85,9.52-2.43,18.87-4.09,28.27a49.86,49.86,0,0,0-.9,13.73,73.65,73.65,0,0,0,3,13.34c5.44,18.22,11,36.44,17,54.49,5.89,17.69,12.61,35,19.38,52.4,6.57,16.85,12.86,33.94,16.4,51.73q.66,3.38,1.2,6.77C1113.66,1089.78,1116.55,1089,1116.25,1087.08Z" transform="translate(-342.65 -304.93)"/></g><g id="Camada_17" data-name="Camada 17"><path class="cls-20" d="M1052,835.22c-.6,3.62-2.3,14.31-.24,17.35.82,1.2,5.8-.34,9.46-.13,4.92.29,3.23-3.12,3.6-3.36s2.58-11.3,1.3-5.34c-1.66,7.7,3-5.26,2.19-13.1-.15-1.45-.49-3.07-1.72-3.86a5.08,5.08,0,0,0-2.53-.6c-3.16-.18-6.63-.08-9,2a9.11,9.11,0,0,0-2.85,5.56,27.14,27.14,0,0,0,0,6.37" transform="translate(-342.65 -304.93)"/><path class="cls-20" d="M1050.57,834.82a86.55,86.55,0,0,0-1.25,10.87c-.09,2.56-.44,8,2.93,8.74,2,.42,4.26-.23,6.27-.41s4.43.37,6.23-.75a3.59,3.59,0,0,0,1.58-3.34,2.11,2.11,0,0,0,0-.5c-.09-.15.25-.71-.2.27-.09.2-.36.86.07.12a5.93,5.93,0,0,0,.43-1.08c.39-1.28.65-2.61.93-3.92a14.6,14.6,0,0,0,.53-2.85,1.52,1.52,0,0,0-1.1-1.45h0a1.54,1.54,0,0,0-1.69.69,14.64,14.64,0,0,0-.77,3.2c-.21,1.11-.53,2.72,1,3.13s2-1,2.32-2.08a37.12,37.12,0,0,0,1.13-4.26c.83-3.91,1.6-8.36.68-12.31a5.09,5.09,0,0,0-4.73-4.16,19.39,19.39,0,0,0-7.24.44,9.26,9.26,0,0,0-6.08,5.45c-1.25,3-1.08,6.28-.84,9.46.15,1.91,3.15,1.93,3,0-.31-4-.69-9.62,3.69-11.64a13.07,13.07,0,0,1,6-.8,4.8,4.8,0,0,1,2.55.44,3.43,3.43,0,0,1,.94,2.28,29,29,0,0,1-.69,9.47c-.26,1.27-.56,2.53-.92,3.77-.13.46-.28.9-.43,1.34s-.09.08-.06.16a.83.83,0,0,1-.07.13,1.46,1.46,0,0,1,1.58-.59l.89.69a1.31,1.31,0,0,1,.18.6v-.16s0-.43,0-.11c.06-.47.17-.93.27-1.39s.19-.89.29-1.34c0-.18.29-.89,0-.2l-1.69.69h0l-1.1-1.45c0-.51,0-.14,0,.18l-.27,1.33c-.22,1.08-.45,2.15-.72,3.22-.1.42-.2.83-.33,1.24a2.13,2.13,0,0,0-.13.43c0,.08.16-.26.19-.32a4.43,4.43,0,0,0-.43,2.48c0-.24-.16.21,0,.08s-.13.14-.21.16a8.26,8.26,0,0,1-2.53.15c-2,0-4,.39-6.07.55a12,12,0,0,1-1.8,0c.42,0,.25.42.15-.1,0-.22-.15-.47-.21-.71a16.83,16.83,0,0,1-.3-4.48,74.68,74.68,0,0,1,1.16-10.54c.31-1.89-2.58-2.7-2.9-.8Z" transform="translate(-342.65 -304.93)"/><path class="cls-20" d="M1021.79,908.08c.56,1.26,10.07,6.58,10.17,8,0,.71-3.52,4.35-4.08,4.8s-5.83-4-6.52-4.17c-4.08-1-2.66-1.3-5.25-4.62-.6-.77-1.06-2.07-.22-2.57a1.76,1.76,0,0,1,1.26-.06,23.86,23.86,0,0,1,10.05,4.71" transform="translate(-342.65 -304.93)"/><path class="cls-20" d="M1020.5,908.84a7.47,7.47,0,0,0,2.58,2.28c1.34,1,2.72,1.85,4.07,2.78.67.45,1.34.92,2,1.4l.57.44c.21.18.43.36.63.56l.22.23c.26.24-.08-.14,0,0s0-.16,0-.13a3.29,3.29,0,0,0,0-.63c0,.21.16-.26,0-.12a13.68,13.68,0,0,1-1.11,1.45q-.84,1-1.74,1.86l-.62.6c-.06.07-.14.12-.2.19l0,0a1.13,1.13,0,0,1,1.06-.36s.28,0,0,0,.28.17,0,0l-.34-.19c-.29-.17-.58-.36-.86-.55-.66-.45-1.29-.92-1.93-1.39a11,11,0,0,0-3.3-2.08c-.45-.12-.89-.24-1.34-.39l-.21-.08c-.24-.09.17.09,0,0s-.27-.14-.41-.21c-.31-.17.12.12,0,0s-.29-.31-.13-.12-.08-.11-.11-.17l-.25-.42c-.51-.89-1.09-1.7-1.68-2.53-.13-.19-.21-.42-.35-.6s0-.17-.05-.16c.73-.06-.38.27-.29.41s.34.07.39.08l1.19.29a22.45,22.45,0,0,1,7.93,4,1.55,1.55,0,0,0,2.12,0,1.5,1.5,0,0,0,0-2.12,26.15,26.15,0,0,0-8.33-4.48c-1.4-.44-3.43-1.23-4.8-.4s-1.39,2.58-.75,3.92c.48,1,1.26,1.79,1.81,2.73a7.45,7.45,0,0,0,1.18,1.71,5.6,5.6,0,0,0,2.34,1.22l.79.23.48.12s-.26-.2-.23-.09.54.34.64.41c1.44,1,2.8,2.11,4.27,3.06a4.33,4.33,0,0,0,2.07.87,2.71,2.71,0,0,0,1.89-1.11,18.21,18.21,0,0,0,3.54-4.15c.81-1.57-.38-2.74-1.53-3.65-1.7-1.36-3.53-2.54-5.33-3.75-.8-.54-1.6-1.09-2.38-1.66l-.2-.15c-.15-.12.2.16,0,0l-.38-.32a2.47,2.47,0,0,0-.28-.28c-.15-.08.2.34.05,0-.86-1.73-3.45-.21-2.59,1.52Z" transform="translate(-342.65 -304.93)"/></g><g id="flor"><path class="cls-21" d="M1006.28,817.42c.52-.52,1.37-.32,2.1-.36a3.86,3.86,0,0,0,3-2.16,11.29,11.29,0,0,0,1-3.72l5.15,2.31c.93.41,2.09.81,2.9.18s.8-1.83,1.6-2.38a2.79,2.79,0,0,1,2-.18,64.57,64.57,0,0,0,12.35.68c3.33-.13,6.82-.48,9.85.89l-3.49,1.65a7.39,7.39,0,0,0-2.14,1.33c-1.13,1.15-1.36,2.87-1.8,4.42a14.68,14.68,0,0,1-3.5,6.11c-1.62,1.69-3.67,3-4.81,5.06a5.46,5.46,0,0,1-.79,1.26c-1.71,1.8-5.2-.39-7.09,1.22-.46.38-.74.94-1.22,1.29-.91.69-2.18.43-3.28.15l-6.92-1.76c.9,4.21,5,6.8,8.8,8.91l13.26,7.41a3.2,3.2,0,0,0,1.46.53,3,3,0,0,0,1.93-1c2-1.85,3.67-4.1,5.66-6s4.5-3.49,7.25-3.55c.63,0,1.38,0,1.73-.52s.06-1.18-.07-1.78c-.51-2.38,1.56-4.47,3.46-6s4-3.48,3.73-5.89c.13,7,1,12.1,2.08,19,.38,2.46,1,5.2,3.07,6.56a12.45,12.45,0,0,1,2.62,1.61c1.49,1.63.7,4.8,2.62,5.92,1.3.77,3,0,4.46.17s2.53,1.17,3.81,1.75a11.62,11.62,0,0,0,5.71.67,21.65,21.65,0,0,0,10.09-2.9,11.2,11.2,0,0,0,5.45-8.61c.22-5.07-3.85-9.28-8.08-12.08-1.8-1.19-3.74-2.31-5-4.09s-1.42-4.49.2-5.91a20.53,20.53,0,0,1-11.37-4.78c4.56-3.56,11.08-.44,16.86-.19,1.55.07,3.37-.25,4.1-1.62a9.4,9.4,0,0,0,.54-2.44c.39-1.86,1.79-3.31,3.13-4.66,2.49-2.5,5.13-5.1,8.51-6.11a7.8,7.8,0,0,0,2.28-.84,5.8,5.8,0,0,0,1.88-3.31c1.25-4.13,2.51-8.34,2.56-12.66s-1.16-9,.44-13.14a3.79,3.79,0,0,0,.41-1.69,3.16,3.16,0,0,0-1.41-1.88l-8.92-7a5.31,5.31,0,0,1-3.71,4.7,11.65,11.65,0,0,1-6.31.06,4,4,0,0,0-2.25-.06c-1.27.49-1.6,2.17-1.38,3.52s.79,2.69.57,4-1.06,2.29-1.54,3.46-.39,2.81.75,3.36c.43.2,1,.23,1.28.55.7.68,0,1.84-.79,2.44-3.66,2.85-9.28,4.19-10.37,8.69a5.3,5.3,0,0,1-2.54-3.16l-3.56,6.83a10.93,10.93,0,0,0-10,.93c.34-4.06,3.51-7.22,6.22-10.27a63.76,63.76,0,0,0,15.49-34.93,4.4,4.4,0,0,0-.06-1.81,5.14,5.14,0,0,0-1.43-1.86,18.63,18.63,0,0,1-5.44-13.69c-1.33-.92-3.19-.36-4.55.53s-2.59,2.08-4.16,2.47c-3.79,1-8.25-3-11.34-.59-2.17,1.69-1.8,5.48-4.1,7-1.2.8-3,.8-3.79,2-.68,1-.43,2.28-.47,3.46-.12,4.29-4.14,7.26-6.53,10.82-3.85,5.75-3.45,13.24-2.9,20.13a4.24,4.24,0,0,0,.53,2.06c.58.84,1.65,1.14,2.46,1.74,3.48,2.61,1.43,9.93,5.61,11.11-2.56-.32-3.31-3.65-5.12-5.5-3.83-3.91-12.25-.89-14.76-5.76,1.09,2.7-2.53,5.07-5.44,4.85s-5.8-1.65-8.61-.89c-2,.54-3.52,2.08-5.3,3.1-7.09,4.06-15.95-.68-24.09,0-2.9.25-6.32,2-6.17,4.89.14,2.59,3.1,4.28,3.48,6.84.17,1.12-.19,2.26-.06,3.39.26,2.38,2.52,4,4.71,5a24,24,0,0,0,17.75.54" transform="translate(-342.65 -304.93)"/><path class="cls-22" d="M1006.79,818.28c.64-.49,1.76-.15,2.54-.38a4.65,4.65,0,0,0,1.91-1.16c1.43-1.4,1.82-3.4,2.12-5.29l-1.47.6,4.5,2c1.12.5,2.38,1.16,3.65.87s1.65-1.25,2.19-2.26c.66-1.24,3-.38,4.15-.25a64.75,64.75,0,0,0,9.75.38c3.18-.11,6.57-.54,9.59.75v-1.73c-1.88.89-4.34,1.62-5.83,3.13-1.21,1.22-1.54,2.91-2,4.5a14,14,0,0,1-3.05,5.73c-1.28,1.41-2.85,2.51-4.09,4a23.16,23.16,0,0,0-1.52,2.28,2,2,0,0,1-2,.86c-1.46,0-2.94-.42-4.35.12a4.84,4.84,0,0,0-1.78,1.43c-.86.86-1.71.66-2.82.39-2.31-.56-4.61-1.18-6.91-1.77a1,1,0,0,0-1.23,1.23c1,4.13,4.51,6.75,8,8.79,4.71,2.76,9.53,5.37,14.31,8a4,4,0,0,0,2.81.71,5.92,5.92,0,0,0,2.64-1.81c1.76-1.72,3.24-3.71,5-5.4a10.48,10.48,0,0,1,6.34-3.25,3.75,3.75,0,0,0,2.43-.61c.81-.71.64-1.66.48-2.6-.5-2.82,2.1-4.47,4-6.1s3.36-3.44,3.16-5.88c-.1-1.27-2-1.31-2,0a99.14,99.14,0,0,0,.92,11.28c.26,1.89.55,3.78.84,5.66a34.69,34.69,0,0,0,1,5.36,7.78,7.78,0,0,0,2.25,3.67c1.2,1,3,1.25,3.53,2.87a25.85,25.85,0,0,0,1,3.67,3.55,3.55,0,0,0,3.17,1.94c.91,0,1.81-.23,2.71-.2a5.7,5.7,0,0,1,2.53,1,10.85,10.85,0,0,0,4.7,1.48,24.56,24.56,0,0,0,10.82-1.8c6-2.51,10.29-8.87,7.54-15.33-1.4-3.32-4.15-5.91-7.06-7.94-1.67-1.17-3.56-2.13-4.89-3.72-1.18-1.41-1.75-3.71-.3-5.14a1,1,0,0,0-.7-1.7,19.72,19.72,0,0,1-10.66-4.49l-.21,1.57c4.71-3.48,11.14-.23,16.36-.05,2.38.09,4.86-.74,5.37-3.34a8,8,0,0,1,1.7-4.17,38.52,38.52,0,0,1,3.16-3.23,23.92,23.92,0,0,1,3.28-2.67,17.62,17.62,0,0,1,4.22-1.79c2.88-1,3.46-3.73,4.23-6.36a45.36,45.36,0,0,0,2-9.64c.22-3.24-.37-6.44-.33-9.67a17.18,17.18,0,0,1,1-5.27,3.16,3.16,0,0,0-1.09-3.58c-3-2.61-6.23-4.92-9.32-7.36a1,1,0,0,0-1.71.71,4.4,4.4,0,0,1-3.2,3.81c-2.11.7-4.2.18-6.31-.16-3.67-.58-4.58,2.81-3.92,5.74a6.05,6.05,0,0,1,.25,3.15,21.45,21.45,0,0,1-1.23,2.5,4.3,4.3,0,0,0,0,3.95,2.82,2.82,0,0,0,1.43,1.12c.52.2.73.18.43.71a3.42,3.42,0,0,1-1,.86,40.6,40.6,0,0,1-3.81,2.26c-2.74,1.54-5.51,3.34-6.37,6.55l1.47-.59a4.55,4.55,0,0,1-2.09-2.57,1,1,0,0,0-1.83-.24l-3.56,6.84,1.13-.46a12,12,0,0,0-10.8,1l1.5.86c.49-4.62,4.64-7.94,7.41-11.31a64.23,64.23,0,0,0,7.57-11.53,65.31,65.31,0,0,0,5-12.88,64.52,64.52,0,0,0,1.41-6.74c.32-2.13.94-4.47-.59-6.26-.86-1-1.84-1.85-2.61-2.93a17.48,17.48,0,0,1-3.37-10.91,1,1,0,0,0-.49-.86,4.75,4.75,0,0,0-4.44-.07c-1.68.73-2.93,2.25-4.66,2.85-2.91,1-6-1.26-8.92-1.3-3.12-.05-4.53,2.31-5.45,4.93-.48,1.37-.94,2.72-2.36,3.33s-2.77.8-3.58,2.15-.29,3.3-.65,4.92a11.09,11.09,0,0,1-2.32,4.29c-2.09,2.64-4.34,5-5.63,8.15a28.05,28.05,0,0,0-1.69,10.59c0,1.86.12,3.72.26,5.58.1,1.44.06,3.13,1.13,4.25s2.66,1.41,3.42,2.92a14.83,14.83,0,0,1,1,3.93c.48,2.48,1.14,5.14,3.82,6l.54-1.93c-2.09-.36-2.87-2.94-4-4.44a8.13,8.13,0,0,0-4.75-2.93c-3.23-.8-8.65,0-10.52-3.42-.54-1-2.21-.32-1.83.77.46,1.32-.43,2.3-1.54,2.92a6.68,6.68,0,0,1-4.84.36c-3.37-.7-6.35-1.36-9.45.6a38.15,38.15,0,0,1-3.76,2.42,12.69,12.69,0,0,1-5.08,1.15c-3.44.11-6.83-.66-10.21-1.17-3-.46-6.19-.93-9.17-.24-2.41.55-5.1,2.1-5.53,4.75s1.88,4.49,3,6.73c.77,1.51.14,3.06.36,4.65a6.11,6.11,0,0,0,2.16,3.7c2.63,2.28,6.38,3.32,9.76,3.77a25.1,25.1,0,0,0,11.78-1.25c1.2-.43.68-2.37-.53-1.93a23.54,23.54,0,0,1-10.39,1.28c-3.11-.32-6.77-1.21-9.21-3.28a4.22,4.22,0,0,1-1.59-3.82,7.14,7.14,0,0,0-.69-4.27c-1.12-2-4.14-4.36-1.94-6.71,2-2.11,5.37-2.05,8-1.86,3.23.24,6.4,1,9.6,1.37a20.27,20.27,0,0,0,9-.46,14.57,14.57,0,0,0,3.68-1.89,11.25,11.25,0,0,1,4.19-2.26c3.52-.64,6.89,1.83,10.42.7,2.44-.78,4.87-3,3.9-5.79l-1.83.77c2.15,3.89,7.11,3.44,10.87,4.15a7,7,0,0,1,5.18,3.33c1.11,1.77,2.18,3.84,4.43,4.23a1,1,0,0,0,.54-1.93c-2.05-.65-2.21-3.5-2.56-5.27-.39-2-.92-4.23-2.61-5.57-.52-.41-1.12-.67-1.67-1a2.36,2.36,0,0,1-1-2.07c-.16-1.64-.25-3.29-.31-4.94a31.47,31.47,0,0,1,1-10.23c.94-3.14,2.81-5.5,4.89-8,1.74-2.07,3.49-4.33,3.81-7.11.19-1.62-.47-3.49,1.39-4.26,1.3-.55,2.55-.82,3.49-2,1.47-1.8,1.38-5.25,3.57-6.37,1.36-.71,3.06-.11,4.43.29a18.21,18.21,0,0,0,4.26.93,7.39,7.39,0,0,0,4.61-1.57c1.42-1,3.37-2.8,5.21-1.71l-.5-.87a19.72,19.72,0,0,0,3.88,12.24,20.78,20.78,0,0,0,2,2.3,2.8,2.8,0,0,1,1.12,1.9,10.65,10.65,0,0,1-.19,2,60.94,60.94,0,0,1-1.31,6.83,62.83,62.83,0,0,1-12.67,25c-3.11,3.71-7,7.14-7.6,12.24a1,1,0,0,0,1.51.87,10.1,10.1,0,0,1,9.26-.83,1,1,0,0,0,1.13-.46l3.56-6.84-1.83-.24a6.62,6.62,0,0,0,3,3.76,1,1,0,0,0,1.46-.6c.8-2.94,3.71-4.38,6.18-5.75,1.75-1,6.39-3.05,5.12-5.78a2.38,2.38,0,0,0-1.44-1.14c-1-.39-1.12-1.09-.83-2.06.51-1.76,1.8-3,1.72-4.93-.07-1.6-1.35-3.8-.35-5.29.57-.86,1.72-.41,2.55-.25a17.78,17.78,0,0,0,3,.34c3.71.06,7.69-2.07,7.84-6.16l-1.71.71,7.76,6.1a20,20,0,0,1,1.7,1.37c.73.7.52,1.26.2,2.14a14.93,14.93,0,0,0-.82,4.09c-.21,3,.35,6.06.35,9.1a35.79,35.79,0,0,1-1.64,9.62c-.37,1.33-.72,2.71-1.21,4a3.68,3.68,0,0,1-1,1.62,6.73,6.73,0,0,1-2.31.87,17.94,17.94,0,0,0-6.55,4.16c-1.87,1.72-4.11,3.62-5.17,6-.5,1.13-.3,2.85-1.09,3.79s-2.62.85-3.79.76c-5.4-.45-11.68-3.26-16.59.37a1,1,0,0,0-.2,1.57,22.1,22.1,0,0,0,12.08,5.07l-.71-1.71c-2,2-1.73,5.26-.11,7.45,1.88,2.54,5,3.82,7.36,5.81s4.55,4.48,5.16,7.57a9.33,9.33,0,0,1-3.49,8.73c-2.66,2.28-6.23,3.24-9.64,3.62a16.47,16.47,0,0,1-5.15,0c-1.59-.34-2.8-1.39-4.29-2a5.59,5.59,0,0,0-2.18-.36,12.24,12.24,0,0,1-2.62.17c-1.46-.29-1.46-2.25-1.73-3.4a5.18,5.18,0,0,0-1.47-2.82c-1.27-1.12-2.9-1.35-3.83-2.89a14,14,0,0,1-1.4-5c-.29-2-.6-3.89-.88-5.83a101.87,101.87,0,0,1-1.09-12.45h-2c.17,2.1-1.52,3.6-3,4.83a12.4,12.4,0,0,0-3.77,4.22,5,5,0,0,0-.47,2.46c0,.39.23.81.23,1.19,0,.67-.68.46-1.22.5a10.89,10.89,0,0,0-5.21,1.91,25.18,25.18,0,0,0-4.59,4.28c-.72.81-1.44,1.63-2.19,2.42s-1.82,2.25-3.07,1.71c-2.18-.95-4.26-2.38-6.33-3.54l-6.42-3.59c-3.67-2-8.15-4.35-9.19-8.79l-1.24,1.23c2.43.62,4.85,1.32,7.29,1.86,1.91.42,3.29.2,4.62-1.28s2.89-.71,4.49-.68a3.88,3.88,0,0,0,3.77-2,19.32,19.32,0,0,1,4.08-4.53,16.4,16.4,0,0,0,3.6-4.79c.86-1.78,1-3.8,1.87-5.57a4.83,4.83,0,0,1,2.61-2.17c1.16-.56,2.33-1.1,3.49-1.64a1,1,0,0,0,0-1.73,19.25,19.25,0,0,0-8.62-1.1,76.78,76.78,0,0,1-9.83-.11c-1.54-.13-3.07-.39-4.6-.55a2.9,2.9,0,0,0-2.86,1.08c-.33.45-.44,1.16-.83,1.55-.64.65-1.71,0-2.37-.26-1.58-.69-3.15-1.41-4.72-2.11-.52-.23-1.36-.1-1.47.6-.25,1.62-.49,3.65-1.94,4.69-1.14.82-2.59.09-3.71.94s0,2.51,1,1.73Z" transform="translate(-342.65 -304.93)"/><path class="cls-21" d="M1013.36,929.49l-.72-4.21a1,1,0,0,1,.67-1.33,27.06,27.06,0,0,1,7.17-2.41,7.08,7.08,0,0,0,2-.55,4.26,4.26,0,0,0,2-3.74,12.56,12.56,0,0,0-1-4.33l-2.26-6.36a9.68,9.68,0,0,1-.82-4.83,12.69,12.69,0,0,0,.53-2.62c-.06-1.6-1.45-2.77-2.73-3.74l-9.56-7.22a19.13,19.13,0,0,1-11.82,8.65l11.38-19.61c1-1.75,2-4.12.62-5.62-.41-.45-1-.74-1.36-1.22a4,4,0,0,1-.66-2.07l-1.35-10.53a13.69,13.69,0,0,1-.08-4.33c.34-1.68,1.31-3.46.57-5-.85-1.76-3.35-2-4.57-3.51a10.33,10.33,0,0,1-1.15-2.36c-1.66-3.64-5.75-5.37-9.36-7.11s-7.48-4.43-7.75-8.43a61.49,61.49,0,0,1-9.82,8.33l-2.91,14.76c-.18.92-.25,2.1.57,2.55a3.45,3.45,0,0,0,1.33.23c2.7.29,3.85,3.52,4.39,6.19l2.58-1.53a19.24,19.24,0,0,1,.58,13.39,11.85,11.85,0,0,0-.82,3.25,9,9,0,0,0,.49,2.61l1.79,6.11c-2.25.44-3.13,3.27-2.84,5.54s1.29,4.49,1,6.76l-7.33-18a18.59,18.59,0,0,1-1.33-4.17c-.23-1.45-.11-2.94-.33-4.4A18.49,18.49,0,0,0,969,864.3L963.76,852c-.84-1.94-2.08-4.19-4.19-4.31s-3.69,2-5.76,2.3c-1.46.23-2.89-.44-4.27-1-.89-.33-2-.54-2.66.17a2.57,2.57,0,0,0-.48,1.3l-3,18.21c-.38,2.27-.75,4.68.1,6.83s2.82,3.72,3.75,5.85c1.47,3.4,0,7.63,1.87,10.85,1.62,2.87,5.31,4,7.08,6.79.67,1.06,1.11,2.4,2.23,3a5.1,5.1,0,0,0,2.61.25A24.06,24.06,0,0,1,971.76,904c-4.12-1.07-9.29-1.21-11.78,2.24a14.13,14.13,0,0,0-1.84,5.24,84.11,84.11,0,0,1-2.78,8.9l-6.26,17.76a20.37,20.37,0,0,1-2.76,5.8c-.85,1.11-2,2.08-2.39,3.41-.53,1.62.06,3.37.64,5,1.06,2.94,2.23,6,4.61,8s6.37,2.53,8.48.22a9.33,9.33,0,0,0,1.8-4.16l1.85-7.58c.56-2.27,1-4.93-.46-6.72a18.75,18.75,0,0,1-1.74-1.83c-.45-.71-.41-1.86.37-2.18.48-.2,1,0,1.55,0,1.51-.08,2.16-2,2.17-3.47s-.18-3.24.9-4.29a10.16,10.16,0,0,1,1.91-1.14,9.16,9.16,0,0,0,3.06-3.87l6.34-12c-.6,6.83,2.38,13.41,3.46,20.17.92,5.8.43,11.71-.06,17.55a8.2,8.2,0,0,1-.51,2.65,8.44,8.44,0,0,1-1.56,2.21L972.27,961c7.22-1.66,14.51-3.34,21.16-6.61,2.26-1.12,4.65-2.68,5.18-5.15.78-3.66-2.94-7.21-2-10.84.45-1.83,2-3.53,1.48-5.32a8.08,8.08,0,0,0-1.86-2.45,11.81,11.81,0,0,1-2-4.69l-3.92-15.1,10.3,11.09a15.35,15.35,0,0,0,4.65,3.82c2.55,1.14,5.91,1,7.56,3.26" transform="translate(-342.65 -304.93)"/><path class="cls-22" d="M1014.33,929.23l-.48-2.81a5.46,5.46,0,0,1-.29-1.47c.13-.26,1.22-.6,1.46-.7a25.94,25.94,0,0,1,5.5-1.7c1.51-.3,2.88-.63,3.85-1.91a6.07,6.07,0,0,0,1.07-4.28,22.87,22.87,0,0,0-1.53-5.29c-.69-2-1.43-3.88-2.06-5.85a7.59,7.59,0,0,1-.49-2.82c.07-1,.52-1.87.58-2.85a5,5,0,0,0-1.83-3.93c-1.52-1.41-3.31-2.57-5-3.82l-6-4.51a1,1,0,0,0-1.37.36,18.59,18.59,0,0,1-11.22,8.19l1.13,1.47,10.38-17.91c1.19-2,3-4.57,2.28-7.07-.36-1.28-1.35-1.62-2.08-2.6a3.91,3.91,0,0,1-.53-1.93c-.12-1-.25-1.91-.37-2.87l-.61-4.79a34.73,34.73,0,0,1-.53-5.28c.07-2.56,2-5.34.09-7.66a7.61,7.61,0,0,0-2.44-1.72,4.56,4.56,0,0,1-2.41-2.51,11.92,11.92,0,0,0-4.54-5.46c-4.18-2.81-12.24-4.44-12.82-10.51a1,1,0,0,0-1.71-.71,61.2,61.2,0,0,1-8.88,7.67c-.71.5-1.08.72-1.29,1.58-.26,1.1-.43,2.23-.65,3.34l-1.18,6c-.36,1.84-.84,3.71-1.08,5.58-.15,1.25.08,2.65,1.36,3.2a18.13,18.13,0,0,0,1.93.34,3.15,3.15,0,0,1,1.65,1.36,11.43,11.43,0,0,1,1.45,4,1,1,0,0,0,1.47.6l2.57-1.53-1.47-.6a18.51,18.51,0,0,1,.65,12.66c-.63,2-1.15,3.63-.64,5.74.58,2.34,1.36,4.65,2,7l.7-1.23c-2.13.53-3.26,2.51-3.54,4.58-.4,3,1.24,5.72,1,8.68l2-.27-6.3-15.42c-1-2.34-2.21-4.76-2.43-7.32-.1-1.17-.07-2.35-.23-3.52a16.06,16.06,0,0,0-1.13-3.77c-1-2.43-2.07-4.82-3.1-7.23s-1.93-4.78-3.06-7.08c-.78-1.57-1.94-3.24-3.73-3.73s-3.5.53-5.06,1.43a4.11,4.11,0,0,1-3.28.62c-1.12-.27-2.14-.86-3.27-1.07-2.18-.4-3.17.95-3.51,2.92Q944,858.87,942.63,867c-.39,2.35-.94,4.79-.57,7.18.34,2.23,1.66,3.85,3,5.61a10.31,10.31,0,0,1,2,6.32c.07,2.14.08,4.35,1,6.32s2.67,3.12,4.31,4.34a13.68,13.68,0,0,1,2.5,2.18c.69.82,1.06,1.85,1.69,2.71,1.58,2.15,4,1.53,6.3,1.56a23.86,23.86,0,0,1,8.67,1.78l.54-1.93c-3.59-.89-8-1.31-11.19,1a8.86,8.86,0,0,0-3.21,5.25c-.64,2.47-1.2,4.92-2,7.34-1.8,5.41-3.77,10.77-5.67,16.14-1,2.7-1.77,5.52-3,8.12a13.09,13.09,0,0,1-1.84,3,12.25,12.25,0,0,0-1.92,2.66c-1,2.26-.14,4.67.66,6.84a23.21,23.21,0,0,0,2.87,5.85c2.25,3,6.46,5.15,10.14,3.26,1.87-1,2.77-2.86,3.3-4.81.73-2.65,1.33-5.36,2-8,.5-2,1.05-4.27.41-6.32a5.71,5.71,0,0,0-1.51-2.37,4.94,4.94,0,0,1-1.09-1.1c-.45-.9.44-.67,1.06-.71,2.13-.1,3-2.32,3.16-4.16.07-1.1-.21-2.35.28-3.38s2-1.36,2.87-2.09c2.08-1.76,3.17-4.71,4.41-7.06l4.53-8.56-1.87-.51c-.63,8.16,3.32,15.76,3.86,23.81a84.06,84.06,0,0,1-.36,12.69,13,13,0,0,1-.42,3.18,7.1,7.1,0,0,1-1.62,2.37l-4.33,4.92a1,1,0,0,0,1,1.67,137.35,137.35,0,0,0,15.19-4.12,49.86,49.86,0,0,0,6.85-2.93,10.3,10.3,0,0,0,4.4-3.86,6.94,6.94,0,0,0,.29-5.49c-.6-1.9-1.77-3.77-1.84-5.81-.08-2.21,1.89-3.91,1.72-6.15s-2.45-3.47-3.23-5.47a72.64,72.64,0,0,1-2.27-8.36l-2.39-9.21-1.68,1c3.84,4.14,7.57,8.43,11.57,12.41a12.25,12.25,0,0,0,5.43,3.32c1.95.55,4.17.76,5.51,2.45.8,1,2.21-.42,1.42-1.41-1.22-1.53-3.06-2.12-4.89-2.58a12,12,0,0,1-6.06-3.19c-4-4-7.72-8.28-11.56-12.41a1,1,0,0,0-1.67,1q1.95,7.56,3.92,15.11a12.46,12.46,0,0,0,2.49,5.42c.69.77,1.56,1.46,1.4,2.6a13.93,13.93,0,0,1-1.23,3,7.53,7.53,0,0,0,.09,5.33c.6,1.73,1.6,3.46,1.71,5.31.12,2.19-1.44,3.71-3.18,4.78a37.29,37.29,0,0,1-6.46,2.95A129.12,129.12,0,0,1,972,960.08l1,1.67c1.49-1.7,3-3.39,4.49-5.09a8.15,8.15,0,0,0,2.27-4.67,85.11,85.11,0,0,0,.63-13.35,58.57,58.57,0,0,0-2.14-12.53c-1.09-4.18-2.13-8.38-1.8-12.74a1,1,0,0,0-1.86-.5c-2.35,4.43-4.5,9-7.09,13.34a6.08,6.08,0,0,1-2.11,2.25,6.68,6.68,0,0,0-2.26,1.56c-1.18,1.52-.71,3.37-.92,5.13-.08.7-.33,1.77-1.11,2-1,.25-1.77-.29-2.61.55-1.14,1.14-.57,2.9.4,3.93.73.78,1.54,1.31,1.84,2.4a7.23,7.23,0,0,1,0,3.14c-.43,2.4-1.13,4.78-1.71,7.15-.48,2-.74,4.63-2.39,6-1.48,1.21-3.68,1-5.32.26a9.31,9.31,0,0,1-4.09-4.51,26,26,0,0,1-2.28-6,4.16,4.16,0,0,1,.61-3.48c.6-.85,1.35-1.57,2-2.42a25.11,25.11,0,0,0,2.77-6.16l5.19-14.72c.92-2.62,1.88-5.22,2.7-7.88.76-2.45,1-5.25,2.12-7.57,2-4.19,7.48-3.75,11.25-2.81a1,1,0,0,0,.54-1.93,26.25,26.25,0,0,0-6.46-1.67,24.64,24.64,0,0,0-3.43-.18c-1,0-2.45.38-3.37-.15a5,5,0,0,1-1.5-2.07,9.23,9.23,0,0,0-1.6-2.08c-1.24-1.2-2.73-2.07-4-3.2a7,7,0,0,1-2.54-5,51,51,0,0,0-.47-6.06,12.8,12.8,0,0,0-2.71-5,8.39,8.39,0,0,1-2-5.92,67.09,67.09,0,0,1,1.1-7.19l1.23-7.39.62-3.69.29-1.72a5,5,0,0,1,.32-1.68c.53-.84,2.15.09,2.8.33a7.83,7.83,0,0,0,3.27.61c1.83-.15,3.1-1.41,4.72-2.07,2-.83,3.26.86,4.08,2.48,2.19,4.3,3.88,8.93,5.78,13.37a19,19,0,0,1,1.27,3.67c.28,1.36.17,2.77.32,4.14a26.33,26.33,0,0,0,2.27,7l6.49,15.89a1,1,0,0,0,2-.27c.22-2.46-.83-4.67-1-7.07-.14-1.64.32-3.81,2.13-4.26a1,1,0,0,0,.7-1.23c-.67-2.32-1.47-4.63-2-7s.61-4.15,1.08-6.32a20.36,20.36,0,0,0-1.09-12.07,1,1,0,0,0-1.47-.6l-2.57,1.53,1.47.6a12.31,12.31,0,0,0-2-5,5,5,0,0,0-1.84-1.52c-.62-.3-2.28-.25-2.51-.85a3.29,3.29,0,0,1,.16-1.55c.12-.63.25-1.27.37-1.9l.8-4.05,1.65-8.33-.46.6a65.52,65.52,0,0,0,10-8.49l-1.71-.71c.48,5.06,5.08,7.79,9.24,9.77a22.36,22.36,0,0,1,6.32,3.89c1.78,1.76,2,4.48,4.11,5.92.78.53,1.68.85,2.45,1.4,1.45,1,.9,2.54.48,4-.86,3-.22,6.06.17,9.12l.61,4.79a15.87,15.87,0,0,0,.75,4.34c.47,1,1.65,1.43,2.1,2.41.59,1.27-.4,3-1,4-3.72,6.58-7.59,13.08-11.38,19.62a1,1,0,0,0,1.13,1.47,20.62,20.62,0,0,0,12.41-9.11l-1.36.36,6.37,4.81c1.06.8,2.14,1.59,3.19,2.41a6.51,6.51,0,0,1,2,2c.58,1.16-.1,2.31-.27,3.48a8.36,8.36,0,0,0,.29,3.37c.62,2.28,1.55,4.5,2.34,6.73.71,2,1.91,4.37,1.26,6.52-.74,2.44-3.67,2.25-5.71,2.85a27.12,27.12,0,0,0-3,1,7.81,7.81,0,0,0-2.53,1.31,2.6,2.6,0,0,0-.37,2.46c.2,1.25.42,2.5.64,3.75s2.14.73,1.93-.53Z" transform="translate(-342.65 -304.93)"/><path class="cls-23" d="M1049,817.87c.17-.66-.83-1-1.47-.78s-1.25.73-1.92.59a3.09,3.09,0,0,0-.65-.16c-.43,0-.74.39-1,.69s-.86.52-1.14.19l-2.24,5.26c-.61,1.43-1.17,3.25-.12,4.4a1.09,1.09,0,0,0,.47.33c.63.19,1.16-.46,1.48-1l.09,2.39c0,.41.21,1,.61.88a.72.72,0,0,0,.38-.37l.94-1.56c.62,2.13-1.31,4.41-.64,6.52a13,13,0,0,0,2.2-3.45l-.26,3.23a2.51,2.51,0,0,0,1.14-1.2.63.63,0,0,0,.9.3,1.87,1.87,0,0,0,.7-.82,25.55,25.55,0,0,1,3.66-4.87c1.67-1.73,3.67-3.35,4.3-5.67.09-.31.09-.74-.21-.85s-.51.11-.7.31l-1.38,1.43-.26-2.83-1.07.61,0-2.08a5.53,5.53,0,0,0-1.5.88l-.26-2.34C1050.47,817.93,1049.51,817.81,1049,817.87Z" transform="translate(-342.65 -304.93)"/><path class="cls-23" d="M1049.48,818c.21-1.43-1.46-1.7-2.46-1.25a2.81,2.81,0,0,1-1.23.44c-.35,0-.62-.21-1-.16a1.45,1.45,0,0,0-.77.36c-.14.12-.71.81-.91.65a.51.51,0,0,0-.79.1l-1.8,4.22a13,13,0,0,0-1.17,3.5,2.93,2.93,0,0,0,.94,2.76c1,.75,2-.15,2.5-1l-.94-.25c0,.8,0,1.6.09,2.39a1.57,1.57,0,0,0,.53,1.22c1.1.8,1.93-1.35,2.33-2l-.91-.11a6.48,6.48,0,0,1-.45,3.36,5.74,5.74,0,0,0-.19,3.15.5.5,0,0,0,.83.23,15,15,0,0,0,2.29-3.55l-.94-.26-.26,3.23a.5.5,0,0,0,.75.44,3.17,3.17,0,0,0,1.32-1.39l-.91-.12a1.15,1.15,0,0,0,1.63.6c.79-.42,1.22-1.59,1.69-2.3a31.17,31.17,0,0,1,4.1-4.79c1.26-1.27,2.68-2.76,3.11-4.56.14-.64,0-1.53-.85-1.52a1.48,1.48,0,0,0-.91.48c-.48.45-.92,1-1.38,1.43l.86.36-.26-2.83a.51.51,0,0,0-.75-.43l-1.07.61.75.43,0-2.08c0-.29-.32-.61-.63-.48a6.76,6.76,0,0,0-1.72,1l.85.35-.26-2.34a.5.5,0,0,0-.5-.5c-.66.06-1.32,0-2,0s-.65,1.06,0,1,1.32.06,2,0l-.5-.5.26,2.34a.52.52,0,0,0,.86.36,5,5,0,0,1,1.28-.76l-.64-.48,0,2.08a.5.5,0,0,0,.75.43l1.07-.61-.75-.43.26,2.83a.5.5,0,0,0,.85.35l.86-.89c.08-.08.77-.7.63-.78.25.14-.6,1.66-.71,1.84a16.91,16.91,0,0,1-2.66,3.07,31.07,31.07,0,0,0-2.76,3.09,22.4,22.4,0,0,0-1.3,1.88c-.19.3-.37.61-.56.92,0,0-.54.8-.64.55s-.7-.54-.91-.12a2.18,2.18,0,0,1-1,1l.75.43.26-3.23a.5.5,0,0,0-.93-.25,13.22,13.22,0,0,1-2.13,3.35l.84.22a6.18,6.18,0,0,1,.41-3.36,6,6,0,0,0,.23-3.16.5.5,0,0,0-.91-.12l-.59,1a4.05,4.05,0,0,1-.35.58s0-.06,0-.17a20.32,20.32,0,0,1-.1-2.47.5.5,0,0,0-.93-.25c-.22.36-.58,1-1.07.68a1.55,1.55,0,0,1-.53-1.12,5.24,5.24,0,0,1,.44-2.28c.72-1.94,1.62-3.83,2.43-5.74l-.79.1a1.17,1.17,0,0,0,1.4.13,2.68,2.68,0,0,0,.63-.49.72.72,0,0,1,.87-.27,2.32,2.32,0,0,0,1.61-.21,3.59,3.59,0,0,1,.95-.39c.11,0,.67,0,.64.22C1048.42,818.37,1049.38,818.64,1049.48,818Z" transform="translate(-342.65 -304.93)"/><path class="cls-23" d="M1040.16,809.29a17,17,0,0,0-8.77-1.95c-3,0-6.06.39-9.1.3-2.25-.07-4.71-.51-6.2-2.21.59-1.2,2.07-1.67,3.41-1.78a11.14,11.14,0,0,0,4-.61c-1.2-1.47-4.16-.74-4.89-2.48a10.47,10.47,0,0,1,4.56-.07c1.45.31,2.82.93,4.28,1.2a4.89,4.89,0,0,0,4.21-.87l-7.95-2.86c3.39-1.32,7.22-.15,10.84-.59,1.76-.21,3.47-.82,5.25-.86s3.75.64,4.5,2.25a1.29,1.29,0,0,1,0,1.39,1.47,1.47,0,0,1-1.14.32c-1.2-.06-2.65-.32-3.38.63a11,11,0,0,1,5.35,5c.29.57.51,1.34,0,1.79s-1,.3-1.54.3A4.84,4.84,0,0,0,1040.16,809.29Z" transform="translate(-342.65 -304.93)"/><path class="cls-23" d="M1040.42,808.85c-3.71-2.14-8.08-2.13-12.23-1.91a52.74,52.74,0,0,1-6.65.16,7.37,7.37,0,0,1-5.1-2l.08.61a3.71,3.71,0,0,1,3.19-1.56,11.28,11.28,0,0,0,4-.66.5.5,0,0,0,.1-.78,4.35,4.35,0,0,0-2.49-1.19c-.85-.19-1.91-.31-2.32-1.2l-.3.74a10.11,10.11,0,0,1,3.95-.13,35.91,35.91,0,0,1,3.55,1c2,.55,4.15.67,5.77-.74a.5.5,0,0,0-.22-.83l-8-2.87v1c3.59-1.34,7.48-.09,11.18-.63,1.87-.28,3.74-1,5.65-.77a5,5,0,0,1,2.11.73c.51.33,1.33,1.11,1.2,1.8s-2,.3-2.56.33a2.68,2.68,0,0,0-2,.85.5.5,0,0,0,.1.78,10.52,10.52,0,0,1,5.12,4.71c.3.58.54,1.37-.36,1.42-.53,0-1,0-1.57.06a4.72,4.72,0,0,0-2.82,1.21.5.5,0,0,0,.71.71c1-1,2.45-.89,3.77-1s1.82-1.27,1.35-2.46a10.81,10.81,0,0,0-5.7-5.53l.1.78c1.18-1.37,3.49.37,4.6-1.05s-.68-3.17-1.84-3.75a8.24,8.24,0,0,0-5.35-.35,32.57,32.57,0,0,1-3.39.62,27.07,27.07,0,0,1-3.37,0c-2.4-.12-4.85-.3-7.15.55a.51.51,0,0,0,0,1l8,2.86-.22-.83c-1.72,1.49-4.18.69-6.08.08a12.62,12.62,0,0,0-6.75-.48.51.51,0,0,0-.3.74c.93,2,3.67,1.1,5,2.58l.11-.78c-2.41,1.09-6-.27-7.55,2.57a.51.51,0,0,0,.08.61c2.72,3,7.6,2.43,11.22,2.22,4.36-.24,9-.56,13,1.71A.5.5,0,0,0,1040.42,808.85Z" transform="translate(-342.65 -304.93)"/><path class="cls-23" d="M1063.29,828.67c.23,2.87.39,5.1.63,8a18.49,18.49,0,0,0,.5,3.47,16.77,16.77,0,0,0,2.91,5.34c.62.84,1.72,1.75,2.57,1.15a2,2,0,0,0,.65-1.43,20.12,20.12,0,0,0-.06-5.9c.72.26.89,1.62,1.62,1.42.41-.11.49-.64.5-1.06l.12-4.82a16.2,16.2,0,0,0,6.26,4.63c.94.39,2.19.61,2.81-.19s.07-2-.56-2.83c-2-2.6-4.5-4.73-6.37-7.4a41.85,41.85,0,0,0-2.41-3.46,9.78,9.78,0,0,0-4.8-3,2.38,2.38,0,0,0-1.89.11c-.79.53-.78,1.66-.86,2.6s-.66,2.1-1.59,2Z" transform="translate(-342.65 -304.93)"/><path class="cls-23" d="M1062.79,828.67c.17,2.1.33,4.21.5,6.31a21.92,21.92,0,0,0,1,6.19,16.58,16.58,0,0,0,3,5,3,3,0,0,0,2,1.14,1.68,1.68,0,0,0,1.61-1.19,10.1,10.1,0,0,0,.39-3.29,20.54,20.54,0,0,0-.26-3.67l-.73.56c.54.25.66,1,1.14,1.3a1,1,0,0,0,1.45-.27,4.86,4.86,0,0,0,.32-2.54l.08-3.38-.85.35a17.09,17.09,0,0,0,3.28,3,12.35,12.35,0,0,0,3.86,2c1.09.29,2.49.16,2.94-1.06s-.5-2.58-1.26-3.53c-2-2.51-4.49-4.63-6.28-7.33a19.19,19.19,0,0,0-2.8-3.72,10.3,10.3,0,0,0-3.57-2.16c-1.35-.47-3.11-.72-3.79.86a6.32,6.32,0,0,0-.34,1.93c-.06.62-.29,1.69-1.1,1.62a.5.5,0,0,0-.5.5l0,1.42a.5.5,0,0,0,1,0l0-1.42-.5.5c1,.09,1.67-.79,2-1.67s-.1-2.76,1.06-3.09a3.42,3.42,0,0,1,1.86.28,9.14,9.14,0,0,1,1.84.88,9.73,9.73,0,0,1,2.87,2.81c.78,1.12,1.48,2.3,2.33,3.37s1.84,2.14,2.81,3.17a38.09,38.09,0,0,1,2.77,3.17,3.27,3.27,0,0,1,.77,1.61c0,.75-.57,1.05-1.24,1a8.94,8.94,0,0,1-3.83-1.73,16.3,16.3,0,0,1-3.43-3.1c-.29-.35-.84-.05-.85.36,0,1.57-.06,3.13-.11,4.7,0,.11,0,.71-.15.69s-.3-.39-.35-.47a2.22,2.22,0,0,0-.88-.89.5.5,0,0,0-.73.56,20.28,20.28,0,0,1,.22,3.65c0,.55-.06,1.11-.13,1.65s-.06,1.13-.42,1.43c-.81.71-1.92-.93-2.31-1.47a21.88,21.88,0,0,1-1.68-2.68c-1.07-2.1-1.19-4.35-1.38-6.65s-.34-4.44-.52-6.66C1063.74,828,1062.74,828,1062.79,828.67Z" transform="translate(-342.65 -304.93)"/><path class="cls-23" d="M1069.31,808.63c1.34.67,2.35,2.49,1.66,3.83-.49.95-1.55,1.79-1.31,2.83s1.42,1.35,2.42,1.44c4.36.42,8.76-.64,13.12-.25a10.19,10.19,0,0,0,2.7.07c2.14-.38,3.59-2.35,4.61-4.26a13.35,13.35,0,0,1,1.17-2c.62-.8,1.44-1.41,2.13-2.15a3.72,3.72,0,0,0,1.16-2.69,5,5,0,0,1-2.84.59c-1-.19-1.81-1.24-1.41-2.14a5,5,0,0,1,.83-1,1,1,0,0,0,.19-1.21c-1.53.29-2.82,1.38-4.36,1.69-2.5.5-5.06-1.19-7.58-.71-1.38.26-2.58,1.16-4,1.42s-2.59-.09-3.88,0a6,6,0,0,0-5,3.81C1068.85,808.27,1069,808.82,1069.31,808.63Z" transform="translate(-342.65 -304.93)"/><path class="cls-23" d="M1069.05,809.07c1,.52,2,1.78,1.56,3s-1.65,1.88-1.46,3.23a2.55,2.55,0,0,0,2.31,1.89,20.25,20.25,0,0,0,4.67.13c1.68-.08,3.34-.25,5-.33a34.24,34.24,0,0,1,5,.12,5.59,5.59,0,0,0,3.86-.87,9.12,9.12,0,0,0,2.51-2.84c.38-.62.69-1.28,1.06-1.91a8.81,8.81,0,0,1,1.69-2c1.14-1.07,2.31-2.28,2.24-4a.51.51,0,0,0-.75-.44,4.45,4.45,0,0,1-2.46.55c-.53-.11-1.17-.6-1.14-1.2s.73-1,1-1.43a1.45,1.45,0,0,0,0-1.5.5.5,0,0,0-.56-.23,12.46,12.46,0,0,0-2.76,1.11,5.65,5.65,0,0,1-3.1.62c-2-.2-4-1.15-6.08-.75a18.56,18.56,0,0,0-3,1.12,8,8,0,0,1-3.37.3,6.9,6.9,0,0,0-5.12,1.62,6.17,6.17,0,0,0-1.67,2.39c-.23.6,0,1.79.89,1.47.6-.22.34-1.19-.27-1,.16,0,.16.1.27,0a1.84,1.84,0,0,0,.09-.28c.07-.17.16-.33.24-.48a5.72,5.72,0,0,1,.78-1,5.59,5.59,0,0,1,1.88-1.31c1.77-.75,3.6-.11,5.43-.41s3.27-1.58,5.17-1.5,3.45.85,5.23.88c2.1,0,3.64-1.38,5.61-1.8l-.56-.23c.25.43-.39.89-.63,1.16a2.2,2.2,0,0,0-.5.83,2,2,0,0,0,.48,1.8c1.22,1.4,3.1.78,4.56.16l-.75-.43c.07,1.55-1.24,2.56-2.26,3.54a12.44,12.44,0,0,0-2.22,3.18,9.91,9.91,0,0,1-2.19,2.87,4.9,4.9,0,0,1-3.92,1,58.25,58.25,0,0,0-9.15.2c-1.18.07-7.9.69-6.35-2,.64-1.12,1.52-1.91,1.25-3.31a4,4,0,0,0-2.07-2.74C1069,807.9,1068.49,808.76,1069.05,809.07Z" transform="translate(-342.65 -304.93)"/><path class="cls-23" d="M1051.43,798.15a15,15,0,0,0-1.11-9.41,16.14,16.14,0,0,1-1.67-3.93,13.77,13.77,0,0,1,.3-4.42c.31-2.21.28-4.46.7-6.64a8.73,8.73,0,0,1,3.23-5.65l.44,4.91c.06.63.17,1.35.72,1.66a1.4,1.4,0,0,0,1.75-.6,5.2,5.2,0,0,0,.54-2,13.93,13.93,0,0,1,3.12-6.76,1.67,1.67,0,0,1,.91-.66,1.21,1.21,0,0,1,1.24.71,2.87,2.87,0,0,1,.2,1.51,10.47,10.47,0,0,1-.71,3.07c-.27.66-.55,1.57.05,2a1.24,1.24,0,0,0,1.38-.23,4.24,4.24,0,0,1,1.21-.86c1-.3,1.94.53,2.94.41,1.21-.15,2.26-1.64,3.34-1.08a2,2,0,0,1,.84,1.33,6.25,6.25,0,0,1,.35,3.38c-.42,1.6-1.9,2.63-3,3.84-2,2.22-2.92,5.25-3.43,8.21s-.7,6-1.59,8.88a1.71,1.71,0,0,1-.53.92,2.07,2.07,0,0,1-1.46.16,7.93,7.93,0,0,0-4.29.74,18.4,18.4,0,0,1-2.92,1.44A2,2,0,0,1,1051.43,798.15Z" transform="translate(-342.65 -304.93)"/><path class="cls-23" d="M1051.91,798.29a15.77,15.77,0,0,0,.08-5.93,20.1,20.1,0,0,0-2.07-5.5,7,7,0,0,1-.86-3.09,21.22,21.22,0,0,1,.39-3.37c.3-2.2.26-4.44.7-6.61a8.27,8.27,0,0,1,3-5.26l-.76-.43.42,4.67c.09,1,.26,2.24,1.41,2.5a2.17,2.17,0,0,0,2.32-1.62,13.63,13.63,0,0,0,.36-1.82,12.72,12.72,0,0,1,.55-2,13.47,13.47,0,0,1,1.92-3.56c.33-.44.94-1.45,1.58-.92s.39,1.41.32,2a10.3,10.3,0,0,1-.49,2.06,5.84,5.84,0,0,0-.47,1.56,1.36,1.36,0,0,0,1.76,1.53,4.1,4.1,0,0,0,1.34-.88c.64-.5,1.22-.28,1.93-.06a3.26,3.26,0,0,0,2.9-.42c.37-.23.85-.63,1.31-.58.66.06.82,1,1,1.53a4.26,4.26,0,0,1-.45,4c-.72,1-1.71,1.7-2.48,2.61a12.73,12.73,0,0,0-1.94,3.24,30.37,30.37,0,0,0-1.79,7.87,45.25,45.25,0,0,1-.84,4.79c-.17.68-.27,1.85-1.15,1.87s-1.46-.13-2.21-.07a9.89,9.89,0,0,0-4.08,1.41c-1.06.61-2.91,1.61-3.7.1-.29-.57-1.16-.07-.86.5a2.44,2.44,0,0,0,2.62,1.26,12.24,12.24,0,0,0,3.52-1.58,8.37,8.37,0,0,1,4.42-.63,1.9,1.9,0,0,0,1.5-.4,3.73,3.73,0,0,0,.79-1.75c1.46-5.38.73-12,4.82-16.34a19.35,19.35,0,0,0,2.45-2.67,4.89,4.89,0,0,0,.52-3.78c-.23-1.06-.54-2.6-1.76-2.9-1-.26-1.87.6-2.73,1-1.18.55-2.32-.59-3.56-.22a4.27,4.27,0,0,0-1.28.87c-.26.19-.8.54-1,.12-.12-.25.08-.73.16-1a11.64,11.64,0,0,0,.86-4c0-1.07-.64-2.33-1.88-2.25a2.32,2.32,0,0,0-1.55,1.06,14.64,14.64,0,0,0-2.93,6.12,8.76,8.76,0,0,1-.5,2.28c-.17.32-.54.71-1,.66s-.52-.4-.6-.72a16.57,16.57,0,0,1-.26-2.53l-.27-2.95c0-.34-.41-.67-.75-.43-3.41,2.42-3.67,6.78-4,10.58-.09,1.18-.26,2.35-.44,3.52a9.64,9.64,0,0,0-.06,3.17c.37,2.06,1.76,3.79,2.39,5.77A14.73,14.73,0,0,1,1051,798C1050.82,798.65,1051.79,798.92,1051.91,798.29Z" transform="translate(-342.65 -304.93)"/><path class="cls-23" d="M969.4,898.27c-1.34-1-3.06-.61-4.39.47a2.31,2.31,0,0,1-.84.55,1.8,1.8,0,0,1-1.29-.41c-4.24-2.69-8.51-5.42-12-9a13.08,13.08,0,0,1,3.36.38,32.86,32.86,0,0,0-1.74-4.87l3.61,1.6c.37.17.85.31,1.13,0a1,1,0,0,0,.18-.68l.05-2.38c.52.54,1.51,1.05,1.88.4.28-.48-.18-1-.22-1.6a1.41,1.41,0,0,1,1.22-1.36,3.13,3.13,0,0,1,1.93.39l-1.17-6.91c-.09-.53-.09-1.23.41-1.43s1,.31,1.29.77c2.41,3.65,4.84,7.35,6.25,11.48.46,1.34.8,2.71,1.35,4a20.55,20.55,0,0,1,1.44,3.67A12.62,12.62,0,0,1,972,896a3.66,3.66,0,0,1-.58,2.31C970.91,898.93,969.73,899,969.4,898.27Z" transform="translate(-342.65 -304.93)"/><path class="cls-23" d="M969.65,897.84a3.84,3.84,0,0,0-4.4.11,12.53,12.53,0,0,1-1,.77c-.45.24-.9-.15-1.28-.39l-2.52-1.62a52.09,52.09,0,0,1-9.17-7.22l-.36.85a13.45,13.45,0,0,1,3.23.36.5.5,0,0,0,.61-.61,36.55,36.55,0,0,0-1.78-5l-.69.68,2.48,1.11a5.11,5.11,0,0,0,2.15.74,1.11,1.11,0,0,0,1-1.09,25.59,25.59,0,0,0,.06-2.63l-.85.36c.68.66,2.18,1.41,2.72.17a1.41,1.41,0,0,0,0-.86c-.07-.33-.33-.72-.25-1.06.25-1.08,1.73-.65,2.39-.35a.5.5,0,0,0,.73-.56l-.64-3.82-.3-1.78a7.22,7.22,0,0,1-.25-1.72c0-.86.71,0,.94.32l1.05,1.61c.64,1,1.26,2,1.86,3a36.12,36.12,0,0,1,3.12,6.48c.41,1.18.73,2.39,1.17,3.56s1,2.09,1.36,3.17a10.1,10.1,0,0,1,.41,4A2.52,2.52,0,0,1,971,898c-.3.33-1,.49-1.21,0s-1.17-.06-.86.51a1.7,1.7,0,0,0,2.44.45c1.05-.66,1.08-2.09,1.1-3.19a10.17,10.17,0,0,0-.71-4.26c-.59-1.4-1.22-2.76-1.68-4.22a39.28,39.28,0,0,0-3.71-8.42c-.77-1.3-1.58-2.57-2.41-3.84-.53-.81-1.35-2.57-2.61-2.13s-.67,2.51-.51,3.47l.93,5.48.73-.56c-1.16-.54-2.74-.85-3.59.39a1.83,1.83,0,0,0-.15,1.7c.08.27.31.7-.12.69s-.65-.35-.84-.53a.51.51,0,0,0-.86.35l0,1.91a2.71,2.71,0,0,1,0,.7c-.18.25-.57,0-.78-.1-1.13-.49-2.25-1-3.37-1.5a.51.51,0,0,0-.69.68,34.84,34.84,0,0,1,1.69,4.75l.62-.61a14.24,14.24,0,0,0-3.5-.4.5.5,0,0,0-.35.85,53,53,0,0,0,9.19,7.27l2.52,1.62a2.56,2.56,0,0,0,2.21.64,3.53,3.53,0,0,0,.91-.63,4.85,4.85,0,0,1,1.14-.68,2.62,2.62,0,0,1,2.64.3C969.67,899.09,970.17,898.22,969.65,897.84Z" transform="translate(-342.65 -304.93)"/><path class="cls-23" d="M981.55,891.4a7.75,7.75,0,0,1,.48-5.58,31.72,31.72,0,0,0,2.06-5.33c.39-2,.13-4,.74-5.9s2.14-3.55,2.84-5.5c.31-.88.45-1.82.82-2.68a2.9,2.9,0,0,1,2-1.85c.43-.09.89,0,1.32-.13,1.06-.23,1.85-1.33,2.92-1.28,1.29.06,1.87,1.72,1.63,3s-1,2.45-.92,3.74a6.68,6.68,0,0,0,.86,2.64.94.94,0,0,0,.3.38c.35.18.79-.21,1.14,0s.31.42.34.69a8.64,8.64,0,0,1-.36,3.31,3.12,3.12,0,0,0-.27,1.79c.17.59,1,1,1.4.49,1,2.12-1.48,4.51-.92,6.78a.74.74,0,0,1,.91.5,1.94,1.94,0,0,1-.09,1.14,17.84,17.84,0,0,1-2,4.5,4.49,4.49,0,0,1-1.5,1.62,1.87,1.87,0,0,1-2.09-.06c-.43-.36-.6-.94-1-1.34-1-1.06-2.8-.42-4,.46s-2.41,2-3.85,1.81C983.63,894.45,982,891.87,981.55,891.4Z" transform="translate(-342.65 -304.93)"/><path class="cls-23" d="M982,891.26c-1.39-3.87,2.05-7.4,2.62-11.09.3-1.94.08-4,.8-5.83.64-1.68,1.87-3.07,2.55-4.73.57-1.4.64-4,2.4-4.53.45-.13.93-.06,1.39-.15a3,3,0,0,0,1-.39c.58-.33,1.3-1,2-.87s.95,1,1,1.55a5.76,5.76,0,0,1-.52,2.44,5.83,5.83,0,0,0-.4,2.64,7.25,7.25,0,0,0,.89,2.47,1.12,1.12,0,0,0,.82.66,1.9,1.9,0,0,0,.53,0c.35,0,.34,0,.38.38a8.76,8.76,0,0,1-.47,3.29,2.2,2.2,0,0,0,.28,2.41,1.3,1.3,0,0,0,1.8,0l-.79-.1c.47,1.09-.12,2.33-.5,3.36a5.9,5.9,0,0,0-.47,3.31.51.51,0,0,0,.62.34c.34-.09.33.47.3.65a5.6,5.6,0,0,1-.2.7c-.16.52-.34,1-.55,1.52a17.17,17.17,0,0,1-1.37,2.62c-.48.75-1.18,1.65-2.18,1.58s-1.13-1.2-1.76-1.71c-1.2-1-2.93-.43-4.09.35-.72.48-1.36,1.08-2.11,1.52-.5.28-1.33.69-1.85.31-1-.72-1.5-2-2.31-2.9-.43-.47-1.14.23-.71.71.88,1,1.44,2.31,2.52,3.07a2.41,2.41,0,0,0,2.2,0,13.4,13.4,0,0,0,2.62-1.74c.74-.53,1.91-1.14,2.84-.71.46.22.65.69.93,1.09a2.14,2.14,0,0,0,1.09.9c2.22.76,3.68-1.8,4.5-3.41a13.9,13.9,0,0,0,1.39-3.63c.19-1-.35-2.2-1.53-1.87l.61.35c-.26-1.23.38-2.46.77-3.59a4.41,4.41,0,0,0,.11-3.31.51.51,0,0,0-.79-.11c-.11.12-.24.07-.36,0a.73.73,0,0,1-.23-.73,11.39,11.39,0,0,1,.44-1.59,8.6,8.6,0,0,0,.23-2.9c-.07-.67-.4-1.28-1.16-1.23-.14,0-.4.14-.54.1s-.21-.3-.29-.45a7.27,7.27,0,0,1-.57-1.49c-.41-1.86,1.07-3.48.87-5.34-.14-1.23-.93-2.55-2.33-2.49a4.22,4.22,0,0,0-2,.89,2.58,2.58,0,0,1-1.2.45,5.11,5.11,0,0,0-1.35.18c-1.65.61-2.12,2.45-2.53,4-.51,1.85-1.68,3.3-2.53,5a14.23,14.23,0,0,0-1.11,5.67c-.17,2.35-1.15,4.31-2.06,6.44s-1.43,4.21-.67,6.31C981.28,892.13,982.25,891.87,982,891.26Z" transform="translate(-342.65 -304.93)"/><path class="cls-23" d="M994.14,902.94a20.38,20.38,0,0,1,3.91-2.68,6.7,6.7,0,0,1,4.62-.58c2.32.64,4.09,2.93,6.5,3a15.34,15.34,0,0,1,2.87-.07,2.49,2.49,0,0,1-1.08,4.86c-.56-.12-1.13-.43-1.68-.25-.86.28-.92,1.46-1.4,2.23a2.8,2.8,0,0,1-2.74,1.07,8.22,8.22,0,0,1-2.86-1.18c-.36,2.16,2.45,3.5,3.08,5.59a1.48,1.48,0,0,1-.05,1.17,1.33,1.33,0,0,1-1.11.56,3.37,3.37,0,0,1-2.51-1.48,10.72,10.72,0,0,0-2-2.23,25.9,25.9,0,0,0-3-1.25c-1-.5-1.81-1.66-1.32-2.64.27-.54.89-.88,1.09-1.46.3-.9-.56-1.73-1.31-2.31A2.08,2.08,0,0,1,994.14,902.94Z" transform="translate(-342.65 -304.93)"/><path class="cls-23" d="M994.5,903.3c2-1.64,4.35-3.49,7.11-3.3,2.32.16,3.95,2.12,6,2.89a8.78,8.78,0,0,0,3.5.16,2.11,2.11,0,0,1,2.28,2,2,2,0,0,1-2.06,2c-.58,0-1.1-.33-1.68-.34a1.63,1.63,0,0,0-1.28.56c-.74.83-.63,2.11-1.77,2.61-1.42.62-2.9-.24-4.12-.93a.49.49,0,0,0-.73.29c-.21,1.57.75,2.69,1.72,3.8a6.23,6.23,0,0,1,1.34,2c.48,1.48-1.2,1.26-2,.69a13.91,13.91,0,0,1-2-2.28,5.47,5.47,0,0,0-2.4-1.54,4.52,4.52,0,0,1-2.54-1.4,1.16,1.16,0,0,1-.17-1.22c.21-.39.61-.65.86-1a2,2,0,0,0-.33-2.48c-.65-.76-2.18-1.46-1.71-2.67.22-.6-.74-.86-1-.27a2.41,2.41,0,0,0,.82,2.59,9.73,9.73,0,0,1,1.23,1.17c.46.62.21,1-.27,1.56-1.6,1.7-.18,3.6,1.65,4.31a6.84,6.84,0,0,1,3.12,1.68,14.47,14.47,0,0,0,2.18,2.44,2.66,2.66,0,0,0,2.69.4,1.83,1.83,0,0,0,.66-2.44,8.66,8.66,0,0,0-1.68-2.4c-.62-.72-1.44-1.6-1.3-2.64l-.73.3a6.65,6.65,0,0,0,4,1.24,3,3,0,0,0,2.56-2c.17-.42.31-1.14.79-1.32s.84.11,1.2.2a3.1,3.1,0,0,0,1,.1,3.14,3.14,0,0,0,2.59-1.86,3,3,0,0,0-.58-3.1c-1-1.18-2.4-1-3.81-.88-2.75.22-4.53-2.28-7-3-3.43-1-6.51,1.37-9,3.4C993.29,903,994,903.7,994.5,903.3Z" transform="translate(-342.65 -304.93)"/><path class="cls-23" d="M970.41,908.2c.17-1.49-1.9-2.54-3.41-2.49a5.35,5.35,0,0,0-2.16.61,9.82,9.82,0,0,0-5.14,6.46,1.89,1.89,0,0,0,.35,1.93c.81.62,1.89-.2,2.8-.66a.43.43,0,0,1,.34-.07c.3.08.19.53,0,.8a21.29,21.29,0,0,0-2.2,4.71c-.27.83-.42,1.92.28,2.44a2,2,0,0,0,2.09-.18,7,7,0,0,0,2.21-2,6.37,6.37,0,0,1-.24,2.53l6.14-7.8c.93-1.19,1.92-2.59,1.62-4.06a.57.57,0,0,0-.2-.38.64.64,0,0,0-.43,0l-2.06.33Z" transform="translate(-342.65 -304.93)"/><path class="cls-23" d="M970.91,908.2c.16-2.39-3.09-3.3-4.93-2.84a9.75,9.75,0,0,0-5.87,4.92,6.94,6.94,0,0,0-1,3.56,1.7,1.7,0,0,0,2.35,1.46,5.92,5.92,0,0,0,.81-.37l.34-.18.17-.1c.2,0,.22-.12.07-.26-.2.13-.42.71-.53.91-.23.4-.44.8-.64,1.21a11.8,11.8,0,0,0-1.39,4,1.85,1.85,0,0,0,2.16,2.14A6.22,6.22,0,0,0,966,920l-.93-.26a6.64,6.64,0,0,1-.22,2.39c-.13.45.51.9.83.49,2.18-2.77,4.42-5.5,6.54-8.31a5.3,5.3,0,0,0,1.39-3.84c-.09-.55-.39-1-1-1a18.61,18.61,0,0,0-2.34.35l.63.49V908.2a.5.5,0,0,0-1,0v2.12a.51.51,0,0,0,.63.48l.92-.14a3.42,3.42,0,0,1,1-.17c.23.08.06-.08.15.18a1.24,1.24,0,0,1,0,.43,3.07,3.07,0,0,1-.22.94,13.42,13.42,0,0,1-2.22,3.24L965,921.91l.84.49a7.25,7.25,0,0,0,.26-2.66.5.5,0,0,0-.93-.25,5.36,5.36,0,0,1-2.7,2.11c-1.51.39-1.19-1.33-.9-2.2a20.25,20.25,0,0,1,1.57-3.49c.32-.58,1.25-1.73.42-2.31s-1.87.67-2.62.81c-1.38.24-.66-1.93-.43-2.56a9.32,9.32,0,0,1,3.94-4.74,4.63,4.63,0,0,1,3.5-.79c.89.22,2,.82,2,1.88C969.86,908.85,970.86,908.84,970.91,908.2Z" transform="translate(-342.65 -304.93)"/><path class="cls-23" d="M977.87,918.77a15.7,15.7,0,0,0,1,5.28,5.19,5.19,0,0,0,4.05,3.19,5.09,5.09,0,0,1,.24-1.64c.4.11.62.54,1,.8a1.77,1.77,0,0,0,2.39-.63,5.09,5.09,0,0,0,.61-2.68c.19.78,1.39.85,2,.28a3.49,3.49,0,0,0,.71-2.24l.21-3c.13-1.91.24-3.93-.67-5.62a5.16,5.16,0,0,0-2.39-2.25,1.2,1.2,0,0,0-.69-.14c-.65.1-.81.95-.81,1.61v2.49a1.39,1.39,0,0,1-.08.57.91.91,0,0,1-1.25.26,2.73,2.73,0,0,1-.9-1.08l-2.1,2.79c-.13.17-.28.35-.49.36s-.43-.24-.62-.4a1.54,1.54,0,0,0-2.25.65C977.4,918.16,977.46,918,977.87,918.77Z" transform="translate(-342.65 -304.93)"/><path class="cls-23" d="M977.37,918.77c.17,2.1.34,4.33,1.46,6.17a5.54,5.54,0,0,0,4.14,2.8.51.51,0,0,0,.5-.5,5.51,5.51,0,0,1,.22-1.51l-.61.35c.3.12.49.47.73.67a1.88,1.88,0,0,0,.72.36,2.3,2.3,0,0,0,1.69-.34c1.25-.79,1.39-2.34,1.45-3.68l-1,.13c.47,1.43,2.38,1.22,3.09.12a5.39,5.39,0,0,0,.57-2.56c.08-1.11.16-2.21.23-3.32.11-2,.08-4.07-1.08-5.74-.69-1-2.82-3.06-4-1.71-.62.7-.49,1.83-.49,2.69,0,.38.21,1.76-.19,1.93s-.92-.62-1.1-.94a.51.51,0,0,0-.87,0l-1.13,1.49-.52.7c-.09.11-.41.67-.55.67a2.89,2.89,0,0,1-.33-.3,1.54,1.54,0,0,0-.49-.26,1.92,1.92,0,0,0-1,0,2.29,2.29,0,0,0-1.55,1.32c-.35.73-.2,1.06.17,1.75s1.17.06.87-.51c-.13-.23-.27-.41-.25-.59a1.4,1.4,0,0,1,.59-.82,1,1,0,0,1,.88-.16c.31.12.47.45.79.57.69.27,1.12-.36,1.48-.83l1.89-2.5h-.87c.41.73,1,1.48,1.89,1.46S986,915,986,914.19s0-1.33,0-2a3.39,3.39,0,0,1,.12-1.31c.41-.95,2.12.79,2.46,1.23,1.37,1.83,1.09,4.3.94,6.45a29.23,29.23,0,0,1-.26,3.36,1.59,1.59,0,0,1-.7,1.24c-.27.12-.77.13-.89-.21a.5.5,0,0,0-1,.13c0,1-.07,2.37-1.1,2.9s-1.39-.55-2.23-.87a.5.5,0,0,0-.61.35,6.27,6.27,0,0,0-.26,1.77l.5-.5a4.65,4.65,0,0,1-3.46-2.62,13.76,13.76,0,0,1-1.14-5.35C978.33,918.14,977.32,918.13,977.37,918.77Z" transform="translate(-342.65 -304.93)"/></g></svg>