<?xml version="1.0" encoding="utf-8"?>
<!-- Generator: Adobe Illustrator 24.0.1, SVG Export Plug-In . SVG Version: 6.00 Build 0)  -->
<svg version="1.1" id="Layer_1" xmlns="http://www.w3.org/2000/svg" xmlns:xlink="http://www.w3.org/1999/xlink" x="0px" y="0px"
	 viewBox="0 0 773.6 1101.4" enable-background="new 0 0 773.6 1101.4" xml:space="preserve">
<g id="braços_e_pernas">
	<path fill="#006837" stroke="#006837" stroke-miterlimit="10" d="M748.6,722.2L748.6,722.2c-0.7,0.1-1.3,0.5-1.8,0.9
		c-59.5,50.6-71.4,92.5-85.1,83c-40.3-28-103.6-113.3-120.1-136c-7.7-135-112.5-241.9-240.6-241.9c-133.1,0-241,115.5-241,257.9
		c0,6.8,0.2,13.5,0.7,20.2c-6.3,11.4-45.6,83.6-57,120.4c-0.6,1.9-1.1,3.6-1.5,5.3c-0.1,0.4-0.2,0.9-0.3,1.3c-0.1,0.6-0.2,1.3-0.4,2
		c0,0,0,0.1,0,0.1s0,0.1,0,0.1c-6.5,38.6,19.7,98.7,56.1,139.5c0.8,0.9,1.6,1.8,2.4,2.6c4.2,4.6,7.8,1.7-20.2-48.1
		c-15.8-28-24.2-60.9-20.9-82.4c3.6-23.7,29.6-70.3,47.8-100.6c11.2,49.8,35.9,94,69.8,127.9c4.5,19.5,26.5,111.8,48,134.1
		c0.3-0.1,0.7-0.2,1-0.2c4.5-0.4,8.9-1.9,13.3-3.2c0.7-21.5-11.8-65.2-22.5-98.5c37.1,24.3,80.4,37.2,124.8,37.2
		c51.2,0,98.7-17.1,137.7-46.2c-0.2,33.8,1.4,85.3,11.4,105.4c0.2,0.4,0.5,0.8,0.8,1.1c4,4.7,15,0.8,15.2-3.2c0-0.3,0-0.5,0-0.8
		c1.6-28.6,1.8-106.5,1.9-128.3c42.8-44,70.5-104.8,73.7-172.5c22.7,27.1,64.3,83,96.2,110.4c0.6,0.5,1.9,1.5,3.9,3
		c2.9,2.2,6.9,5.2,11,8c7.8,5.4,13.8,8.7,16,7.8c23-9.2,67-67.4,85.5-98.9c0.3-0.5,0.6-1.5,0.8-1.9
		C756.9,725,752.3,721.4,748.6,722.2z"/>
</g>
<g id="Camada_14">
	<polygon fill="#053D21" stroke="#053D21" stroke-miterlimit="10" points="145.4,910.5 185.5,937.3 179.7,913.8 137.5,884.8 	"/>
	<polygon fill="#053D21" stroke="#053D21" stroke-miterlimit="10" points="438.9,923.7 467.9,896.8 467.9,872.1 438.7,897.8 	"/>
	<path fill="#053D21" stroke="#053D21" stroke-miterlimit="10" d="M441.1,961.6l12.3,37.7c0,0-3.6,11.3-5.9,0
		S441.1,961.6,441.1,961.6z"/>
	<path fill="#053D21" stroke="#053D21" stroke-miterlimit="10" d="M193.6,1008.1v-38.8c0,0,7,26.6,5.7,36.9
		S193.6,1008.1,193.6,1008.1"/>
	<path fill="#053D21" stroke="#053D21" stroke-miterlimit="10" d="M64.1,742.5c0,0-31.4,56.7-37,70.2c-2,4.8-7.3,29.6-7.3,29.6
		s3.4-18,22.1-52.3c13-24,24.8-43.4,24.8-43.4L64.1,742.5z"/>
	<path fill="#053D21" stroke="#053D21" stroke-miterlimit="10" d="M536.8,695.6c0,0,81.2,100.7,94.8,108.9
		c13.6,8.2-91.9-109.6-91.9-109.6L536.8,695.6z"/>
</g>
<g id="bolinha">
	<path fill="#FFDA00" stroke="#FFDA00" stroke-miterlimit="10" d="M542.5,685.1c0,142.6-116.8,283.8-238.5,284.2
		C181.7,969.7,54.8,826.6,54.8,684.1s113.7-257.2,246.8-257.2S542.5,542.5,542.5,685.1z"/>
</g>
<g id="Camada_12">
	<path fill="#C6C11B" stroke="#C6C11B" stroke-miterlimit="10" d="M95.7,827.7c0,0,94.2,125.8,209.6,126
		C440.3,954,500.1,836,500.1,836s-67.2,133.6-196,133.3S95.7,827.7,95.7,827.7z"/>
	<path fill="#C6C11B" d="M158.2,482.3c8.7-2.5,11.4-3.4,20.1-5.9c11.3-3.3,22.6-6.5,34.3-7.4s22.2-3.1,34-4.5
		c7.2-0.8,17.1-2.7,24.3-3.8c8.5-1.3,24.5-2.2,33.1-2.3c26.7-0.5,44.9,3.6,71.2,8c29.4,5,57.4,16,85.2,26.9c3.1-2-37-24.9-39.8-27.3
		s-0.7,1.6-4.3,0.9c-22.4-4.3-8.4-4.9-29.5-13.4c-33.8-13.6-71.4-13.2-107.9-12.7c-11.5,0.2-23,0.4-34.3,2.2
		c-8.3,1.5-16.4,3.4-24.5,5.8l-51.8,14.3c-8.7,2.4-18.8,1.8-20.8,10.6C150.4,476.3,154.3,482.1,158.2,482.3"/>
	<path fill="#C6C11B" d="M158.6,483.7c11.3-3.3,22.5-6.9,33.8-9.8c6.6-1.7,13.3-2.9,20.1-3.5c6.5-0.5,13-1.4,19.4-2.4
		s12.6-1.7,18.9-2.6c5.8-0.8,11.6-1.8,17.3-2.8c9.9-1.5,19.9-2.3,29.9-2.5c11.8-0.5,23.6-0.1,35.3,1.2c12.2,1.4,24.2,3.6,36.2,5.7
		c13.3,2.2,26.4,5.3,39.3,9.2c12.8,3.9,25.3,8.6,37.7,13.4l9.4,3.7c1.5,0.6,4.6,2.7,5.7,0.7c0.8-1.5-0.7-3-1.7-3.9
		c-4.2-3.8-9.2-6.7-13.9-9.7c-5.8-3.7-11.6-7.2-17.4-10.8c-2-1.2-4-2.4-5.9-3.7c-0.3-0.2-0.6-0.4-0.8-0.5s-0.8-0.6-0.4-0.3
		c-1.1-0.8-2.5-2-3.8-0.7c-0.3,0.3-0.4,1-0.7,1.2s-2.2-0.3-2.8-0.5c-2.3-0.5-4.6-1-6.8-1.6c-2-0.5-3.8-1.4-5.5-2.6
		c-1.6-1.5-3.2-2.8-5-4c-4.3-2.5-8.8-4.5-13.5-6.2c-24.1-9-50.1-11.2-75.6-11.5c-13.2-0.2-26.5,0-39.7,0.4
		c-6.8,0.1-13.6,0.6-20.4,1.4c-6.7,1-13.4,2.3-19.9,4.1c-13.5,3.5-26.9,7.4-40.3,11.1c-6.8,1.9-13.5,3.8-20.3,5.6
		c-4.5,1.2-9.2,1.5-13.5,3.2c-3.9,1.5-6.8,4.2-7.9,8.4c-0.1,0.5,0,1.1,0.4,1.5c3.7,3,6.7,8.4,11.9,8.8c1.9,0.2,1.9-2.8,0-3
		s-3.8-2-5.2-3.4c-1.5-1.5-2.9-3.2-4.6-4.6l0.4,1.5c1.3-5.3,6.3-6.7,11-7.7c2.6-0.5,5.2-1,7.8-1.6c3.7-1,7.4-2,11.1-3
		c15.5-4.3,31-8.6,46.5-12.8c7.4-2.1,15-3.8,22.6-4.9c7.9-1,15.8-1.5,23.8-1.6c14.8-0.3,29.7-0.6,44.6-0.1c14.8,0.3,29.5,1.9,44,4.8
		c7,1.5,13.9,3.4,20.7,5.8c5.3,1.9,10.8,3.9,15.6,7.1c1.7,1.2,3.1,2.7,4.8,3.9c2.7,1.9,6.3,2.6,9.5,3.3c1.5,0.3,3,0.7,4.5,0.9
		c1.1,0.4,2.4,0.3,3.5-0.2c0.6-0.3,1-0.9,1.3-1.5c0-0.2,0.1-0.2,0.1-0.2s-1.1,0.2-1.1,0.3s0.5,0.4,0.6,0.5c1.6,1.2,3.3,2.2,5,3.3
		c6.4,4,12.8,7.8,19.1,11.8c3.2,2,6.3,4,9.3,6.2c2,1.3,3.9,2.8,5.6,4.4c0.1,0.1,0.3,0.3,0.4,0.5c0.1-0.1,0,0.4,0,0s-0.2,0.6-0.1-0.4
		c0.1-0.4,0.3-0.7,0.6-1l1.2-0.2c-20.4-8-40.9-16.1-62.1-21.8c-10.7-2.9-21.6-4.8-32.5-6.7c-9.8-1.7-19.5-3.4-29.3-4.7
		c-18.5-2.3-37-2.2-55.6-0.6c-8.6,0.7-17,2.3-25.5,3.6c-4.8,0.8-9.6,1.3-14.3,2c-5.4,0.7-10.8,1.6-16.2,2.4s-11.2,1.1-16.7,1.8
		c-5.4,0.7-10.7,1.7-15.9,3c-9.4,2.3-18.6,5.2-27.9,8c-2.3,0.7-4.6,1.3-6.9,2c-0.8,0.2-1.2,1.1-1,1.9
		C157,483.5,157.8,483.9,158.6,483.7L158.6,483.7z"/>
</g>
<g id="Camada_13">
	<path fill="#FFFDF5" stroke="#FFFEEB" stroke-miterlimit="10" d="M142.4,501.6c-15.1,15.7-24.5,26.2-37.3,45.4
		c-19.4,29.2-44.2,73.4-41.5,123.6c1,19,2.5,61.2,8.9,61.2c0,0-2.9-20.8-2.9-33.9c0-22.6,1.9-65.2,10.1-85.8
		c11.5-29.2,14.3-27.7,35-50.3c14.6-16,25.3-28.3,41.4-48.5c5-6.2,16.7-23.1,9.2-26.5C156.9,483.1,147.9,495.9,142.4,501.6z"/>
</g>
<g id="Camada_5">
	<path fill="#FFFCD3" d="M231.4,357c-2.9-12.6-9.7-24-15.6-35.5c-34.1-66.4-42-145.8-21.8-217.6c5-17.7,12.3-35.9,27.1-46.8
		c8.1-6,17.8-9.3,27.4-12.4c42-13.8,85.3-26.8,129.5-25c8.7,0.4,17.8,1.4,24.9,6.4c9.5,6.7,13.5,18.7,16.3,30
		c10.1,40,14.6,81.6,10.6,122.7c-5.1,52.4-23.6,102.3-41.9,151.6c-1.8,4.8-3.6,9.6-6.7,13.7c-9.3,12.2-26.7,13.8-42,14.5l-92.8,3.7
		c-5.8,0.2-12.6,0-15.8-4.8"/>
	<path fill="#FFECA1" d="M232.8,356.6c-3.7-15.7-12.8-29.4-19.7-43.8c-6.7-14.1-12.2-28.8-16.6-43.8c-8.7-29.9-12.7-60.9-12-92.1
		c0.4-15.5,2-31,4.8-46.2c2.7-14.7,6.2-29.5,11.8-43.3c5.5-13.4,13.8-25.6,26.7-32.8c6.9-3.8,14.5-6.3,22-8.8
		c8.2-2.7,16.4-5.3,24.7-7.8c32.8-10,66.7-17.9,101.2-16.9c7.6,0.2,15.6,0.7,22.5,4c6.3,3,10.7,8.3,13.8,14.5
		c3.2,6.5,5,13.6,6.7,20.7c2,8.3,3.8,16.7,5.3,25.1c6.1,34.1,7.6,69.2,3.1,103.6c-4.4,33.6-14.1,66.4-25.2,98.3
		c-2.8,8.2-5.8,16.3-8.8,24.4c-2.8,7.7-5.5,15.6-8.7,23.2c-2.8,6.7-7,12.2-13.4,15.7c-5.6,3.1-12.1,4.5-18.4,5.3
		c-7.3,0.9-14.7,1-22,1.3l-26.9,1.1l-53.9,2.2c-5.6,0.2-14.1,1.4-17.9-4c-1.1-1.6-3.7-0.1-2.6,1.5c3.9,5.5,11,5.8,17.1,5.6
		c9.1-0.3,18.2-0.7,27.3-1.1l55.6-2.2c13.9-0.5,29-0.2,41.8-6.4c6.1-2.9,11-7.7,14.1-13.6c1.7-3.5,3.2-7.1,4.5-10.8l4.6-12.4
		c12.1-32.9,23.8-66,31-100.4c7.3-34.5,9.1-69.9,5.4-105c-1.9-17.6-5-35.1-9.2-52.3c-3.2-13.2-7.2-28.6-19.8-35.9
		c-6.6-3.8-14.3-4.9-21.8-5.3c-8.7-0.4-17.4-0.3-26.1,0.3c-17.5,1.4-34.8,4.3-51.8,8.6c-17.2,4.2-34.1,9.5-50.9,15
		c-7.7,2.5-15.6,5-22.8,8.7c-6.6,3.3-12.4,7.9-17.2,13.4c-9.4,11-14.6,24.9-18.5,38.6c-4.3,15.3-7.4,30.9-9.2,46.6
		c-3.7,31.8-2.3,63.9,4,95.3c3.1,15.6,7.5,31,13.1,45.9c2.8,7.4,5.8,14.7,9.2,21.9c3.5,7.4,7.4,14.6,11.1,21.9s7.1,14.8,9,22.8
		C230.3,359.3,233.2,358.5,232.8,356.6L232.8,356.6z"/>
	<path fill="#FFFCD3" d="M415.4,44.1c16-0.1,31.3-6.7,42.3-18.4c4.1-4.4,7.6-9.5,12.1-13.5c7.4-6.5,17.4-9.5,27.2-10.4
		c4.4-0.6,8.8-0.3,13.1,0.8c6.8,2,12.2,7.2,16.8,12.6c21.8,26.1,29.3,63.5,19.3,96c-5.4,17.4-15.3,32.9-23.4,49.2
		c-20.5,41-30,87.1-53,126.7c-7.7,13.3-16.9,25.8-27.3,37.1c-11.2,12.2-24.5,23.4-40.6,26.8c-5,1.1-11,1-14.4-2.9
		c-3.8-4.5-2-11.3,0.1-16.9c17-45.7,33-92.2,40.3-140.4s5.5-98.7-12.1-144.1"/>
	<path fill="#FFECA1" d="M415.4,45.6c12.5-0.1,24.6-4,34.7-11.3c5.3-3.8,9.6-8.5,13.8-13.6c4.3-5.2,8.9-9.8,15.1-12.8
		c6.1-2.8,12.7-4.4,19.4-4.8c7.2-0.5,13.8,0.8,19.6,5.3c5,3.8,9,8.9,12.6,14c3.6,5.1,6.6,10.5,9.2,16.1C550,61,552,87.2,544.7,110.8
		c-4.2,13.6-11.3,26.1-18,38.7c-6.6,12.3-12.4,25-17.5,38c-10.3,25.9-18.4,52.7-30,78c-5.8,12.7-12.7,24.9-20.6,36.3
		c-7.8,11.3-16.8,21.8-26.9,31.1c-4.8,4.3-10,8.1-15.6,11.2c-5.4,2.9-11.6,5.5-17.7,6c-2.8,0.2-5.9,0-8.3-1.6
		c-2.6-1.8-3.4-4.8-3.3-7.8c0.3-3,1-5.9,2.2-8.7c1.3-3.5,2.6-7,3.9-10.5c10.2-27.9,19.8-56.1,27.2-84.9
		c7.2-28.2,12.1-57.1,13.2-86.2c1-28.3-1.6-56.8-9.4-84.1c-1.9-6.7-4.1-13.3-6.6-19.9c-0.7-1.8-3.6-1-2.9,0.8
		c10.6,27.4,15.5,56.6,16,85.9c0.6,29.8-3.3,59.4-9.8,88.4c-6.7,29.8-16.1,58.8-26.4,87.5c-2.6,7.2-5.2,14.4-7.9,21.6
		c-2,5.3-4,11.8-1,17.1c3,5.1,9.2,5.9,14.5,5.2c6.3-1,12.4-3.2,18-6.4c11.6-6.4,21.1-15.9,29.7-25.8c9.4-10.8,17.7-22.6,24.8-35.1
		c14-24.8,23-51.9,32.7-78.6c4.9-13.5,10-26.9,16.1-39.9s13.6-25.5,19.7-38.5c5.7-12.1,9.7-24.8,10.8-38.2c1.1-12.5-0.1-25-3.4-37.1
		c-3.3-12.2-8.7-23.6-16.1-33.8c-3.7-5.1-7.8-10-12.8-13.8c-5.5-4.1-12.3-6.2-19.1-5.8c-13.4,0.5-26.5,5-35.6,15.1
		c-4.5,5-8.5,10.5-13.8,14.8c-10.1,8.1-22.6,12.6-35.5,12.6c-0.8,0-1.5,0.7-1.5,1.5S414.5,45.6,415.4,45.6z"/>
	<path fill="#FFFCD3" d="M508.6,197.6c3.5,0.8,5.5,4.8,5.3,8.4c-0.2,3.6-1.8,7-3.1,10.4c-4.4,12-3.8,25.3,1.7,36.9
		c2,4.1,4.5,7.9,6.5,11.9c4.6,9.5,5.9,20.3,6.1,30.9c0.2,10.2-0.8,20.5-4.7,29.9c-7.5,17.9-24.8,29.5-41.2,40
		c-5.6,3.6-11.5,7.3-18.1,7.5c-8.8,0.3-16.3-5.6-23.8-10.1c-11.6-6.9-24.5-11.2-38-12.4"/>
	<path fill="#FFECA1" d="M508.2,199.1c3.8,0.9,4.7,5.5,4,8.8c-0.6,2.4-1.4,4.6-2.3,6.9c-0.9,2.1-1.6,4.3-2.1,6.6
		c-2.1,8.8-1.8,18,1,26.7c1.6,4.5,3.7,8.8,6.2,12.9c2.5,4.1,4.4,8.5,5.8,13.1c2.7,9.2,3.1,19,2.8,28.6c-0.3,9.4-2,18.8-6.5,27.1
		c-3.9,7.3-9.5,13.4-15.7,18.8c-6.4,5.3-13.1,10.2-20.2,14.6c-7.4,4.8-15.5,10.6-24.8,8.5c-4.2-1-8-3.1-11.7-5.3
		c-3.9-2.4-7.7-4.9-11.8-7c-8.3-4.2-17.3-7.2-26.5-8.7c-2.3-0.4-4.7-0.7-7-0.9c-1.9-0.2-1.9,2.8,0,3c9.7,0.9,19.3,3.4,28.2,7.5
		c4.3,2,8.5,4.3,12.5,6.9c3.8,2.5,7.8,4.7,12,6.5c4.2,1.7,8.8,2,13.2,1.1c4.6-1,8.8-3.5,12.8-6c7.4-4.5,14.5-9.5,21.4-14.8
		c6.8-5.2,12.7-11.4,17.5-18.4c5-7.8,8.1-16.8,9-26.1c1.1-9.9,0.8-19.9-0.9-29.7c-0.8-4.8-2.3-9.5-4.3-14c-2.1-4.7-5.1-8.9-7.3-13.5
		c-4-8.6-5.2-18.2-3.5-27.5c0.4-2.2,1-4.4,1.7-6.6c0.8-2.4,1.9-4.7,2.7-7.2c1.3-3.9,1.4-8.4-1.2-11.8c-1.1-1.4-2.6-2.5-4.3-2.9
		C507.1,195.6,506.3,198.5,508.2,199.1L508.2,199.1z"/>
	<path fill="#FFFCD3" d="M401.7,351.7c6.8-1.9,13.1-5.6,18.8-9.8c17.5-12.7,31.5-29.7,43-47.9s20.6-38,29.7-57.6
		c5.7-12.3,11.4-24.8,13.3-38.2"/>
	<path fill="#FFECA1" d="M402.1,353.2c11.5-3.3,21.6-11.1,30.4-19c8.8-8,16.8-17,23.7-26.7c15.3-21,26.4-44.7,37.3-68.2
		c6-13.1,12.3-26.3,14.5-40.7c0.3-1.9-2.6-2.7-2.9-0.8c-1.9,12.6-7,24.4-12.3,36c-5.4,11.8-10.9,23.6-16.8,35.2
		c-11.1,21.5-24.1,42.4-41.6,59.3c-4.7,4.6-9.8,8.9-15.2,12.8c-5.5,3.9-11.4,7.4-17.9,9.3c-0.8,0.2-1.2,1.1-1,1.9
		C400.5,352.9,401.3,353.4,402.1,353.2L402.1,353.2z"/>
	<path fill="#E0DBA9" d="M184.9,158.2c-3.3-28.8,13.2-55.9,18.1-84.4c-23.1-11.3-51-2.7-63.7,19.6c21.9,19.7,37.8,45.2,45.8,73.6"/>
	<path fill="#FFECA1" d="M186.4,158.2c-2.5-22.7,7-44.1,13.5-65.4c1.9-6.1,3.4-12.4,4.6-18.7c0.2-0.7-0.1-1.3-0.7-1.7
		c-9.4-4.5-20-6.1-30.4-4.4c-14.9,2.5-27.8,11.5-35.4,24.6c-0.3,0.6-0.2,1.3,0.2,1.8c16.9,15.1,30.2,33.8,39.1,54.7
		c2.5,5.9,4.6,12,6.4,18.2c0.2,0.8,1,1.3,1.8,1.1c0.8-0.2,1.3-1,1.1-1.8l0,0c-6.3-22.3-17.4-42.8-32.5-60.3
		c-4.2-4.9-8.8-9.6-13.6-13.9l0.2,1.8c4.4-7.6,10.8-13.9,18.5-18.1c13.4-7.2,29.4-7.6,43.1-1l-0.7-1.7
		c-3.9,22.6-14.7,43.3-17.8,66.1c-0.9,6.2-1,12.5-0.3,18.8C183.6,160.1,186.6,160.1,186.4,158.2L186.4,158.2z"/>
	<path fill="#FFFCD3" d="M184.2,174.6c-4-28.3-21.6-52.6-39.3-75c-7.7-9.8-15.6-19.5-23.4-29.1c-4.4-5.5-9-11-14.8-15
		c-5-3.5-10.8-5.6-16.6-7.5c-10.8-3.5-21.8-6.2-33.1-8c-2.1-0.3-4.3-0.6-6.3,0.1c-3.2,1.2-4.9,4.6-6.3,7.7l-13,29.3
		c-4.4,9.9-8.8,19.8-10.8,30.4c-5,26.7,5.6,53.5,16.3,78.5c7.1,16.6,14.4,33.4,26,47.3c7.4,8.8,16.2,16.2,23.7,24.9
		c26,30.2,33.5,73.8,61.9,101.8c2.5,2.5,5.2,4.8,8.5,6c8.5,3,17.4-2.5,25.3-6.7c11.3-6,23.7-9.8,36.5-11.1c1.6-0.2,3.3-0.3,4.5-1.4
		c2.2-2,1.2-5.5,0-8.3l-7.9-18.7c-10.4-24.6-20.9-49.4-26.8-75.5c-6.5-28.9-7.3-58.7-8-88.3"/>
	<path fill="#FFECA1" d="M185.6,174.2c-3.9-27-19.8-50-36.1-71.1c-9.3-12-18.9-23.8-28.5-35.5c-4.3-5.3-8.8-10.4-14.6-14.1
		s-12.7-6-19.3-8.1c-7.2-2.2-14.5-4.1-21.9-5.5c-3.5-0.8-7.1-1.4-10.6-1.8c-3-0.4-5.9,0.7-8,2.9c-2,2.2-3.1,5-4.3,7.7l-4.8,10.9
		c-3.1,7.1-6.3,14.1-9.4,21.2c-3,6.6-5.6,13.4-7.6,20.3c-1.9,6.9-2.8,14.1-2.7,21.3c0.1,14.7,4.1,29.2,9.1,42.9
		c4.9,13.4,10.6,26.7,16.8,39.6c6,12.6,13.3,24.5,22.9,34.7c4.9,5.2,10.1,10,15,15.2c4.4,4.7,8.4,9.7,12,15
		c6.8,10,12.2,20.9,17.4,31.8c10.2,21.4,20,44.7,38,61c2.4,2.3,5.2,4.1,8.3,5.1c3,0.8,6.2,0.9,9.2,0.2c6.7-1.4,12.6-5.4,18.6-8.4
		c9.6-4.8,19.9-8,30.5-9.5c2.9-0.4,6.6-0.1,8.8-2.4c1.9-1.9,1.8-4.8,1.1-7.2c-0.9-3.3-2.6-6.6-4-9.8c-3-7-5.9-14-8.9-21
		c-5.8-13.8-11.4-27.6-16-41.8c-4.7-14.3-8.2-29-10.3-43.8c-2-15.3-3.3-30.6-3.7-46c-0.3-7.4-0.5-14.7-0.6-22.1c0-1.9-3-1.9-3,0
		c0.7,29.5,1.5,59.2,7.9,88.1c6.3,28.3,18,54.9,29.2,81.5l4.3,10.2c1,2.4,3.3,6.1,2.4,8.9c-0.4,1.4-1.8,1.8-3.1,2
		c-1.7,0.3-3.3,0.4-5,0.6c-3.5,0.5-7,1.1-10.4,2c-6.6,1.7-13.1,4-19.2,7c-6,2.9-11.7,6.8-18.2,8.6c-3.2,1-6.6,0.9-9.7-0.1
		c-3.1-1.1-5.6-3.4-7.8-5.6c-4.2-4.2-8-8.7-11.4-13.5c-6.8-9.5-12.2-19.9-17.4-30.4c-10.3-21.2-19.5-43.3-35.7-60.8
		c-4.7-5.1-9.8-9.8-14.6-14.8c-4.8-5-9.2-10.4-13.1-16.2c-7.5-11.2-13-23.6-18.3-36C28,161.3,16,132.7,22.8,104.1
		C26.2,90,33.1,76.8,39,63.6l4.6-10.5c1.1-2.9,2.5-5.8,4-8.5c0.7-1.2,1.7-2.3,2.9-3c1.7-0.7,3.6-0.8,5.4-0.4c3.5,0.5,7.1,1.2,10.6,2
		c7.1,1.5,14.1,3.3,21,5.5c6.6,2.1,13.2,4.4,18.8,8.4s9.8,9.3,14,14.5c4.7,5.8,9.5,11.7,14.2,17.5c16.7,20.8,34.7,42.3,43.7,67.8
		c2.1,5.9,3.6,12,4.5,18.2C183,176.9,185.9,176.1,185.6,174.2L185.6,174.2z"/>
	<path fill="#E0DBA9" d="M90.2,265.5c-4.5,23.1-5.8,47.1-0.5,70s17.9,44.6,37.2,58.1c3.8,2.7,8.5,5,12.8,3.3c2.6-1,4.4-3.3,5.9-5.6
		c3.4-5.1,6.2-10.7,8.2-16.5c0.7-1.6,0.9-3.4,0.8-5.2c-0.4-2.3-2-4.1-3.5-5.8c-21.6-24.9-33-56.8-48.9-85.7
		c-2.9-5.2-6.4-10.7-12.1-12.3"/>
	<path fill="#FFECA1" d="M88.7,265.1c-4.4,22.8-5.9,46.4-0.8,69.2c4.1,18.8,12.9,36.8,26.4,50.6c3.3,3.4,6.9,6.5,10.8,9.3
		c3.9,2.9,8.8,5.8,13.9,4.7s8-6.4,10.4-10.5c2.8-4.6,5-9.6,6.4-14.7c0.7-2.5,0.4-5.2-1-7.4c-1.5-2.1-3.1-4.1-4.8-5.9
		c-3.3-4-6.4-8.2-9.2-12.5c-5.7-8.7-10.8-17.6-15.4-26.9c-4.8-9.3-9.3-18.8-13.9-28.2c-2.3-4.6-4.6-9.2-7.1-13.7
		c-2.2-4.1-4.5-8.3-8.1-11.3c-1.7-1.4-3.6-2.5-5.7-3.1c-0.8-0.2-1.6,0.4-1.8,1.2c-0.1,0.7,0.3,1.4,1,1.7c4.2,1.2,7.1,4.7,9.3,8.3
		c2.5,4.1,4.7,8.4,6.9,12.7c4.5,8.8,8.8,17.8,13.2,26.7c8.8,17.7,18.3,35.1,31.2,50.2c1.5,1.8,3.1,3.7,2.8,6.2s-1.5,5.3-2.5,7.7
		c-1.9,4.7-4.4,9.2-7.5,13.2c-1.5,1.8-3.3,3.4-5.7,3.6c-2.4,0.1-4.8-0.6-6.8-1.9c-4-2.4-7.7-5.2-11.1-8.5
		c-13.4-12.4-22.5-29.1-27.3-46.6c-5.8-21.2-5.4-43.7-2-65.2c0.4-2.7,0.9-5.3,1.4-8C91.9,264,89,263.2,88.7,265.1L88.7,265.1z"/>
</g>
<g id="flor_cabeça">
	<path fill="#FFFCD3" d="M333.4,446.1c15.2,4.6,37.6,10.8,52.8,15.4l17.8,5.4c2.7,0.8,5.6,1.7,8.3,0.9c3.4-1,5.6-4.1,7.3-7.2
		c7.9-14,11.3-30.2,10.9-46.2s-4.4-31.8-10.7-46.6c-7.1-16.7-18.4-33.1-35.6-38.8c-9.1-3-20.1-2.1-29.5-1.4c-5.2,0.3-10.4,1-15.6,2
		c-2,0.2-3.9,0.8-5.8,1.5c-2.6,1.3-4.7,4.9-6.3,7.3c-4.7,7.2-7.8,15.3-9.3,23.8c-2.2,11.5-1.6,23.5,0.2,35.1
		c0.3,2.4,0.9,4.8,1.5,7.1c0.8,2.3,1.8,4.6,2.6,6.9c2.8,7.7,4.1,16.1,7,23.5c1.3,3.5,1.8,6.8,4,10
		C333.6,445.4,333.9,446.5,333.4,446.1"/>
	<path fill="#FFECA1" d="M332.9,447.5c12.3,3.7,24.6,7.2,36.9,10.8c6.1,1.8,12.2,3.6,18.2,5.4l11.3,3.4c3.5,1.1,7.3,2.7,11.1,2.5
		c7-0.4,10.5-7.8,13.1-13.3c3-6.4,5.2-13.1,6.6-20c2.8-14.4,2.5-29.1-0.6-43.4c-2.8-13.7-7.8-26.8-14.8-38.8
		c-6.1-10.3-14.6-19.9-25.7-24.9c-6.2-2.6-12.8-3.9-19.5-3.8c-7.3,0-14.5,0.5-21.8,1.4c-3.6,0.4-7.2,1.1-10.8,1.8
		c-3,0.4-5.8,2-7.7,4.3c-4.2,5.3-7.6,11.3-9.8,17.7c-5.3,14.3-5.3,29.9-3.2,44.8c0.4,3.8,1.3,7.6,2.5,11.2c1.3,3.4,2.7,6.8,3.7,10.3
		s1.9,7.1,2.8,10.6s2.2,6.8,3.3,10.2c0.5,1.6,1,3.2,1.6,4.8c0.3,0.8,0.7,1.6,1.1,2.3c0.2,0.3,0.5,0.7,0.6,1c0,0.1,0.1,0.6,0.1,0.4
		l1.1-1.4H333l1.5,0.4l-0.2-0.1c-1.5-1.2-3.6,0.9-2.1,2.1c0.4,0.4,1.1,0.6,1.7,0.5c0.6-0.2,1.1-0.8,1.1-1.5c0.1-1.3-1.1-2.6-1.6-3.7
		c-0.7-1.5-1.3-3.1-1.8-4.8c-1-3.2-2.3-6.4-3.2-9.7c-2-6.9-3.5-13.8-6.2-20.5s-3.5-14-4.1-21.2c-0.6-7.6-0.4-15.2,0.8-22.7
		c1.1-6.8,3.3-13.3,6.5-19.4c1.5-2.9,3.2-5.7,5.1-8.3c0.7-1.1,1.7-2.1,2.7-3c1.3-0.8,2.8-1.3,4.3-1.5c7-1.3,14-2.2,21.1-2.6
		c6.7-0.5,13.6-0.8,20.3,0.4c11.8,2.1,21.4,10,28.4,19.4c7.6,10.2,12.7,22.3,16.4,34.4c4.3,13.7,6,28.1,4.9,42.4
		c-0.6,6.8-1.9,13.4-4,19.9c-1.1,3.3-2.3,6.5-3.8,9.7c-1.3,3-2.9,5.8-4.8,8.4c-0.8,1.1-1.9,2-3.1,2.6c-1.7,0.7-3.5,0.8-5.3,0.4
		c-3.6-0.8-7.2-2.1-10.7-3.2c-6.3-1.9-12.7-3.9-19-5.7c-12-3.5-24.1-6.9-36.2-10.5c-2.7-0.8-5.3-1.6-7.9-2.4
		C331.9,444.1,331.1,447,332.9,447.5L332.9,447.5z"/>
	<path fill="#FFFCD3" d="M333,331.3c-4.1,2.1-6.6,6.2-8.7,10.3c-9.3,19.1-11.2,41-5.2,61.3c1.7,5.7,3,12.5,5.3,18
		c3.2,7.7,5,17.7,8.3,25.4"/>
	<path fill="#FFECA1" d="M332.3,330.1c-3.3,1.9-5.9,4.7-7.7,8c-2,3.5-3.6,7.1-5,10.9c-5.7,15.5-6.9,32.4-3.3,48.6
		c0.9,4,2.1,7.8,3.1,11.8c1,4.1,2.2,8,3.7,11.9c3.4,8.3,4.9,17.3,8.3,25.6c0.7,1.8,3.6,1,2.9-0.8c-3-7.2-4.5-14.9-7-22.3
		c-1.3-3.6-2.7-7.1-3.8-10.8s-2.1-7.7-3.1-11.6c-4.3-15.4-4.1-31.8,0.7-47.1c1.3-4.3,3-8.4,5-12.4c1.8-3.7,4.1-7.3,7.8-9.2
		C335.6,331.7,334.1,329.1,332.3,330.1L332.3,330.1z"/>
	<path fill="#FFFCD3" d="M407.4,347.1c16.3,0.4,34-1.7,47.7,7.2c3.1,2.2,6.1,4.6,8.8,7.3c8.5,7.9,17.2,16,22.8,26.2
		c3.7,6.8,6,14.3,8,21.7c3.7,13.4,6.7,27.4,4.8,41.2s-9.7,27.5-22.5,33.1c-8.4,3.7-18,3.5-27.1,2c-11.6-1.9-23.3-6-32.3-13.9
		c-1.2-0.9-2.3-1.9-3.2-3.1c-1.1-1.7-0.5-2,0.6-3.6c1.8-2.8,3.5-5.7,5.1-8.6c3.2-6,5.9-12.3,8-18.9c1.1-3.4,1.9-6.9,2.4-10.4
		c0.4-4.2,0.5-8.4,0.3-12.7c-0.1-6.4-0.5-12.7-1.2-19c-2.5-18.1-10.3-35.1-22.4-48.7"/>
	<path fill="#FFECA1" d="M407.4,348.6c12.3,0.3,25-1,37,2.5c6,1.9,11.5,5.1,16,9.4c4.8,4.4,9.7,8.8,14.1,13.6
		c4.5,4.7,8.4,9.9,11.5,15.6c2.9,6,5.2,12.3,6.9,18.8c3.8,13.6,7.2,28.1,5.1,42.3c-1.6,10.7-6.7,21.7-15.7,28.2
		c-10.5,7.7-24.3,7-36.4,4.4c-6.2-1.3-12.2-3.4-17.8-6.3c-2.7-1.4-5.3-3.1-7.7-5c-1.2-1-2.4-1.9-3.5-3c-0.6-0.4-1-1-1.3-1.6
		c-0.2-0.5,0-0.5,0.4-1.1c3.9-5.8,7.3-12,10-18.5c2.7-6.3,5-12.9,6-19.7c1-7.1,0.5-14.4,0.1-21.6c-0.2-6.8-1.1-13.6-2.6-20.2
		c-2.9-12.1-8.1-23.5-15.4-33.6c-1.8-2.5-3.7-4.9-5.8-7.2c-1.3-1.5-3.4,0.7-2.1,2.1c8.6,9.8,15.1,21.3,18.9,33.8
		c1.9,6.4,3.2,13,3.7,19.7c0.3,3.7,0.4,7.5,0.5,11.2s0.3,7.5,0.1,11.2c-0.4,7.2-2.7,14.2-5.3,20.9c-2.7,6.7-6,13.2-10,19.2
		c-0.7,1-1.7,2-1.7,3.3c0,1.5,1.1,2.8,2,3.8c2.3,2.2,4.8,4.2,7.5,6c5.4,3.5,11.4,6.2,17.6,7.9c12.4,3.6,27,5.5,39.1-0.1
		c10.5-4.9,17.5-15.2,20.8-26c4-13.4,2.2-27.8-1-41.3s-7-27.2-15.5-38.4c-4.1-5.2-8.6-10.1-13.4-14.5c-4.9-4.6-9.7-9.6-15.6-12.9
		c-11.1-6.2-24.4-6.1-36.7-6c-3.2,0-6.4,0-9.6-0.1C405.5,345.7,405.5,348.7,407.4,348.6L407.4,348.6z"/>
	<path fill="#FFFCD3" d="M267.7,452.7c2.6-0.1,5.2-0.3,7.8-0.5c15.1-1.2,30.1-3.6,45.2-4.9c2-0.2,4.1-0.3,6.2-0.5
		c1.3-0.1,4.4,0.3,5.5-0.3c1.7-0.9-1.3-7.3-2-9.4c-2.5-7.9-5.2-15.8-8.1-23.5c-1-2.5-1.9-5.1-2.7-7.8c-0.8-3.3-1.4-6.7-1.7-10.2
		c-0.4-4-0.9-7.9-1-11.9c-0.5-11.2,1.2-22.4,5.1-33c1.5-4,3.4-7.8,4.8-11.8c1.1-3.3-0.7-4.8-3.2-7c-4.8-4.3-11-6.4-17.2-7.9
		c-8.6-2.2-17.6-2.2-26.4-2c-16.4,0.4-33.6,2.1-47.2,11.3c-17.2,11.6-25.5,33.7-23.6,54.3s13.1,39.6,27.7,54.3
		c3.4,3.5,7.1,6.8,11.6,8.7C254.4,453.3,261.2,453,267.7,452.7z"/>
	<path fill="#FFECA1" d="M267.7,454.2c17.1-0.8,34-3.6,51-5.3c3.6-0.4,7.2-0.6,10.8-0.6c2.4,0.1,4.9-0.3,4.8-3.2
		c-0.1-2.4-1.2-4.7-2-6.8c-1.2-3.2-2.2-6.4-3.2-9.7c-1.3-4-2.7-8-4.2-12c-1.6-3.9-3-7.8-4.2-11.9c-0.9-4-1.5-8.1-1.8-12.2
		c-0.5-4.1-0.7-8.2-0.8-12.3c0-8.1,1.1-16.2,3.4-24c1.2-3.9,2.7-7.8,4.3-11.5c1.3-3,3.5-6.8,2-10c-0.7-1.3-1.6-2.4-2.7-3.2
		c-1.3-1.2-2.7-2.3-4.2-3.3c-3-1.9-6.3-3.4-9.8-4.4c-7.7-2.3-15.6-3.4-23.6-3.4c-7.6-0.1-15.1,0.2-22.7,1
		c-7.3,0.7-14.4,2.2-21.3,4.7c-12.5,4.6-22.9,13.6-29.1,25.5c-6,11.5-8.4,24.5-6.9,37.4c1.6,14,7.2,27.3,15.3,38.9
		c4.1,5.9,8.7,11.3,13.8,16.3c2.6,2.7,5.5,5,8.7,6.8c3.4,1.8,7,2.8,10.8,3.2C260.1,454.4,263.9,454.4,267.7,454.2
		c1.9-0.1,1.9-3.1,0-3c-7.4,0.3-15.1,0.6-21.7-3.3c-3-1.9-5.8-4.3-8.3-6.9c-2.4-2.4-4.7-5-6.9-7.6c-8.6-10.4-15.3-22.5-18.6-35.7
		c-3.1-12.2-2.6-25,1.5-36.9c4-11.5,11.7-21.8,22.4-27.9c12.1-7,26.5-8.7,40.3-9.2c7.8-0.3,15.7-0.5,23.4,0.7
		c6.8,1,14.1,2.9,19.9,6.7c1.3,0.9,2.6,1.9,3.8,3.1c0.9,0.8,2,1.8,2,3.1c0,1.6-1,3.5-1.6,4.9c-0.8,1.9-1.6,3.8-2.4,5.7
		c-2.9,7-4.7,14.4-5.6,22c-0.9,11.7-0.3,23.5,1.9,35.1c1,3.7,2.2,7.4,3.7,10.9c2.8,7.3,5,14.8,7.6,22.2c0.9,2.1,1.6,4.3,2.2,6.5
		c0,0.4,0,0.8,0.1,1.1v-0.1c-0.1,0.3,0,0.2,0.1-0.2c-0.2-0.3,0.6,0.3-0.2,0c-0.6-0.1-1.2-0.1-1.8,0c-0.7,0-1.5-0.1-2.2-0.1
		c-3.7,0-7.4,0.6-11,0.9c-4.1,0.4-8.2,0.9-12.3,1.4c-8.2,1-16.4,2.1-24.6,2.8c-3.9,0.4-7.8,0.6-11.7,0.8
		C265.8,451.3,265.8,454.3,267.7,454.2z"/>
	<path fill="#FFFCD3" d="M223.4,338.8c-16.2-6.9-32-5.4-48.5,0.6c-3.4,1.2-8.4,3.1-11.5,5.1c-8.2,5.4-12.3,11.8-15.4,21.2
		c-2.8,8.4-3.4,18-3.7,26.9c-0.2,6.8,1.4,14.7,3,21.3c3.6,15,11.4,28.7,22.6,39.3l13.4,7.9c2.9,1.5,6.3,2.7,8.8,3.8
		c4.5,2.1,8.1,2.3,13,1.3c10.8-2.3,16.2-3.8,26.4-8.1c2.6-1.1,8.9-3.7,11.5-4.9c2.3-1.1,5.3-1.3,2.7-3.5c-4.3-3.6-11-9.5-14-13.4
		c-10.5-13.7-18.5-29.4-22.2-46.3s4.9-36.2,13.6-51.2"/>
	<path fill="#FFECA1" d="M224.1,337.5c-7.2-3.1-14.9-4.7-22.7-4.8c-7.8,0.1-15.5,1.3-22.9,3.8c-6.4,2-13,4.3-18.4,8.4
		c-4.7,3.6-8.5,8.3-11,13.7c-2.9,6.5-4.8,13.4-5.5,20.5c-0.8,7.4-1.3,14.9-0.3,22.3c1.8,13.8,6.1,27.3,13.9,38.9
		c1.9,2.8,3.9,5.5,6.1,8c1.1,1.3,2.3,2.6,3.5,3.9c0.7,0.9,1.5,1.6,2.4,2.3c2.7,1.8,5.6,3.3,8.4,5l4.2,2.5c1.8,1,3.7,1.9,5.6,2.6
		c3.2,1.3,6.3,3,9.8,3.5s7.1-0.2,10.6-1c6.3-1.3,12.5-3.1,18.5-5.3c5.5-2.1,10.9-4.4,16.3-6.8c1.8-0.8,5.8-1.6,5.3-4.2
		c-0.3-1.3-1.5-2.2-2.5-3c-1.2-1-2.4-2.1-3.6-3.1c-2.4-2.2-4.8-4.3-7-6.7c-2.1-2.4-4.1-4.9-5.8-7.5c-8.5-12-14.6-25.6-18-39.9
		c-3.2-14.3,2-29,8.3-41.7c1.6-3.1,3.2-6.2,5-9.2c0.4-0.7,0.2-1.6-0.5-2.1c-0.7-0.4-1.6-0.2-2.1,0.5c-7,12-13.3,25.3-14.5,39.3
		c-0.6,6.9,0.6,13.5,2.5,20.1c2,6.7,4.6,13.3,7.8,19.5c3.2,6.3,7,12.3,11.2,18c3.7,4.9,8,9.3,12.7,13.2c1,0.9,2,1.7,3,2.5l0.6,0.5
		l0.2-0.8c-0.1,0.1-0.3,0.2-0.4,0.2c-0.7,0.3-1.4,0.5-2.1,0.8c-2.4,1-4.8,2.1-7.2,3.1c-5.4,2.3-10.8,4.7-16.5,6.4
		c-2.8,0.9-5.7,1.6-8.5,2.3c-3.5,0.8-7,1.9-10.6,1.9s-6.5-1.4-9.6-2.7c-2.3-0.8-4.5-1.8-6.6-2.9c-2.9-1.6-5.7-3.4-8.5-5.1l-4-2.4
		c-1.7-1-3-2.8-4.3-4.2c-8.7-9.6-14.9-21.2-18.1-33.8c-1.8-6.9-3.3-14.1-3.2-21.3c0-7.3,0.8-14.6,2.2-21.8c1.2-6.1,3.7-11.9,7.1-17
		c3.6-4.9,8.4-8.7,14-11c13.3-5.8,28.2-9.3,42.6-6.5c3.7,0.7,7.3,1.9,10.8,3.3c0.7,0.4,1.6,0.1,2-0.5
		C225,338.9,224.7,338,224.1,337.5L224.1,337.5z"/>
	<path fill="#FFFCD3" d="M145.5,405c-6.5-54.3,21.3-59.9,18.7-62l0,0c-3.2,0-6.3,0.3-9.4,0.9c-12.7,2.2-24.1,9.1-32,19.3
		c-7.1,9.5-10.6,21.2-12.5,33c-2.6,16.5-1.8,34.3,6.3,48.9c5.2,9.5,11.7,18.1,19.5,25.7c3.6,3.4,8.7,5.4,13.5,6.5
		c2.8,0.5,5.7,0.6,8.5,0.2c9-1,17.9-3,26.6-5.8c4.3-1.3,8.6-2.8,12.8-4.5C201.4,465.6,152.6,463.5,145.5,405z"/>
	<path fill="#FFECA1" d="M147,405c-1.7-14.4-2-30.4,4.3-43.9c1.7-3.6,3.9-7,6.6-9.9c1-1.1,2.1-2.1,3.2-3c0.5-0.4,0.9-0.7,1.4-1.1
		l0.3-0.2l0.6-0.5c1.1-0.9,3.9-2.8,1.9-4.4l-1.5,2.5l0,0l0.4-3c-13.6,0-26.7,5.1-36.7,14.3c-10.2,9.4-15.4,22.8-17.9,36.2
		c-2.6,13.7-3.1,28.1,0.8,41.6c2.1,6.8,5.2,13.2,9.1,19.1c3.9,6.1,8.4,11.8,13.4,17c2.3,2.4,4.9,4.5,7.8,6.1
		c3.1,1.6,6.4,2.7,9.9,3.3c3.9,0.6,7.9,0,11.7-0.6s7.5-1.3,11.3-2.1c7.7-1.8,15.2-4.2,22.5-7c1-0.4,2.7-0.7,3.1-1.9
		c0.2-0.8-0.3-1.6-1-1.9c-1-0.4-2-0.8-3-1c-1.7-0.5-3.4-1-5.1-1.6c-5.1-1.8-9.9-4.2-14.4-7.1c-14.7-9.6-23.6-25.1-27.2-42
		c-0.6-2.9-1.1-5.8-1.5-8.7c-0.2-1.9-3.2-1.9-3,0c2.2,18.3,9.3,36.1,23.5,48.3c7.9,6.8,17.1,11.1,27,14.1l1.5,0.5l0.6,0.2
		c0.4,0.1-0.3-0.2,0.1,0c0.2,0.1,0,0.1-0.2-0.2c0.1,0.1-0.3-0.5-0.3-0.6c-0.1-0.5,0-1,0.4-1.4c-0.1,0.1,0.3-0.4,0.2-0.2l-0.2,0.1
		l-1.4,0.5l-2.3,0.8c-2,0.7-4,1.4-6,2.1c-7.1,2.4-14.4,4.2-21.8,5.6c-3.8,0.8-7.6,1.2-11.4,1.3c-3.3-0.1-6.6-0.9-9.7-2.2
		c-6.4-2.6-11-8.2-15.3-13.4c-4.3-5.4-8.1-11.2-11.4-17.4c-6.3-12-7.6-26-6.4-39.4s4.4-27.3,12.2-38.5c9.6-13.1,24.9-20.8,41.1-20.9
		c0.8,0,1.5-0.7,1.5-1.6c0-0.6-0.4-1.2-1.1-1.4l0,0c-1.3-0.3-2.7,1.5-1.5,2.5c0.2,0.2-0.2-0.4-0.2-0.5c0-0.2,0-0.4,0-0.6
		c0-0.1,0.4-0.5,0-0.2l-0.6,0.6c-0.4,0.3,0.1-0.1-0.2,0.1l-0.5,0.4c-2.1,1.6-4.1,3.3-5.9,5.2c-6.8,7.3-10.3,17-11.7,26.7
		c-1.3,9.7-1.3,19.5,0,29.2C144.3,406.9,147.3,406.9,147,405z"/>
</g>
<g id="Camada_16">
	<path opacity="0.51" fill="#E0DBA9" stroke="#FFECA1" stroke-miterlimit="10" enable-background="new    " d="M144.2,475.7
		c3.9-1.4,22.7-17.1,31.8-18c48.5-4.8,45-16,60.7-15.7c52.6,1.3,70.5-7.5,92.4-7.2c23.2,0.3,67.1,22.2,87.9,29.9
		c41.2,15.3,69.1,13,69.1,13s-1.7,11.8-36.2,8c-30.2-3.4-27.2-13.4-37.1-14.9c-18-2.7-64.8-22.2-80-22.5
		c-39.1-0.8-80.1,4.5-86.4,6.5c-37.7,12.1-48.5,12.7-61.8,16.8C156.9,480.4,134.6,479.1,144.2,475.7z"/>
	<path fill="#E0DBA9" d="M435.4,347.1l51.9-53.1c8.1-8.4,16.4-16.9,21.1-27.6c2-4.1,3-8.7,2.8-13.3c-0.6-8.1-6.1-15.4-5.6-23.5
		c0.5-9,8.5-17,6.9-25.9c-0.3-1.7-1.1-3.5-2.6-4.2c-3.6-1.7-6.7,3-7.9,6.8c-8,24.5-18.2,48.1-30.6,70.7c-10,18.2-21.5,35.8-36.7,50
		c-5.4,5.1-11.3,9.7-16.9,14.5c-0.8,0.7-1.7,1.6-1.7,2.6c0,1.4,1.5,2.2,2.8,2.7c4.6,1.8,9.4,3.1,14.3,3.8"/>
	<path fill="#FFECA1" d="M436.4,348.1l29.8-30.4c9.5-9.8,19.3-19.4,28.6-29.4c4.1-4.3,7.8-9,11.1-14c3.3-5.3,6.2-11.3,6.8-17.5
		c0.6-6.3-1.8-11.7-3.8-17.4c-1.1-2.7-1.7-5.6-1.8-8.6c0-2.6,0.6-5.3,1.6-7.7c1.9-5,4.8-9.7,5.4-15.1c0.4-2.5,0.1-5.1-1-7.4
		c-1.1-2.2-3.5-3.4-5.9-2.9c-2.3,0.6-4,2.7-5.2,4.7c-1.5,2.6-2.2,5.5-3.1,8.3c-2.1,6.2-4.4,12.3-6.8,18.4
		c-4.9,12.4-10.4,24.6-16.5,36.5c-5.7,11.3-12.1,22.3-19.1,32.9c-6.8,10.3-14.9,19.8-23.9,28.3c-5,4.5-10.2,8.7-15.3,13.1
		c-2,1.7-3.8,4.2-1.6,6.6c0.8,0.8,1.8,1.4,2.9,1.8c1.6,0.6,3.2,1.2,4.8,1.7c3.1,0.9,6.3,1.6,9.5,2.1c1.9,0.3,2.7-2.6,0.8-2.9
		c-3.2-0.5-6.4-1.2-9.5-2.1c-1.3-0.4-2.7-0.8-4-1.3c-0.7-0.3-2.8-0.8-2.5-1.9c0.1-0.5,0.8-1,1.2-1.3c0.6-0.5,1.2-1,1.8-1.5
		c1.2-1,2.4-2,3.6-3c2.5-2.1,5-4.2,7.4-6.3c9-7.9,17-16.8,23.9-26.5c6.8-9.7,13.1-19.8,18.6-30.3c6-11.1,11.5-22.5,16.4-34.1
		c2.5-5.8,4.9-11.8,7.1-17.7c1.1-2.9,2.1-5.8,3.2-8.8s1.8-6,3-8.8c0.7-1.7,2.1-4.4,4.1-4.8c2.4-0.5,3.1,2.8,3.2,4.5
		c0.3,5.1-2.3,9.8-4.3,14.3c-2.1,4.9-3.5,9.8-2.5,15.1s3.8,10.5,4.9,16c1.2,6.2-0.7,12.3-3.5,17.7c-2.7,5.1-6,9.8-9.9,14.1
		c-3.9,4.5-8.1,8.7-12.3,13l-14.3,14.6l-28.2,28.8l-7,7.1C432.8,347.4,434.9,349.5,436.4,348.1L436.4,348.1z"/>
	<path fill="#E0DBA9" d="M426.1,42.1c10.2,19.4,10.5,42.2,10.5,64.1c0,15.4,0,31.2-5.5,45.6c1.5-6.5,0.7-13.3-0.2-19.9
		c-3.6-27.2-7.8-54.3-12.6-81.4c-0.3-1.8-0.6-3.7,0.3-5.3s3.5-2.2,4.5-0.7"/>
	<path fill="#FFECA1" d="M424.8,42.9c6.5,12.5,8.9,26.6,9.8,40.5c0.4,7.1,0.5,14.3,0.5,21.5c0,7.3,0,14.7-0.5,22
		c-0.5,8.4-2.1,16.6-4.9,24.5l2.9,0.8c1.6-7.1,0.7-14.4-0.3-21.5c-1-7.4-2-14.9-3.1-22.3c-2.1-14.7-4.5-29.4-7-44.1
		c-0.7-4.1-1.4-8.2-2.1-12.2c-0.3-1.7-1-4-0.4-5.7c0.3-0.9,1.5-1.8,2.3-0.8c0.6,0.6,1.5,0.6,2.1,0c0.6-0.6,0.6-1.5,0-2.1
		c-1.7-2.2-5.3-1.3-6.7,0.8c-1.9,2.9-0.5,7,0,10.1c1.4,7.8,2.7,15.6,4,23.5c2.5,15.7,4.9,31.4,7,47.1c1.2,8.6,3.2,17.9,1.2,26.5
		c-0.2,0.8,0.4,1.6,1.2,1.8c0.7,0.1,1.4-0.3,1.7-1c5.4-14.4,5.5-29.9,5.5-45.1c0-14.4-0.1-28.9-2.9-43.1c-1.5-7.9-4.1-15.5-7.8-22.7
		C426.4,39.7,423.8,41.2,424.8,42.9L424.8,42.9z"/>
</g>
<g id="sapato">
	<path fill="#715A00" d="M175.6,1008.4c8.7,1.9,17.7,0.8,25.7-3.1c1.6,5.5,3.5,10.9,5.8,16.2c2.4,5.4,5.3,10.8,10.1,14.2
		c3.5,2.5,8.3,4,9.8,8.1c1.7,4.4-1.6,9.2-5.1,12.4c-7.7,7.3-17,12.5-26.3,17.7l-18.1,10.1c-8.5,4.8-17.1,9.5-26.5,12.5
		c-15,4.7-31.1,4.3-45.9-1c-5.9-2.1-12-5.5-14.5-11.2c-1.3-3.2-1.7-6.6-1.3-10c1.4-16,13.8-29.3,28.4-36.1c14.5-6.8,31-8,47-8.5
		c10-0.3,20.2-0.3,29.6,3.1C187.9,1025.1,181.9,1016.1,175.6,1008.4z"/>
	<path fill="#715A00" d="M175.2,1009.8c9,1.9,18.5,0.8,26.8-3.2l-2.2-0.9c1.7,5.9,3.8,11.7,6.3,17.3c2.1,4.7,4.7,9.3,8.6,12.7
		c1.9,1.4,3.8,2.7,5.9,3.8c1.8,1,3.6,2.2,4.6,4.1c2.6,4.8-2.6,10-5.9,12.9c-8.7,7.8-19.2,13.1-29.3,18.7c-5.4,3-10.8,6-16.2,9
		c-5.3,3-10.7,5.7-16.3,8.2c-10.8,4.6-22.5,6.5-34.1,5.5c-5.8-0.5-11.6-1.7-17.1-3.6c-4.5-1.5-9-3.6-12.2-7.2c-3.7-4.1-4-9.8-3.1-15
		c0.8-4.6,2.4-9,4.9-13c5.1-8.2,12.5-14.8,21.2-19c10.3-5.1,21.8-7.2,33.1-8.2c5.8-0.5,11.6-0.7,17.4-0.9c5.9-0.3,11.9,0.1,17.8,0.9
		c2.9,0.5,5.7,1.2,8.4,2.2c1.5,0.6,2.3-1.5,1.5-2.5c-6.5-7.9-12.1-16.5-18.6-24.4c-1.2-1.5-3.3,0.6-2.1,2.1
		c6.5,7.9,12.1,16.5,18.6,24.4l1.5-2.5c-11.7-4.2-24.6-3.5-36.8-2.9c-12.2,0.6-24.4,2-35.9,6.3c-9.7,3.7-18.6,9.5-25.1,17.7
		c-6.2,7.9-10.8,18.7-8.8,28.8c2.2,11.2,14.6,15.6,24.4,17.9c11.9,2.8,24.2,2.6,36-0.5c12.2-3.2,23.2-9.8,34.1-15.9
		c5.6-3.1,11.3-6.3,16.9-9.4c5.3-2.9,10.4-6.1,15.4-9.5c4.5-3.3,9.5-7,12.3-11.9c1.4-2.3,2-5,1.6-7.6c-0.5-2.3-1.9-4.2-3.7-5.6
		c-1.9-1.4-3.9-2.6-5.9-3.7c-2.3-1.4-4.2-3.2-5.8-5.4c-3.4-4.7-5.7-10.3-7.7-15.7c-1.1-3-2.1-6-3-9.1c-0.2-0.8-1.1-1.3-1.9-1
		c-0.1,0-0.2,0.1-0.3,0.1c-7.6,3.7-16.2,4.7-24.5,2.9C174.1,1006.5,173.3,1009.4,175.2,1009.8z"/>
	<path fill="#715A00" d="M470,994.5c-7.8,4.3-16.7,5.9-25.5,4.4c0.1,5.7-0.2,11.5-0.9,17.2c-0.7,5.8-1.9,11.9-5.6,16.5
		c-2.7,3.4-6.7,6.3-7,10.6c-0.3,4.8,4.2,8.3,8.4,10.4c9.5,4.8,19.9,7.1,30.3,9.3l20.3,4.4c9.5,2.1,19.2,4.2,28.9,4.3
		c15.7,0.1,31.1-4.9,43.7-14.2c5-3.8,9.9-8.7,10.7-15c0.3-3.4-0.3-6.8-1.7-9.9c-6-14.9-21.7-24.1-37.6-26.4
		c-15.9-2.3-31.9,1.3-47.4,5.4c-9.6,2.6-19.5,5.5-27.5,11.5C463,1014.1,466.1,1003.7,470,994.5z"/>
	<path fill="#715A00" d="M469.2,993.2c-7.4,4.1-15.9,5.6-24.3,4.3c-0.8-0.2-1.7,0.3-1.9,1.1c0,0.1,0,0.2,0,0.3
		c0.1,6.6-0.3,13.1-1.2,19.6c-0.9,5.4-2.5,10.5-6.3,14.6c-3.2,3.5-7,7.2-5.8,12.4c1.1,5,6.2,8,10.4,10c11.2,5.3,23.5,7.5,35.5,10.2
		c12.8,2.8,25.8,6.3,38.9,7.2c11.6,0.8,23.3-1.2,34-5.7c5.3-2.2,10.4-5.1,15-8.6c4.2-3.1,8.1-6.8,10.1-11.7
		c4.1-10-2.7-21.4-9.8-28.3c-7.3-6.8-16.4-11.4-26.2-13.3c-12.3-2.5-25-1.2-37.2,1.4c-6.2,1.3-12.4,2.9-18.5,4.6
		c-5.6,1.5-11,3.5-16.3,6c-2.6,1.3-5,2.8-7.4,4.5l2.2,1.7c4-9.4,6.8-19.3,10.8-28.7c0.2-0.8-0.2-1.6-1-1.8c-0.8-0.2-1.6,0.2-1.8,1
		c-4,9.4-6.8,19.3-10.8,28.7c-0.5,1.2,1.2,2.4,2.2,1.7c9.2-6.8,20.4-9.7,31.3-12.5c12-3.1,24.2-5.5,36.6-4.8
		c9.9,0.4,19.5,3.4,27.8,8.8c4,2.6,7.4,5.8,10.3,9.6c2.9,4,5.5,8.9,5.9,13.8c0.4,5.3-2.2,9.7-5.8,13.3c-3.9,3.7-8.4,6.8-13.2,9.3
		c-9.7,5.1-20.4,7.9-31.3,8.2c-12.5,0.3-24.8-2.8-36.9-5.5c-11.7-2.6-23.8-4.6-35.1-8.5c-4.8-1.6-10.3-3.5-14.1-7.1
		c-1.7-1.4-2.7-3.4-2.9-5.6c0-2.3,1.5-4.2,3-5.9c1.7-1.7,3.2-3.5,4.7-5.4c1.4-2.2,2.6-4.6,3.3-7.2c1.6-5.4,2.1-11.2,2.4-16.8
		c0.2-3.1,0.2-6.2,0.2-9.3l-1.9,1.4c9.1,1.5,18.5-0.1,26.6-4.6C472.4,994.9,470.9,992.3,469.2,993.2z"/>
</g>
<g id="Camada_15">
	<path fill="#594505" stroke="#594505" stroke-miterlimit="10" d="M110.1,1097.1c0-1.3,10.5-8,48.2-14.7
		c38.2-6.8,43.4-11.8,43.4-11.8s-40.6,26.2-53.6,29.2C135.1,1102.8,110,1099.7,110.1,1097.1z"/>
	<path fill="#594505" stroke="#594505" stroke-miterlimit="10" d="M462.8,1061.4l52.9,3.5l41-3.5c-13.2,7.8-28.5,11.3-43.7,10
		C488.1,1069,462.8,1061.4,462.8,1061.4z"/>
	<path fill="#594505" stroke="#594505" stroke-miterlimit="10" d="M450.3,998.5c0,0,0.5,19.3-5.4,28c-5.9,8.7-11.7,10.7-11.7,16.6
		c0,5-0.7,6.6-0.7,6.6c-2.6-2.7-3.1-6.7-1.3-9.9c2.3-4.5,7.4-8.1,9.2-12.8c2.5-6.6,3.6-21,3.5-28.3
		C443.7,997.5,450.3,998.5,450.3,998.5z"/>
	<path fill="#594505" stroke="#594505" stroke-miterlimit="10" d="M201.9,1005.3c2.5,8.6,6,16.8,10.5,24.6c1.8,3.1,15,8.7,15.5,14.2
		c0.3,3.9-1.1,7.8-4,10.6c-2.9,2.9-3.6,3.1-3.6,3.1s8.5-4.8-0.7-14.9s-14.8-16.5-17.4-23C199.5,1013.3,201.4,1003.6,201.9,1005.3z"
		/>
</g>
<g id="Camada_8">
	<path fill="#ED1E79" d="M336.4,841.4c5.5-7.3,19.4-54.5,22.3-63.2c-15-8.8-31.2-15.7-48.6-16.1c-11.7-0.2-23.4,1.6-34.9,3.8
		c-7.1,1.4-15.3,5-21.5,8.5c1.8,9.9,4.6,19.1,7.8,28.7c4.2,12.7,9.3,25.3,17.6,35.8s20.4,20.1,33.8,19.4
		C319.8,858,328.3,853.5,336.4,841.4"/>
	<path fill="#9E005D" d="M337.6,842.1c1.8-2.5,3-5.6,4.1-8.5c1.8-4.6,3.5-9.2,5.1-13.9c3.5-10.1,6.7-20.4,9.9-30.6
		c1.1-3.5,2.2-7.1,3.3-10.6c0.2-0.7-0.1-1.3-0.7-1.7c-12.3-7.2-25.5-13.3-39.7-15.4c-15-2.3-30.6,0.1-45.4,3.1
		c-7.5,1.6-14.8,4.9-21.5,8.6c-0.6,0.4-0.9,1-0.7,1.7c1.9,10.7,5.2,21.1,8.8,31.3c3.3,9.4,7,18.8,12.4,27.3
		c5.1,7.9,11.7,15.3,19.6,20.4c6.8,4.4,15.5,7.3,23.7,5.4C325.7,857.2,332.6,849.6,337.6,842.1c1-1.6-1.6-3.1-2.6-1.5
		c-4.3,6.4-10.1,13-17.7,15.4c-7.3,2.3-15.3-0.1-21.7-4c-16.2-9.8-25.1-27.6-31.2-44.8c-3.8-10.8-7.4-21.9-9.4-33.2l-0.7,1.7
		c5.9-3.4,12.2-6,18.8-7.8c3.5-0.9,7-1.4,10.6-2c3.7-0.6,7.5-1.2,11.2-1.6c7.4-0.9,14.8-1,22.2-0.2c6.7,0.9,13.3,2.5,19.6,5
		c7.3,2.9,14.4,6.3,21.2,10.4l-0.7-1.7c-2.6,7.6-4.8,15.3-7.2,23c-3.2,10.2-6.5,20.3-10.3,30.3c-1.3,3.2-2.5,6.8-4.6,9.6
		C333.8,842.2,336.4,843.6,337.6,842.1L337.6,842.1z"/>
	<ellipse stroke="#000000" stroke-width="3" stroke-miterlimit="10" cx="196.4" cy="667.5" rx="20.4" ry="42.9"/>
	
		<ellipse transform="matrix(0.9889 -0.1488 0.1488 0.9889 -93.1519 66.4976)" stroke="#000000" stroke-width="3" stroke-miterlimit="10" cx="397.7" cy="655.6" rx="20.4" ry="42.9"/>
	<circle fill="#FFFFFF" stroke="#FFFFFF" stroke-width="3" stroke-miterlimit="10" cx="205.4" cy="684.1" r="7.2"/>
	<circle fill="#FFFFFF" stroke="#FFFFFF" stroke-width="3" stroke-miterlimit="10" cx="408" cy="679.5" r="7.2"/>
	<circle fill="#FFFFFF" stroke="#FFFFFF" stroke-width="3" stroke-miterlimit="10" cx="186.8" cy="642.2" r="3.2"/>
	<circle fill="#FFFFFF" stroke="#FFFFFF" stroke-width="3" stroke-miterlimit="10" cx="382.2" cy="639" r="3.2"/>
	<path fill="#FF5DA6" d="M265.3,809.4c0.8-6.4,3.7-14.2,11.5-18.8c16.9-10.1,37.8-11.2,55.7-2.9c2.6,1.1,5,2.6,7.2,4.4
		c4.5,4.1,7.1,9.9,7.1,16c0.1,19.6-11.9,36.5-16.8,40.8c-2.7,2.4-5.6,4.5-8.7,6.3c-2.8,1.4-5.8,2.1-8.9,2c-8.1,0-15.8-3.6-22-8.7
		c-5.8-4.6-10.9-10.1-15-16.2c-1.4-2-3.5-6-4.6-8.1C268.1,819.5,265.4,814.7,265.3,809.4z"/>
	<path fill="#9E005D" d="M266.8,809.4c0.9-6.7,4.1-13.2,9.8-17c7.1-4.5,15.1-7.4,23.4-8.3c8.2-1,16.5-0.3,24.4,2.1
		c4,1.1,7.9,2.8,11.5,5c3.5,2.2,6.2,5.4,7.7,9.2c1.4,3.8,1.9,7.8,1.4,11.8c-0.4,4-1.1,7.9-2.3,11.7c-2,6.5-5.1,12.6-9,18.2
		c-3.3,4.6-7.6,8.5-12.5,11.3c-7.3,4.3-16.9,1.9-23.8-2s-13-9.7-17.9-16c-2.2-2.9-4.3-6-6-9.2c-2-3.4-3.8-6.9-5.3-10.6
		c-0.8-2-1.3-4.2-1.4-6.4c-0.1-1.9-3.1-1.9-3,0c0.2,4.7,2.1,9,4.3,13.2c1.8,3.3,3.5,6.8,5.5,10c4.7,7.1,10.6,13.4,17.5,18.5
		c7.1,5.3,16.2,8.7,25,7.4c4.5-0.7,8.2-3.2,11.8-5.9c2.1-1.6,4.1-3.4,5.8-5.4c4.2-5.2,7.6-11.1,10.1-17.3c1.6-3.9,2.7-7.9,3.5-12.1
		c0.9-4.3,1.1-8.7,0.5-13.1c-0.7-4.2-2.5-8.1-5.2-11.4c-2.9-3.4-6.9-5.6-11-7.4c-16.7-7.2-35.7-6.6-51.8,1.6
		c-3.8,1.9-7.4,4.2-10.1,7.5c-2.3,2.9-4,6.2-4.9,9.7c-0.4,1.6-0.8,3.3-1,4.9c-0.1,0.8,0.8,1.5,1.5,1.5
		C266,810.9,266.7,810.3,266.8,809.4z"/>
</g>
<g id="Camada_10">
	<path fill="#281A0F" d="M772.2,782.5c-4.5-28.6-16.7-55.3-26.9-82.3c-10.1-26.8-18.4-54.2-26.6-81.6c-1.7-5.6-3.4-11.4-3.6-17.3
		c-0.1-5.1,1-10.1,1.9-15.2c4.4-23.9,5.5-48.4,3.1-72.6c-0.2-2.3-0.9-5.1-3.2-5.5c-8,13.3-9.2,29.5-8.7,45.1
		c0.3,9.1,0.8,19.3-5.2,26.1c-1.5-9.2-4-19.6-12.3-23.8c6.3,24.3,13,48.5,20.1,72.6c-9.1-7.7-18.6-15-28.3-21.8
		c-4.3-3-9.3-6.1-14.4-5l25.4,23c8.2,7.4,16.6,15,22.4,24.5c12.4,20.1,11.8,45.8,22.7,66.7c2.7,5.1,5.9,9.8,8.4,15
		c4.3,9.1,5.9,19.2,8.6,28.9C758.3,768.7,764.1,776.9,772.2,782.5z"/>
	<path fill="#42210B" d="M773.6,782.1c-2.9-18.2-8.8-35.6-15.4-52.8c-6.7-17.6-13.8-35-19.8-52.8c-6.2-18.4-11.9-36.9-17.4-55.5
		c-1.5-4.5-2.7-9-3.7-13.7c-0.8-4.7-0.8-9.6,0-14.3c0.8-4.7,1.7-9.4,2.5-14.1s1.3-9.4,1.8-14.1c1-9.5,1.4-19.1,1.3-28.7
		c-0.1-4.8-0.2-9.6-0.5-14.4c-0.2-2.4-0.3-4.8-0.6-7.2c-0.1-1.8-0.4-3.5-1.1-5.1c-0.6-1.4-1.8-2.5-3.3-2.9c-0.7-0.2-1.3,0.1-1.7,0.7
		c-5.1,8.5-7.5,18.2-8.5,28c-0.5,5-0.6,10-0.5,15c0.1,4.6,0.4,9.3,0.1,13.9c-0.3,5-1.5,10-4.8,13.9l2.5,0.7c-1.6-9.2-4-20-13-24.8
		c-0.7-0.4-1.7-0.1-2.1,0.6c-0.2,0.3-0.2,0.7-0.1,1.1c4.9,18.9,10,37.7,15.4,56.5c1.5,5.4,3.1,10.8,4.7,16.2l2.5-1.5
		c-7-5.9-14.2-11.6-21.6-17c-3.5-2.7-7.2-5.3-10.9-7.6c-3.6-2.1-7.5-3.4-11.7-2.7c-0.8,0.2-1.3,1.1-1,1.9c0.1,0.2,0.2,0.5,0.4,0.6
		l18.2,16.4c5.5,5,11.2,9.9,16.5,15.1c5.2,4.9,9.7,10.3,13.5,16.4c3.4,5.8,6,12.1,7.8,18.6c3.8,12.8,5.8,26.1,10.6,38.6
		c2.5,6.7,6.1,12.7,9.7,18.9c3.5,6.4,6.1,13.3,7.8,20.5c1.9,7.4,3.2,15.1,6.9,21.9c3.3,6.1,8,11.3,13.6,15.3
		c1.6,1.2,3.1-1.5,1.5-2.6c-5-3.6-9.2-8.3-12.3-13.7c-3.3-6-4.7-12.7-6.3-19.3c-1.7-7-3.6-14.1-7-20.5s-7.4-12.3-10.2-19
		c-5.1-12.3-7.1-25.6-10.7-38.3c-1.7-6.4-4-12.6-7-18.5c-3.3-6.1-7.5-11.8-12.3-16.8c-5.6-5.9-11.8-11.3-17.8-16.7l-20.2-18.3
		l-0.7,2.5c3.9-0.7,7.7,1.2,10.9,3.2c3.6,2.3,6.9,4.8,10.3,7.3c6.9,5.1,13.6,10.4,20.1,15.9c0.6,0.6,1.6,0.5,2.1-0.1
		c0.3-0.4,0.5-0.9,0.4-1.4c-5.5-18.7-10.8-37.5-15.8-56.4c-1.4-5.4-2.9-10.8-4.3-16.3l-2.2,1.7c8.2,4.3,10.2,14.6,11.6,23
		c0.2,0.8,1.1,1.3,1.9,1c0.2-0.1,0.5-0.2,0.6-0.4c6.2-7.2,6-17,5.7-25.9c-0.3-10-0.2-20.1,2.2-29.9c1.3-5.5,3.4-10.8,6.3-15.6
		l-1.7,0.7c1.5,0.4,1.8,2.3,2,3.6c0.3,2.2,0.4,4.4,0.6,6.6c0.4,4.8,0.6,9.6,0.7,14.3c0.2,9.4-0.2,18.8-1,28.2
		c-0.8,9.5-2.4,18.9-4.1,28.3c-0.9,4.5-1.2,9.1-0.9,13.7c0.6,4.5,1.6,9,3,13.3c5.4,18.2,11,36.4,17,54.5c5.9,17.7,12.6,35,19.4,52.4
		c6.6,16.8,12.9,33.9,16.4,51.7c0.4,2.3,0.8,4.5,1.2,6.8C771,784.9,773.9,784.1,773.6,782.1z"/>
</g>
<g id="Camada_17">
	<path fill="#1E0F07" d="M709.3,530.3c-0.6,3.6-2.3,14.3-0.2,17.3c0.8,1.2,5.8-0.3,9.5-0.1c4.9,0.3,3.2-3.1,3.6-3.4
		s2.6-11.3,1.3-5.3c-1.7,7.7,3-5.3,2.2-13.1c-0.2-1.5-0.5-3.1-1.7-3.9c-0.8-0.4-1.6-0.6-2.5-0.6c-3.2-0.2-6.6-0.1-9,2
		c-1.6,1.5-2.6,3.4-2.8,5.6c-0.3,2.1-0.3,4.3,0,6.4"/>
	<path fill="#1E0F07" d="M707.9,529.9c-0.6,3.6-1.1,7.2-1.3,10.9c-0.1,2.6-0.4,8,2.9,8.7c2,0.4,4.3-0.2,6.3-0.4s4.4,0.4,6.2-0.8
		c1.1-0.7,1.7-2,1.6-3.3c0-0.2,0-0.3,0-0.5c-0.1-0.2,0.3-0.7-0.2,0.3c-0.1,0.2-0.4,0.9,0.1,0.1c0.2-0.3,0.3-0.7,0.4-1.1
		c0.4-1.3,0.7-2.6,0.9-3.9c0.3-0.9,0.4-1.9,0.5-2.8c0-0.7-0.5-1.3-1.1-1.5l0,0c-0.7-0.2-1.3,0.1-1.7,0.7c-0.4,1-0.6,2.1-0.8,3.2
		c-0.2,1.1-0.5,2.7,1,3.1s2-1,2.3-2.1c0.5-1.4,0.8-2.8,1.1-4.3c0.8-3.9,1.6-8.4,0.7-12.3c-0.4-2.3-2.4-4-4.7-4.2
		c-2.4-0.3-4.9-0.2-7.2,0.4c-2.8,0.8-5,2.8-6.1,5.5c-1.3,3-1.1,6.3-0.8,9.5c0.2,1.9,3.2,1.9,3,0c-0.3-4-0.7-9.6,3.7-11.6
		c1.9-0.7,4-1,6-0.8c0.9-0.1,1.8,0.1,2.6,0.4c0.6,0.6,0.9,1.4,0.9,2.3c0.3,3.2,0.1,6.4-0.7,9.5c-0.3,1.3-0.6,2.5-0.9,3.8
		c-0.1,0.5-0.3,0.9-0.4,1.3s-0.1,0.1-0.1,0.2c0,0,0,0.1-0.1,0.1c0.3-0.5,1-0.7,1.6-0.6l0.9,0.7c0.1,0.2,0.2,0.4,0.2,0.6v-0.2
		c0,0,0-0.4,0-0.1c0.1-0.5,0.2-0.9,0.3-1.4s0.2-0.9,0.3-1.3c0-0.2,0.3-0.9,0-0.2l-1.7,0.7l0,0l-1.1-1.5c0-0.5,0-0.1,0,0.2l-0.3,1.3
		c-0.2,1.1-0.4,2.2-0.7,3.2c-0.1,0.4-0.2,0.8-0.3,1.2c-0.1,0.1-0.1,0.3-0.1,0.4c0,0.1,0.2-0.3,0.2-0.3c-0.4,0.8-0.5,1.6-0.4,2.5
		c0-0.2-0.2,0.2,0,0.1s-0.1,0.1-0.2,0.2c-0.8,0.2-1.7,0.2-2.5,0.2c-2,0-4,0.4-6.1,0.5c-0.6,0-1.2,0-1.8,0c0.4,0,0.3,0.4,0.2-0.1
		c0-0.2-0.2-0.5-0.2-0.7c-0.3-1.5-0.4-3-0.3-4.5c0.1-3.5,0.5-7.1,1.2-10.5c0.3-1.9-2.6-2.7-2.9-0.8L707.9,529.9z"/>
	<path fill="#1E0F07" d="M679.1,603.2c0.6,1.3,10.1,6.6,10.2,8c0,0.7-3.5,4.3-4.1,4.8s-5.8-4-6.5-4.2c-4.1-1-2.7-1.3-5.3-4.6
		c-0.6-0.8-1.1-2.1-0.2-2.6c0.4-0.2,0.8-0.2,1.3-0.1c3.7,0.8,7.1,2.4,10.1,4.7"/>
	<path fill="#1E0F07" d="M677.8,603.9c0.7,1,1.6,1.7,2.6,2.3c1.3,1,2.7,1.8,4.1,2.8c0.7,0.5,1.3,0.9,2,1.4l0.6,0.4
		c0.2,0.2,0.4,0.4,0.6,0.6l0.2,0.2c0.3,0.2-0.1-0.1,0,0s0-0.2,0-0.1c0-0.2,0-0.4,0-0.6c0,0.2,0.2-0.3,0-0.1c-0.3,0.5-0.7,1-1.1,1.5
		c-0.6,0.7-1.1,1.3-1.7,1.9l-0.6,0.6c-0.1,0.1-0.1,0.1-0.2,0.2l0,0c0.3-0.3,0.7-0.4,1.1-0.4c0,0,0.3,0,0,0s0.3,0.2,0,0l-0.3-0.2
		c-0.3-0.2-0.6-0.4-0.9-0.5c-0.7-0.5-1.3-0.9-1.9-1.4c-1-0.9-2.1-1.6-3.3-2.1c-0.5-0.1-0.9-0.2-1.3-0.4l-0.2-0.1
		c-0.2-0.1,0.2,0.1,0,0c-0.2-0.1-0.3-0.1-0.4-0.2c-0.3-0.2,0.1,0.1,0,0s-0.3-0.3-0.1-0.1c0.2,0.2-0.1-0.1-0.1-0.2l-0.3-0.4
		c-0.5-0.9-1.1-1.7-1.7-2.5c-0.1-0.2-0.2-0.4-0.3-0.6c-0.1-0.2,0-0.2-0.1-0.2c0.7-0.1-0.4,0.3-0.3,0.4c0.1,0.1,0.3,0.1,0.4,0.1
		l1.2,0.3c2.9,0.8,5.6,2.2,7.9,4c0.6,0.6,1.5,0.6,2.1,0c0.6-0.6,0.6-1.5,0-2.1c-2.5-2-5.3-3.5-8.3-4.5c-1.4-0.4-3.4-1.2-4.8-0.4
		s-1.4,2.6-0.8,3.9c0.5,1,1.3,1.8,1.8,2.7c0.3,0.6,0.7,1.2,1.2,1.7c0.7,0.6,1.5,1,2.3,1.2l0.8,0.2l0.5,0.1c0,0-0.3-0.2-0.2-0.1
		s0.5,0.3,0.6,0.4c1.4,1,2.8,2.1,4.3,3.1c0.6,0.5,1.3,0.8,2.1,0.9c0.8-0.1,1.4-0.5,1.9-1.1c1.4-1.2,2.6-2.6,3.5-4.2
		c0.8-1.6-0.4-2.7-1.5-3.7c-1.7-1.4-3.5-2.5-5.3-3.8c-0.8-0.5-1.6-1.1-2.4-1.7l-0.2-0.2c-0.2-0.1,0.2,0.2,0,0l-0.4-0.3
		c-0.1-0.1-0.2-0.2-0.3-0.3c-0.2-0.1,0.2,0.3,0,0c-0.9-1.7-3.4-0.2-2.6,1.5L677.8,603.9z"/>
</g>
<g id="flor">
	<path fill="#FF5DBC" d="M663.6,512.5c0.5-0.5,1.4-0.3,2.1-0.4c1.3-0.2,2.4-1,3-2.2c0.5-1.2,0.9-2.4,1-3.7l5.2,2.3
		c0.9,0.4,2.1,0.8,2.9,0.2c0.8-0.6,0.8-1.8,1.6-2.4c0.6-0.3,1.3-0.4,2-0.2c4.1,0.6,8.2,0.8,12.3,0.7c3.3-0.1,6.8-0.5,9.8,0.9
		l-3.5,1.7c-0.8,0.3-1.5,0.8-2.1,1.3c-1.1,1.2-1.4,2.9-1.8,4.4c-0.7,2.3-1.9,4.4-3.5,6.1c-1.6,1.7-3.7,3-4.8,5.1
		c-0.2,0.5-0.5,0.9-0.8,1.3c-1.7,1.8-5.2-0.4-7.1,1.2c-0.5,0.4-0.7,0.9-1.2,1.3c-0.9,0.7-2.2,0.4-3.3,0.2l-6.9-1.8
		c0.9,4.2,5,6.8,8.8,8.9l13.3,7.4c0.4,0.3,0.9,0.5,1.5,0.5c0.7-0.1,1.4-0.4,1.9-1c2-1.8,3.7-4.1,5.7-6s4.5-3.5,7.3-3.5
		c0.6,0,1.4,0,1.7-0.5s0.1-1.2-0.1-1.8c-0.5-2.4,1.6-4.5,3.5-6s4-3.5,3.7-5.9c0.1,7,1,12.1,2.1,19c0.4,2.5,1,5.2,3.1,6.6
		c0.9,0.4,1.8,1,2.6,1.6c1.5,1.6,0.7,4.8,2.6,5.9c1.3,0.8,3,0,4.5,0.2s2.5,1.2,3.8,1.8c1.8,0.7,3.8,0.9,5.7,0.7
		c3.6-0.1,7-1.1,10.1-2.9c3.1-1.8,5.1-5,5.4-8.6c0.2-5.1-3.8-9.3-8.1-12.1c-1.8-1.2-3.7-2.3-5-4.1s-1.4-4.5,0.2-5.9
		c-4.2-0.4-8.2-2.1-11.4-4.8c4.6-3.6,11.1-0.4,16.9-0.2c1.6,0.1,3.4-0.3,4.1-1.6c0.3-0.8,0.5-1.6,0.5-2.4c0.4-1.9,1.8-3.3,3.1-4.7
		c2.5-2.5,5.1-5.1,8.5-6.1c0.8-0.2,1.6-0.4,2.3-0.8c1-0.9,1.6-2,1.9-3.3c1.3-4.1,2.5-8.3,2.6-12.7s-1.2-9,0.4-13.1
		c0.3-0.5,0.4-1.1,0.4-1.7c-0.2-0.8-0.7-1.5-1.4-1.9l-8.9-7c-0.2,2.2-1.6,4-3.7,4.7c-2.1,0.6-4.2,0.6-6.3,0.1
		c-0.7-0.2-1.5-0.3-2.3-0.1c-1.3,0.5-1.6,2.2-1.4,3.5s0.8,2.7,0.6,4s-1.1,2.3-1.5,3.5s-0.4,2.8,0.8,3.4c0.4,0.2,1,0.2,1.3,0.5
		c0.7,0.7,0,1.8-0.8,2.4c-3.7,2.8-9.3,4.2-10.4,8.7c-1.2-0.7-2.1-1.8-2.5-3.2l-3.6,6.8c-3.3-1.3-7-1-10,0.9
		c0.3-4.1,3.5-7.2,6.2-10.3c8.6-9.8,14-22,15.5-34.9c0.1-0.6,0.1-1.2-0.1-1.8c-0.3-0.7-0.8-1.4-1.4-1.9c-3.6-3.6-5.6-8.6-5.4-13.7
		c-1.3-0.9-3.2-0.4-4.6,0.5s-2.6,2.1-4.2,2.5c-3.8,1-8.3-3-11.3-0.6c-2.2,1.7-1.8,5.5-4.1,7c-1.2,0.8-3,0.8-3.8,2
		c-0.7,1-0.4,2.3-0.5,3.5c-0.1,4.3-4.1,7.3-6.5,10.8c-3.8,5.8-3.4,13.2-2.9,20.1c0,0.7,0.2,1.4,0.5,2.1c0.6,0.8,1.7,1.1,2.5,1.7
		c3.5,2.6,1.4,9.9,5.6,11.1c-2.6-0.3-3.3-3.7-5.1-5.5c-3.8-3.9-12.3-0.9-14.8-5.8c1.1,2.7-2.5,5.1-5.4,4.8s-5.8-1.7-8.6-0.9
		c-2,0.5-3.5,2.1-5.3,3.1c-7.1,4.1-16-0.7-24.1,0c-2.9,0.3-6.3,2-6.2,4.9c0.1,2.6,3.1,4.3,3.5,6.8c0.2,1.1-0.2,2.3-0.1,3.4
		c0.3,2.4,2.5,4,4.7,5c5.6,2.4,12,2.6,17.8,0.5"/>
	<path fill="#FF21D2" d="M664.1,513.4c0.6-0.5,1.8-0.2,2.5-0.4c0.7-0.2,1.4-0.6,1.9-1.2c1.4-1.4,1.8-3.4,2.1-5.3l-1.5,0.6l4.5,2
		c1.1,0.5,2.4,1.2,3.7,0.9s1.7-1.3,2.2-2.3c0.7-1.2,3-0.4,4.2-0.3c3.2,0.4,6.5,0.5,9.8,0.4c3.2-0.1,6.6-0.5,9.6,0.8v-1.7
		c-1.9,0.9-4.3,1.6-5.8,3.1c-1.2,1.2-1.5,2.9-2,4.5c-0.6,2.1-1.6,4.1-3.1,5.7c-1.3,1.4-2.8,2.5-4.1,4c-0.6,0.7-1.1,1.5-1.5,2.3
		c-0.4,0.7-1.2,1-2,0.9c-1.5,0-2.9-0.4-4.3,0.1c-0.7,0.3-1.3,0.8-1.8,1.4c-0.9,0.9-1.7,0.7-2.8,0.4c-2.3-0.6-4.6-1.2-6.9-1.8
		c-0.5-0.1-1.1,0.2-1.2,0.7c0,0.2,0,0.4,0,0.5c1,4.1,4.5,6.8,8,8.8c4.7,2.8,9.5,5.4,14.3,8c0.8,0.6,1.8,0.8,2.8,0.7
		c1-0.3,1.9-1,2.6-1.8c1.8-1.7,3.2-3.7,5-5.4c1.7-1.8,3.9-2.9,6.3-3.3c0.9,0.1,1.7-0.1,2.4-0.6c0.8-0.7,0.6-1.7,0.5-2.6
		c-0.5-2.8,2.1-4.5,4-6.1s3.4-3.4,3.2-5.9c-0.1-1.3-2-1.3-2,0c0.1,3.8,0.4,7.5,0.9,11.3c0.3,1.9,0.6,3.8,0.8,5.7
		c0.2,1.8,0.5,3.6,1,5.4c0.4,1.4,1.2,2.7,2.3,3.7c1.2,1,3,1.3,3.5,2.9c0.2,1.2,0.6,2.5,1,3.7c0.6,1.2,1.8,1.9,3.2,1.9
		c0.9,0,1.8-0.2,2.7-0.2c0.9,0.1,1.8,0.5,2.5,1c1.4,0.8,3,1.4,4.7,1.5c3.7,0.2,7.4-0.4,10.8-1.8c6-2.5,10.3-8.9,7.5-15.3
		c-1.4-3.3-4.2-5.9-7.1-7.9c-1.7-1.2-3.6-2.1-4.9-3.7c-1.2-1.4-1.8-3.7-0.3-5.1c0.4-0.4,0.4-1,0-1.4c-0.2-0.2-0.4-0.3-0.7-0.3
		c-3.9-0.4-7.6-2-10.7-4.5l-0.2,1.6c4.7-3.5,11.1-0.2,16.4,0c2.4,0.1,4.9-0.7,5.4-3.3c0.2-1.5,0.7-3,1.7-4.2c1-1.1,2-2.2,3.2-3.2
		c1-1,2.1-1.9,3.3-2.7c1.3-0.8,2.7-1.4,4.2-1.8c2.9-1,3.5-3.7,4.2-6.4c1-3.1,1.7-6.4,2-9.6c0.2-3.2-0.4-6.4-0.3-9.7
		c0.1-1.8,0.4-3.6,1-5.3c0.5-1.3,0-2.8-1.1-3.6c-3-2.6-6.2-4.9-9.3-7.4c-0.4-0.4-1-0.4-1.4,0c-0.2,0.2-0.3,0.4-0.3,0.7
		c-0.2,1.8-1.4,3.3-3.2,3.8c-2.1,0.7-4.2,0.2-6.3-0.2c-3.7-0.6-4.6,2.8-3.9,5.7c0.4,1,0.4,2.1,0.3,3.2c-0.4,0.9-0.8,1.7-1.2,2.5
		c-0.6,1.2-0.6,2.7,0,4c0.3,0.5,0.8,0.9,1.4,1.1c0.5,0.2,0.7,0.2,0.4,0.7c-0.3,0.3-0.6,0.6-1,0.9c-1.2,0.8-2.5,1.6-3.8,2.3
		c-2.7,1.5-5.5,3.3-6.4,6.5l1.5-0.6c-1-0.6-1.7-1.5-2.1-2.6c-0.1-0.5-0.7-0.8-1.2-0.7c-0.3,0.1-0.5,0.2-0.6,0.5l-3.6,6.8l1.1-0.5
		c-3.6-1.4-7.6-1-10.8,1l1.5,0.9c0.5-4.6,4.6-7.9,7.4-11.3c2.9-3.6,5.5-7.4,7.6-11.5c2.1-4.1,3.8-8.4,5-12.9
		c0.6-2.2,1.1-4.5,1.4-6.7c0.3-2.1,0.9-4.5-0.6-6.3c-0.9-1-1.8-1.8-2.6-2.9c-2.3-3.2-3.5-7-3.4-10.9c0-0.4-0.2-0.7-0.5-0.9
		c-1.4-0.8-3-0.8-4.4-0.1c-1.7,0.7-2.9,2.3-4.7,2.8c-2.9,1-6-1.3-8.9-1.3c-3.1,0-4.5,2.3-5.4,4.9c-0.5,1.4-0.9,2.7-2.4,3.3
		s-2.8,0.8-3.6,2.2s-0.3,3.3-0.7,4.9c-0.4,1.6-1.2,3-2.3,4.3c-2.1,2.6-4.3,5-5.6,8.2c-1.2,3.4-1.8,7-1.7,10.6c0,1.9,0.1,3.7,0.3,5.6
		c0.1,1.4,0.1,3.1,1.1,4.3s2.7,1.4,3.4,2.9c0.5,1.3,0.8,2.6,1,3.9c0.5,2.5,1.1,5.1,3.8,6l0.5-1.9c-2.1-0.4-2.9-2.9-4-4.4
		c-1.2-1.5-2.9-2.5-4.8-2.9c-3.2-0.8-8.7,0-10.5-3.4c-0.5-1-2.2-0.3-1.8,0.8c0.5,1.3-0.4,2.3-1.5,2.9c-1.5,0.7-3.2,0.9-4.8,0.4
		c-3.4-0.7-6.3-1.4-9.5,0.6c-1.2,0.9-2.5,1.7-3.8,2.4c-1.6,0.7-3.3,1.1-5.1,1.2c-3.4,0.1-6.8-0.7-10.2-1.2c-3-0.5-6.2-0.9-9.2-0.2
		c-2.4,0.5-5.1,2.1-5.5,4.8s1.9,4.5,3,6.7c0.8,1.5,0.1,3.1,0.4,4.7c0.2,1.5,1,2.8,2.2,3.7c2.6,2.3,6.4,3.3,9.8,3.8
		c4,0.5,8,0.1,11.8-1.3c1.2-0.4,0.7-2.4-0.5-1.9c-3.3,1.2-6.9,1.6-10.4,1.3c-3.1-0.3-6.8-1.2-9.2-3.3c-1.2-0.9-1.8-2.4-1.6-3.8
		c0.2-1.5,0-3-0.7-4.3c-1.1-2-4.1-4.4-1.9-6.7c2-2.1,5.4-2,8-1.9c3.2,0.2,6.4,1,9.6,1.4c3,0.5,6.1,0.4,9-0.5
		c1.3-0.5,2.5-1.1,3.7-1.9c1.2-1,2.6-1.8,4.2-2.3c3.5-0.6,6.9,1.8,10.4,0.7c2.4-0.8,4.9-3,3.9-5.8l-1.8,0.8
		c2.2,3.9,7.1,3.4,10.9,4.2c2.1,0.3,4.1,1.5,5.2,3.3c1.1,1.8,2.2,3.8,4.4,4.2c0.5,0.1,1.1-0.2,1.2-0.7c0.1-0.5-0.2-1.1-0.7-1.2
		c-2.1-0.7-2.2-3.5-2.6-5.3c-0.4-2-0.9-4.2-2.6-5.6c-0.5-0.4-1.1-0.7-1.7-1c-0.7-0.5-1-1.3-1-2.1c-0.2-1.6-0.3-3.3-0.3-4.9
		c-0.2-3.4,0.1-6.9,1-10.2c0.9-3.1,2.8-5.5,4.9-8c1.7-2.1,3.5-4.3,3.8-7.1c0.2-1.6-0.5-3.5,1.4-4.3c1.3-0.5,2.6-0.8,3.5-2
		c1.5-1.8,1.4-5.3,3.6-6.4c1.4-0.7,3.1-0.1,4.4,0.3c1.4,0.5,2.8,0.8,4.3,0.9c1.7,0,3.3-0.5,4.6-1.6c1.4-1,3.4-2.8,5.2-1.7l-0.5-0.9
		c-0.1,4.4,1.3,8.7,3.9,12.2c0.6,0.8,1.3,1.6,2,2.3c0.6,0.5,1,1.1,1.1,1.9c0,0.7-0.1,1.3-0.2,2c-0.3,2.3-0.7,4.6-1.3,6.8
		c-2.3,9.2-6.6,17.7-12.7,25c-3.1,3.7-7,7.1-7.6,12.2c0,0.6,0.4,1,1,1c0.2,0,0.4,0,0.5-0.1c2.8-1.8,6.2-2.1,9.3-0.8
		c0.4,0.1,0.9-0.1,1.1-0.5l3.6-6.8l-1.8-0.2c0.5,1.6,1.6,2.9,3,3.8c0.5,0.3,1.1,0.1,1.4-0.4c0-0.1,0.1-0.1,0.1-0.2
		c0.8-2.9,3.7-4.4,6.2-5.8c1.8-1,6.4-3,5.1-5.8c-0.3-0.6-0.8-1-1.4-1.1c-1-0.4-1.1-1.1-0.8-2.1c0.5-1.8,1.8-3,1.7-4.9
		c-0.1-1.6-1.3-3.8-0.3-5.3c0.6-0.9,1.7-0.4,2.6-0.3c1,0.2,2,0.3,3,0.3c3.7,0.1,7.7-2.1,7.8-6.2L761,463l7.8,6.1
		c0.6,0.4,1.2,0.9,1.7,1.4c0.7,0.7,0.5,1.3,0.2,2.1c-0.5,1.3-0.7,2.7-0.8,4.1c-0.2,3,0.3,6.1,0.3,9.1c-0.1,3.3-0.7,6.5-1.6,9.6
		c-0.4,1.3-0.7,2.7-1.2,4c-0.2,0.6-0.5,1.2-1,1.6c-0.7,0.4-1.5,0.7-2.3,0.9c-2.5,0.9-4.7,2.3-6.6,4.2c-1.9,1.7-4.1,3.6-5.2,6
		c-0.5,1.1-0.3,2.8-1.1,3.8s-2.6,0.8-3.8,0.8c-5.4-0.5-11.7-3.3-16.6,0.4c-0.5,0.3-0.6,0.9-0.4,1.4c0,0.1,0.1,0.1,0.2,0.2
		c3.4,2.9,7.6,4.6,12.1,5.1l-0.7-1.7c-2,2-1.7,5.3-0.1,7.5c1.9,2.5,5,3.8,7.4,5.8s4.6,4.5,5.2,7.6c0.5,3.3-0.8,6.7-3.5,8.7
		c-2.7,2.3-6.2,3.2-9.6,3.6c-1.7,0.3-3.4,0.3-5.2,0c-1.6-0.3-2.8-1.4-4.3-2c-0.7-0.3-1.4-0.4-2.2-0.4c-0.9,0.2-1.7,0.2-2.6,0.2
		c-1.5-0.3-1.5-2.3-1.7-3.4c-0.2-1.1-0.7-2.1-1.5-2.8c-1.3-1.1-2.9-1.3-3.8-2.9c-0.8-1.6-1.2-3.3-1.4-5c-0.3-2-0.6-3.9-0.9-5.8
		c-0.6-4.1-1-8.3-1.1-12.5h-2c0.2,2.1-1.5,3.6-3,4.8c-1.6,1.1-2.9,2.5-3.8,4.2c-0.4,0.8-0.5,1.6-0.5,2.5c0,0.4,0.2,0.8,0.2,1.2
		c0,0.7-0.7,0.5-1.2,0.5c-1.9,0.2-3.7,0.8-5.2,1.9c-1.7,1.2-3.2,2.7-4.6,4.3c-0.7,0.8-1.4,1.6-2.2,2.4s-1.8,2.3-3.1,1.7
		c-2.2-1-4.3-2.4-6.3-3.5l-6.4-3.6c-3.7-2-8.2-4.3-9.2-8.8l-1.2,1.2c2.4,0.6,4.8,1.3,7.3,1.9c1.9,0.4,3.3,0.2,4.6-1.3
		c1.3-1.5,2.9-0.7,4.5-0.7c1.5,0.1,3-0.6,3.8-2c1.1-1.7,2.5-3.2,4.1-4.5c1.5-1.4,2.7-3,3.6-4.8c0.9-1.8,1-3.8,1.9-5.6
		c0.6-1,1.5-1.8,2.6-2.2c1.2-0.6,2.3-1.1,3.5-1.6c0.5-0.3,0.6-0.9,0.4-1.4c-0.1-0.2-0.2-0.3-0.4-0.4c-2.8-1-5.7-1.4-8.6-1.1
		c-3.3,0.2-6.6,0.1-9.8-0.1c-1.5-0.1-3.1-0.4-4.6-0.5c-1.1-0.2-2.2,0.2-2.9,1.1c-0.3,0.5-0.4,1.2-0.8,1.5c-0.6,0.7-1.7,0-2.4-0.3
		c-1.6-0.7-3.2-1.4-4.7-2.1c-0.5-0.2-1.4-0.1-1.5,0.6c-0.3,1.6-0.5,3.7-1.9,4.7c-1.1,0.8-2.6,0.1-3.7,0.9S663.1,514.1,664.1,513.4
		L664.1,513.4z"/>
	<path fill="#FF5DBC" d="M670.7,624.6l-0.7-4.2c-0.2-0.5,0.1-1.1,0.6-1.3c0,0,0.1,0,0.1,0c2.3-1.1,4.7-1.9,7.2-2.4
		c0.7-0.1,1.4-0.3,2-0.5c1.3-0.8,2-2.2,2-3.7c-0.1-1.5-0.4-3-1-4.3l-2.3-6.4c-0.7-1.5-1-3.2-0.8-4.8c0.3-0.9,0.4-1.7,0.5-2.6
		c-0.1-1.6-1.5-2.8-2.7-3.7l-9.6-7.2c-2.6,4.3-6.9,7.4-11.8,8.7l11.4-19.6c1-1.8,2-4.1,0.6-5.6c-0.4-0.5-1-0.7-1.4-1.2
		c-0.4-0.6-0.6-1.3-0.7-2.1l-1.3-10.5c-0.3-1.4-0.3-2.9-0.1-4.3c0.3-1.7,1.3-3.5,0.6-5c-0.8-1.8-3.3-2-4.6-3.5
		c-0.5-0.7-0.9-1.5-1.2-2.4c-1.7-3.6-5.8-5.4-9.4-7.1s-7.5-4.4-7.8-8.4c-3,3.1-6.3,5.9-9.8,8.3l-2.9,14.8c-0.2,0.9-0.3,2.1,0.6,2.5
		c0.4,0.2,0.9,0.2,1.3,0.2c2.7,0.3,3.8,3.5,4.4,6.2l2.6-1.5c1.8,4.2,2,9,0.6,13.4c-0.4,1-0.7,2.1-0.8,3.3c0,0.9,0.2,1.8,0.5,2.6
		l1.8,6.1c-2.3,0.4-3.1,3.3-2.8,5.5c0.3,2.3,1.3,4.5,1,6.8l-7.3-18c-0.6-1.3-1.1-2.7-1.3-4.2c-0.2-1.5-0.1-2.9-0.3-4.4
		c-0.3-1.5-0.8-3-1.5-4.3l-5.2-12.3c-0.8-1.9-2.1-4.2-4.2-4.3s-3.7,2-5.8,2.3c-1.5,0.2-2.9-0.4-4.3-1c-0.9-0.3-2-0.5-2.7,0.2
		c-0.3,0.4-0.4,0.8-0.5,1.3l-3,18.2c-0.4,2.3-0.8,4.7,0.1,6.8s2.8,3.7,3.8,5.8c1.5,3.4,0,7.6,1.9,10.8c1.6,2.9,5.3,4,7.1,6.8
		c0.7,1.1,1.1,2.4,2.2,3c0.8,0.3,1.7,0.4,2.6,0.3c3.7-0.2,7.3,0.4,10.7,1.8c-4.1-1.1-9.3-1.2-11.8,2.2c-1,1.6-1.6,3.4-1.8,5.2
		c-0.8,3-1.7,6-2.8,8.9l-6.3,17.8c-0.6,2.1-1.5,4-2.8,5.8c-0.8,1.1-2,2.1-2.4,3.4c-0.5,1.6,0.1,3.4,0.6,5c1.1,2.9,2.2,6,4.6,8
		s6.4,2.5,8.5,0.2c0.9-1.2,1.6-2.6,1.8-4.2l1.8-7.6c0.6-2.3,1-4.9-0.5-6.7c-0.6-0.6-1.2-1.2-1.7-1.8c-0.5-0.7-0.4-1.9,0.4-2.2
		c0.5-0.2,1,0,1.5,0c1.5-0.1,2.2-2,2.2-3.5s-0.2-3.2,0.9-4.3c0.6-0.4,1.2-0.8,1.9-1.1c1.4-1,2.4-2.3,3.1-3.9l6.3-12
		c-0.6,6.8,2.4,13.4,3.5,20.2c0.9,5.8,0.4,11.7-0.1,17.5c0,0.9-0.2,1.8-0.5,2.7c-0.4,0.8-0.9,1.6-1.6,2.2l-4.5,5.1
		c7.2-1.7,14.5-3.3,21.2-6.6c2.3-1.1,4.7-2.7,5.2-5.2c0.8-3.7-2.9-7.2-2-10.8c0.5-1.8,2-3.5,1.5-5.3c-0.5-0.9-1.1-1.8-1.9-2.5
		c-1-1.4-1.7-3-2-4.7l-3.9-15.1L658,617c1.3,1.6,2.9,2.9,4.7,3.8c2.6,1.1,5.9,1,7.6,3.3"/>
	<path fill="#FF21D2" d="M671.7,624.3l-0.5-2.8c-0.2-0.5-0.3-1-0.3-1.5c0.1-0.3,1.2-0.6,1.5-0.7c1.8-0.8,3.6-1.3,5.5-1.7
		c1.5-0.3,2.9-0.6,3.8-1.9c0.9-1.2,1.3-2.8,1.1-4.3c-0.3-1.8-0.8-3.6-1.5-5.3c-0.7-2-1.4-3.9-2.1-5.8c-0.3-0.9-0.5-1.9-0.5-2.8
		c0.1-1,0.5-1.9,0.6-2.8c0-1.5-0.7-3-1.8-3.9c-1.5-1.4-3.3-2.6-5-3.8l-6-4.5c-0.5-0.3-1.1-0.1-1.4,0.4c0,0,0,0,0,0
		c-2.5,4.1-6.6,7-11.2,8.2l1.1,1.5l10.4-17.9c1.2-2,3-4.6,2.3-7.1c-0.4-1.3-1.3-1.6-2.1-2.6c-0.3-0.6-0.5-1.3-0.5-1.9
		c-0.1-1-0.3-1.9-0.4-2.9l-0.6-4.8c-0.3-1.7-0.5-3.5-0.5-5.3c0.1-2.6,2-5.3,0.1-7.7c-0.7-0.7-1.5-1.3-2.4-1.7
		c-1.1-0.5-2-1.4-2.4-2.5c-0.9-2.2-2.5-4.1-4.5-5.5c-4.2-2.8-12.2-4.4-12.8-10.5c0-0.6-0.4-1-1-1c-0.3,0-0.5,0.1-0.7,0.3
		c-2.7,2.8-5.7,5.4-8.9,7.7c-0.7,0.5-1.1,0.7-1.3,1.6c-0.3,1.1-0.4,2.2-0.7,3.3l-1.2,6c-0.4,1.8-0.8,3.7-1.1,5.6
		c-0.2,1.3,0.1,2.7,1.4,3.2c0.6,0.1,1.3,0.3,1.9,0.3c0.7,0.2,1.3,0.7,1.7,1.4c0.7,1.2,1.2,2.6,1.5,4c0.1,0.5,0.7,0.8,1.2,0.7
		c0.1,0,0.2-0.1,0.2-0.1l2.6-1.5l-1.5-0.6c1.7,4,1.9,8.5,0.7,12.7c-0.6,2-1.2,3.6-0.6,5.7c0.6,2.3,1.4,4.7,2,7l0.7-1.2
		c-2.1,0.5-3.3,2.5-3.5,4.6c-0.4,3,1.2,5.7,1,8.7l2-0.3l-6.3-15.4c-1-2.3-2.2-4.8-2.4-7.3c-0.1-1.2-0.1-2.3-0.2-3.5
		c-0.2-1.3-0.6-2.6-1.1-3.8c-1-2.4-2.1-4.8-3.1-7.2c-1-2.4-1.9-4.8-3.1-7.1c-0.8-1.6-1.9-3.2-3.7-3.7c-1.8-0.5-3.5,0.5-5.1,1.4
		c-1,0.7-2.1,0.9-3.3,0.6c-1.1-0.3-2.1-0.9-3.3-1.1c-2.2-0.4-3.2,1-3.5,2.9c-0.9,5.4-1.8,10.8-2.7,16.2c-0.4,2.3-0.9,4.8-0.6,7.2
		c0.3,2.2,1.7,3.8,3,5.6c1.3,1.8,2,4.1,2,6.3c0.1,2.1,0.1,4.3,1,6.3c0.9,2,2.7,3.1,4.3,4.3c0.9,0.6,1.8,1.4,2.5,2.2
		c0.7,0.8,1.1,1.8,1.7,2.7c1.6,2.2,4,1.5,6.3,1.6c3,0,5.9,0.7,8.7,1.8l0.5-1.9c-3.6-0.9-8-1.3-11.2,1c-1.7,1.3-2.8,3.2-3.2,5.3
		c-0.6,2.5-1.2,4.9-2,7.3c-1.8,5.4-3.8,10.8-5.7,16.1c-1,2.7-1.8,5.5-3,8.1c-0.5,1.1-1.1,2.1-1.8,3c-0.8,0.8-1.4,1.7-1.9,2.7
		c-1,2.3-0.1,4.7,0.7,6.8c0.7,2.1,1.6,4,2.9,5.8c2.3,3,6.5,5.2,10.1,3.3c1.9-1,2.8-2.9,3.3-4.8c0.7-2.7,1.3-5.4,2-8
		c0.5-2,1-4.3,0.4-6.3c-0.3-0.9-0.8-1.7-1.5-2.4c-0.4-0.3-0.8-0.7-1.1-1.1c-0.5-0.9,0.4-0.7,1.1-0.7c2.1-0.1,3-2.3,3.2-4.2
		c0.1-1.1-0.2-2.3,0.3-3.4c0.5-1,2-1.4,2.9-2.1c2.1-1.8,3.2-4.7,4.4-7.1l4.5-8.6l-1.9-0.5c-0.6,8.2,3.3,15.8,3.9,23.8
		c0.2,4.2,0.1,8.5-0.4,12.7c0,1.1-0.1,2.1-0.4,3.2c-0.4,0.9-0.9,1.7-1.6,2.4l-4.3,4.9c-0.4,0.4-0.4,1,0,1.4c0.3,0.3,0.7,0.4,1,0.3
		c5.1-1.1,10.2-2.5,15.2-4.1c2.4-0.8,4.6-1.8,6.8-2.9c1.8-0.8,3.3-2.2,4.4-3.9c0.8-1.7,1-3.7,0.3-5.5c-0.6-1.9-1.8-3.8-1.8-5.8
		c-0.1-2.2,1.9-3.9,1.7-6.2s-2.5-3.5-3.2-5.5c-0.9-2.7-1.7-5.5-2.3-8.4l-2.4-9.2l-1.7,1c3.8,4.1,7.6,8.4,11.6,12.4
		c1.5,1.6,3.4,2.7,5.4,3.3c2,0.5,4.2,0.8,5.5,2.5c0.8,1,2.2-0.4,1.4-1.4c-1.2-1.5-3.1-2.1-4.9-2.6c-2.3-0.5-4.4-1.6-6.1-3.2
		c-4-4-7.7-8.3-11.6-12.4c-0.4-0.4-1-0.4-1.4,0c-0.3,0.3-0.4,0.7-0.3,1c1.3,5,2.6,10.1,3.9,15.1c0.4,2,1.2,3.8,2.5,5.4
		c0.7,0.8,1.6,1.5,1.4,2.6c-0.3,1-0.7,2.1-1.2,3c-0.6,1.7-0.6,3.6,0.1,5.3c0.6,1.7,1.6,3.5,1.7,5.3c0.1,2.2-1.4,3.7-3.2,4.8
		c-2.1,1.2-4.2,2.2-6.5,3c-5.3,1.8-10.7,3.2-16.1,4.3l1,1.7c1.5-1.7,3-3.4,4.5-5.1c1.2-1.3,2-2.9,2.3-4.7c0.6-4.4,0.8-8.9,0.6-13.3
		c-0.3-4.2-1-8.4-2.1-12.5c-1.1-4.2-2.1-8.4-1.8-12.7c0-0.6-0.5-1-1-1c-0.3,0-0.7,0.2-0.8,0.5c-2.3,4.4-4.5,9-7.1,13.3
		c-0.5,0.9-1.2,1.7-2.1,2.3c-0.9,0.4-1.6,0.9-2.3,1.6c-1.2,1.5-0.7,3.4-0.9,5.1c-0.1,0.7-0.3,1.8-1.1,2c-1,0.3-1.8-0.3-2.6,0.5
		c-1.1,1.1-0.6,2.9,0.4,3.9c0.7,0.8,1.5,1.3,1.8,2.4c0.2,1,0.2,2.1,0,3.1c-0.4,2.4-1.1,4.8-1.7,7.2c-0.5,2-0.7,4.6-2.4,6
		c-1.5,1.2-3.7,1-5.3,0.3c-1.8-1-3.3-2.6-4.1-4.5c-1-1.9-1.8-3.9-2.3-6c-0.3-1.2-0.1-2.5,0.6-3.5c0.6-0.8,1.3-1.6,2-2.4
		c1.2-1.9,2.1-4,2.8-6.2l5.2-14.7c0.9-2.6,1.9-5.2,2.7-7.9c0.8-2.5,1-5.3,2.1-7.6c2-4.2,7.5-3.8,11.3-2.8c0.5,0.1,1.1-0.2,1.2-0.7
		c0.1-0.5-0.2-1.1-0.7-1.2c-2.1-0.8-4.2-1.4-6.5-1.7c-1.1-0.1-2.3-0.2-3.4-0.2c-1,0-2.4,0.4-3.4-0.2c-0.7-0.5-1.2-1.3-1.5-2.1
		c-0.4-0.8-1-1.5-1.6-2.1c-1.2-1.2-2.7-2.1-4-3.2c-1.5-1.2-2.4-3.1-2.5-5c0-2-0.2-4.1-0.5-6.1c-0.5-1.8-1.4-3.6-2.7-5
		c-1.4-1.6-2.1-3.8-2-5.9c0.2-2.4,0.6-4.8,1.1-7.2l1.2-7.4l0.6-3.7l0.3-1.7c0-0.6,0.1-1.1,0.3-1.7c0.5-0.8,2.2,0.1,2.8,0.3
		c1,0.4,2.1,0.6,3.3,0.6c1.8-0.2,3.1-1.4,4.7-2.1c2-0.8,3.3,0.9,4.1,2.5c2.2,4.3,3.9,8.9,5.8,13.4c0.5,1.2,1,2.4,1.3,3.7
		c0.3,1.4,0.2,2.8,0.3,4.1c0.4,2.4,1.2,4.8,2.3,7l6.5,15.9c0.1,0.6,0.6,0.9,1.1,0.9c0.6-0.1,0.9-0.6,0.9-1.1c0.2-2.5-0.8-4.7-1-7.1
		c-0.1-1.6,0.3-3.8,2.1-4.3c0.5-0.1,0.8-0.7,0.7-1.2c0,0,0,0,0,0c-0.7-2.3-1.5-4.6-2-7s0.6-4.2,1.1-6.3c0.9-4,0.5-8.3-1.1-12.1
		c-0.1-0.5-0.7-0.8-1.2-0.7c-0.1,0-0.2,0.1-0.2,0.1l-2.6,1.5l1.5,0.6c-0.3-1.8-1-3.5-2-5c-0.5-0.6-1.1-1.2-1.8-1.5
		c-0.6-0.3-2.3-0.3-2.5-0.8c-0.1-0.5,0-1.1,0.2-1.5c0.1-0.6,0.3-1.3,0.4-1.9l0.8-4l1.7-8.3l-0.5,0.6c3.6-2.5,7-5.3,10-8.5l-1.7-0.7
		c0.5,5.1,5.1,7.8,9.2,9.8c2.3,0.9,4.4,2.3,6.3,3.9c1.8,1.8,2,4.5,4.1,5.9c0.8,0.5,1.7,0.8,2.4,1.4c1.5,1,0.9,2.5,0.5,4
		c-0.9,3-0.2,6.1,0.2,9.1l0.6,4.8c0,1.5,0.3,2.9,0.8,4.3c0.5,1,1.7,1.4,2.1,2.4c0.6,1.3-0.4,3-1,4c-3.7,6.6-7.6,13.1-11.4,19.6
		c-0.3,0.5-0.1,1.1,0.4,1.4c0.2,0.1,0.5,0.2,0.8,0.1c5.2-1.3,9.6-4.6,12.4-9.1l-1.4,0.4l6.4,4.8c1.1,0.8,2.1,1.6,3.2,2.4
		c0.8,0.5,1.5,1.2,2,2c0.6,1.2-0.1,2.3-0.3,3.5c-0.1,1.1,0,2.3,0.3,3.4c0.6,2.3,1.6,4.5,2.3,6.7c0.7,2,1.9,4.4,1.3,6.5
		c-0.7,2.4-3.7,2.3-5.7,2.8c-1,0.3-2,0.6-3,1c-0.9,0.3-1.8,0.7-2.5,1.3c-0.5,0.7-0.7,1.6-0.4,2.5c0.2,1.3,0.4,2.5,0.6,3.8
		c0.2,1.3,2.1,0.7,1.9-0.5L671.7,624.3z"/>
	<path fill="#FFB172" d="M706.3,512.9c0.2-0.7-0.8-1-1.5-0.8s-1.3,0.7-1.9,0.6c-0.2-0.1-0.4-0.1-0.7-0.2c-0.4,0-0.7,0.4-1,0.7
		s-0.9,0.5-1.1,0.2l-2.2,5.3c-0.6,1.4-1.2,3.3-0.1,4.4c0.1,0.2,0.3,0.3,0.5,0.3c0.6,0.2,1.2-0.5,1.5-1l0.1,2.4c0,0.4,0.2,1,0.6,0.9
		c0.2-0.1,0.3-0.2,0.4-0.4l0.9-1.6c0.6,2.1-1.3,4.4-0.6,6.5c0.9-1,1.7-2.2,2.2-3.5l-0.3,3.2c0.5-0.3,0.9-0.7,1.1-1.2
		c0.1,0.3,0.5,0.5,0.8,0.3c0,0,0.1,0,0.1,0c0.3-0.2,0.6-0.5,0.7-0.8c1-1.8,2.3-3.4,3.7-4.9c1.7-1.7,3.7-3.3,4.3-5.7
		c0.1-0.3,0.1-0.7-0.2-0.8s-0.5,0.1-0.7,0.3l-1.4,1.4l-0.3-2.8l-1.1,0.6v-2.1c-0.5,0.2-1,0.5-1.5,0.9l-0.3-2.3
		C707.8,513,706.9,512.9,706.3,512.9z"/>
	<path fill="#FFB172" d="M706.8,513.1c0.2-1.4-1.5-1.7-2.5-1.3c-0.4,0.2-0.8,0.4-1.2,0.4c-0.3,0-0.6-0.2-1-0.2
		c-0.3,0-0.6,0.2-0.8,0.4c-0.1,0.1-0.7,0.8-0.9,0.7c-0.2-0.2-0.5-0.2-0.7,0c0,0,0,0.1-0.1,0.1l-1.8,4.2c-0.6,1.1-0.9,2.3-1.2,3.5
		c-0.2,1,0.2,2.1,0.9,2.8c1,0.8,2-0.2,2.5-1l-0.9-0.3c0,0.8,0,1.6,0.1,2.4c0,0.5,0.2,0.9,0.5,1.2c1.1,0.8,1.9-1.3,2.3-2l-0.9-0.1
		c0.2,1.1,0,2.3-0.4,3.4c-0.4,1-0.4,2.1-0.2,3.2c0.1,0.3,0.3,0.4,0.6,0.4c0.1,0,0.2-0.1,0.2-0.1c0.9-1.1,1.7-2.3,2.3-3.5l-0.9-0.3
		l-0.3,3.2c0,0.3,0.2,0.5,0.5,0.5c0.1,0,0.2,0,0.3-0.1c0.6-0.3,1-0.8,1.3-1.4l-0.9-0.1c0.2,0.6,0.9,0.9,1.5,0.7c0.1,0,0.1,0,0.1-0.1
		c0.8-0.4,1.2-1.6,1.7-2.3c1.2-1.7,2.6-3.3,4.1-4.8c1.3-1.3,2.7-2.8,3.1-4.6c0.1-0.6,0-1.5-0.8-1.5c-0.4,0-0.7,0.2-0.9,0.5
		c-0.5,0.5-0.9,1-1.4,1.4l0.9,0.4l-0.3-2.8c0-0.3-0.2-0.5-0.5-0.5c-0.1,0-0.2,0-0.2,0.1l-1.1,0.6l0.8,0.4v-2.1
		c0-0.3-0.3-0.6-0.6-0.5c-0.6,0.2-1.2,0.6-1.7,1l0.8,0.3l-0.3-2.3c0-0.3-0.2-0.5-0.5-0.5c-0.7,0.1-1.3,0-2,0s-0.7,1.1,0,1
		s1.3,0.1,2,0l-0.5-0.5l0.3,2.3c0,0.3,0.3,0.5,0.6,0.5c0.1,0,0.2-0.1,0.3-0.1c0.4-0.3,0.8-0.6,1.3-0.8l-0.6-0.5v2.1
		c0,0.3,0.2,0.5,0.5,0.5c0.1,0,0.2,0,0.2-0.1l1.1-0.6l-0.8-0.4l0.3,2.8c0,0.3,0.2,0.5,0.5,0.5c0.1,0,0.3-0.1,0.3-0.1l0.9-0.9
		c0.1-0.1,0.8-0.7,0.6-0.8c0.3,0.1-0.6,1.7-0.7,1.8c-0.8,1.1-1.7,2.2-2.7,3.1c-1,1-1.9,2-2.8,3.1c-0.5,0.6-0.9,1.2-1.3,1.9
		c-0.2,0.3-0.4,0.6-0.6,0.9c0,0-0.5,0.8-0.6,0.5s-0.7-0.5-0.9-0.1c-0.2,0.4-0.6,0.8-1,1l0.8,0.4l0.3-3.2c0-0.3-0.2-0.5-0.5-0.5
		c-0.2,0-0.3,0.1-0.4,0.2c-0.5,1.2-1.3,2.3-2.1,3.3l0.8,0.2c-0.2-1.1,0-2.3,0.4-3.4c0.4-1,0.4-2.1,0.2-3.2c-0.1-0.3-0.4-0.4-0.6-0.3
		c-0.1,0-0.2,0.1-0.3,0.2l-0.6,1c-0.1,0.2-0.2,0.4-0.3,0.6c0,0,0-0.1,0-0.2c-0.1-0.8-0.1-1.6-0.1-2.5c0-0.3-0.2-0.5-0.5-0.5
		c-0.2,0-0.3,0.1-0.4,0.2c-0.2,0.4-0.6,1-1.1,0.7c-0.3-0.3-0.5-0.7-0.5-1.1c0-0.8,0.1-1.6,0.4-2.3c0.7-1.9,1.6-3.8,2.4-5.7l-0.8,0.1
		c0.4,0.4,1,0.4,1.4,0.1c0.2-0.1,0.4-0.3,0.6-0.5c0.2-0.3,0.6-0.4,0.9-0.3c0.5,0.1,1.1,0.1,1.6-0.2c0.3-0.2,0.6-0.3,0.9-0.4
		c0.1,0,0.7,0,0.6,0.2C705.8,513.4,706.7,513.7,706.8,513.1z"/>
	<path fill="#FFB172" d="M697.5,504.4c-2.7-1.4-5.7-2.1-8.8-2c-3,0-6.1,0.4-9.1,0.3c-2.3-0.1-4.7-0.5-6.2-2.2
		c0.6-1.2,2.1-1.7,3.4-1.8c1.4,0,2.7-0.2,4-0.6c-1.2-1.5-4.2-0.7-4.9-2.5c1.5-0.4,3.1-0.4,4.6-0.1c1.4,0.3,2.8,0.9,4.3,1.2
		c1.5,0.4,3,0.1,4.2-0.9l-7.9-2.9c3.4-1.3,7.2-0.2,10.8-0.6c1.8-0.2,3.5-0.8,5.3-0.9s3.8,0.6,4.5,2.3c0.3,0.4,0.3,1,0,1.4
		c-0.3,0.3-0.7,0.4-1.1,0.3c-1.2-0.1-2.7-0.3-3.4,0.6c2.3,1,4.2,2.8,5.3,5c0.3,0.6,0.5,1.3,0,1.8s-1,0.3-1.5,0.3
		C699.7,503.2,698.5,503.6,697.5,504.4z"/>
	<path fill="#FFB172" d="M697.8,503.9c-3.7-2.1-8.1-2.1-12.2-1.9c-2.2,0.2-4.4,0.2-6.7,0.2c-1.9,0-3.7-0.7-5.1-2l0.1,0.6
		c0.7-1,1.9-1.6,3.2-1.6c1.4,0,2.7-0.2,4-0.7c0.2-0.1,0.3-0.4,0.2-0.7c0,0,0-0.1-0.1-0.1c-0.7-0.7-1.6-1.1-2.5-1.2
		c-0.8-0.2-1.9-0.3-2.3-1.2l-0.3,0.7c1.3-0.3,2.6-0.3,4-0.1c1.2,0.3,2.4,0.6,3.5,1c2,0.5,4.2,0.7,5.8-0.7c0.2-0.2,0.2-0.5,0-0.7
		c-0.1-0.1-0.1-0.1-0.2-0.1l-8-2.9v1c3.6-1.3,7.5-0.1,11.2-0.6c1.9-0.3,3.7-1,5.7-0.8c0.7,0.1,1.5,0.3,2.1,0.7
		c0.5,0.3,1.3,1.1,1.2,1.8s-2,0.3-2.6,0.3c-0.8,0-1.5,0.3-2,0.8c-0.2,0.2-0.2,0.5,0,0.7c0,0,0.1,0.1,0.1,0.1c2.2,0.9,4,2.6,5.1,4.7
		c0.3,0.6,0.5,1.4-0.4,1.4c-0.5,0-1,0-1.6,0.1c-1,0.1-2,0.5-2.8,1.2c-0.2,0.2-0.2,0.5,0,0.7c0.2,0.2,0.5,0.2,0.7,0
		c1-1,2.4-0.9,3.8-1s1.8-1.3,1.3-2.5c-1.1-2.5-3.2-4.5-5.7-5.5l0.1,0.8c1.2-1.4,3.5,0.4,4.6-1s-0.7-3.2-1.8-3.8
		c-1.7-0.7-3.6-0.8-5.3-0.3c-1.1,0.3-2.2,0.5-3.4,0.6c-1.1,0.1-2.2,0.1-3.4,0c-2.4-0.1-4.8-0.3-7.2,0.5c-0.3,0.1-0.5,0.3-0.4,0.6
		c0,0.2,0.2,0.4,0.4,0.4l8,2.9l-0.2-0.8c-1.7,1.5-4.2,0.7-6.1,0.1c-2.2-0.8-4.5-0.9-6.8-0.5c-0.3,0.1-0.4,0.4-0.3,0.6
		c0,0,0,0.1,0,0.1c0.9,2,3.7,1.1,5,2.6l0.1-0.8c-2.4,1.1-6-0.3-7.6,2.6c-0.1,0.2-0.1,0.4,0.1,0.6c2.7,3,7.6,2.4,11.2,2.2
		c4.4-0.2,9-0.6,13,1.7c0.3,0.1,0.5,0,0.7-0.3C698.2,504.3,698,504,697.8,503.9L697.8,503.9z"/>
	<path fill="#FFB172" d="M720.6,523.7c0.2,2.9,0.4,5.1,0.6,8c0.1,1.2,0.2,2.3,0.5,3.5c0.6,1.9,1.6,3.8,2.9,5.3
		c0.6,0.8,1.7,1.8,2.6,1.2c0.4-0.4,0.6-0.9,0.7-1.4c0.3-2,0.2-3.9-0.1-5.9c0.7,0.3,0.9,1.6,1.6,1.4c0.4-0.1,0.5-0.6,0.5-1.1l0.1-4.8
		c1.7,2,3.8,3.6,6.3,4.6c0.9,0.4,2.2,0.6,2.8-0.2s0.1-2-0.6-2.8c-2-2.6-4.5-4.7-6.4-7.4c-0.7-1.2-1.5-2.3-2.4-3.5
		c-1.3-1.5-2.9-2.5-4.8-3c-0.6-0.2-1.3-0.2-1.9,0.1c-0.8,0.5-0.8,1.7-0.9,2.6s-0.7,2.1-1.6,2L720.6,523.7z"/>
	<path fill="#FFB172" d="M720.1,523.7c0.2,2.1,0.3,4.2,0.5,6.3c0,2.1,0.4,4.2,1,6.2c0.7,1.8,1.7,3.5,3,5c0.5,0.6,1.2,1,2,1.1
		c0.7,0,1.4-0.5,1.6-1.2c0.3-1.1,0.4-2.2,0.4-3.3c0-1.2-0.1-2.5-0.3-3.7l-0.7,0.6c0.5,0.3,0.7,1,1.1,1.3c0.4,0.3,1.1,0.2,1.4-0.2
		c0,0,0,0,0-0.1c0.3-0.8,0.4-1.7,0.3-2.5l0.1-3.4l-0.8,0.3c1,1.1,2.1,2.1,3.3,3c1.2,0.9,2.5,1.6,3.9,2c1.1,0.3,2.5,0.2,2.9-1.1
		s-0.5-2.6-1.3-3.5c-2-2.5-4.5-4.6-6.3-7.3c-0.8-1.3-1.7-2.6-2.8-3.7c-1-1-2.2-1.7-3.6-2.2c-1.3-0.5-3.1-0.7-3.8,0.9
		c-0.2,0.6-0.3,1.3-0.3,1.9c-0.1,0.6-0.3,1.7-1.1,1.6c-0.3,0-0.5,0.2-0.5,0.5L720.1,523.7c0.1,0.3,0.3,0.5,0.6,0.5s0.5-0.2,0.5-0.5
		v-1.4l-0.5,0.5c1,0.1,1.7-0.8,2-1.7s-0.1-2.8,1.1-3.1c0.6-0.1,1.3,0,1.9,0.3c0.6,0.2,1.3,0.5,1.8,0.9c1.1,0.7,2.1,1.7,2.9,2.8
		c0.8,1.1,1.5,2.3,2.3,3.4s1.8,2.1,2.8,3.2c1,1,1.9,2.1,2.8,3.2c0.4,0.5,0.7,1,0.8,1.6c0,0.8-0.6,1-1.2,1c-1.4-0.3-2.7-0.9-3.8-1.7
		c-1.3-0.9-2.4-1.9-3.4-3.1c-0.3-0.3-0.8,0-0.8,0.4c0,1.6-0.1,3.1-0.1,4.7c0,0.1,0,0.7-0.2,0.7s-0.3-0.4-0.3-0.5
		c-0.2-0.4-0.5-0.7-0.9-0.9c-0.2-0.1-0.5-0.1-0.7,0.2c-0.1,0.1-0.1,0.2,0,0.4c0.2,1.2,0.3,2.4,0.2,3.7c0,0.5-0.1,1.1-0.1,1.7
		s-0.1,1.1-0.4,1.4c-0.8,0.7-1.9-0.9-2.3-1.5c-0.6-0.9-1.2-1.7-1.7-2.7c-1.1-2.1-1.2-4.3-1.4-6.7s-0.3-4.4-0.5-6.7
		C721.1,523.1,720.1,523.1,720.1,523.7z"/>
	<path fill="#FFB172" d="M726.7,503.7c1.3,0.7,2.3,2.5,1.7,3.8c-0.5,1-1.6,1.8-1.3,2.8s1.4,1.3,2.4,1.4c4.4,0.4,8.8-0.6,13.1-0.3
		c0.9,0.1,1.8,0.2,2.7,0.1c2.1-0.4,3.6-2.3,4.6-4.3c0.3-0.7,0.7-1.4,1.2-2c0.6-0.8,1.4-1.4,2.1-2.2c0.7-0.7,1.2-1.7,1.2-2.7
		c-0.9,0.5-1.9,0.7-2.8,0.6c-1-0.2-1.8-1.2-1.4-2.1c0.2-0.4,0.5-0.7,0.8-1c0.3-0.3,0.4-0.8,0.2-1.2c-1.5,0.3-2.8,1.4-4.4,1.7
		c-2.5,0.5-5.1-1.2-7.6-0.7c-1.4,0.3-2.6,1.2-4,1.4s-2.6-0.1-3.9,0c-2.3,0.2-4.2,1.7-5,3.8C726.2,503.3,726.3,503.9,726.7,503.7z"/>
	<path fill="#FFB172" d="M726.4,504.1c1,0.5,2,1.8,1.6,3s-1.7,1.9-1.5,3.2c0.3,1.1,1.2,1.8,2.3,1.9c1.5,0.2,3.1,0.3,4.7,0.1
		c1.7-0.1,3.3-0.3,5-0.3c1.7-0.1,3.3,0,5,0.1c1.3,0.2,2.7-0.1,3.9-0.9c1-0.8,1.9-1.7,2.5-2.8c0.4-0.6,0.7-1.3,1.1-1.9
		c0.5-0.7,1-1.4,1.7-2c1.1-1.1,2.3-2.3,2.2-4c0-0.3-0.2-0.5-0.5-0.5c-0.1,0-0.2,0-0.2,0.1c-0.7,0.4-1.6,0.6-2.5,0.5
		c-0.5-0.1-1.2-0.6-1.1-1.2s0.7-1,1-1.4c0.3-0.5,0.3-1,0-1.5c-0.1-0.2-0.3-0.3-0.6-0.2c-1,0.3-1.9,0.6-2.8,1.1c-1,0.5-2,0.7-3.1,0.6
		c-2-0.2-4-1.2-6.1-0.8c-1,0.3-2,0.7-3,1.1c-1.1,0.3-2.2,0.4-3.4,0.3c-1.9-0.2-3.7,0.4-5.1,1.6c-0.7,0.7-1.3,1.5-1.7,2.4
		c-0.2,0.6,0,1.8,0.9,1.5c0.6-0.2,0.3-1.2-0.3-1c0.2,0,0.2,0.1,0.3,0c0-0.1,0.1-0.2,0.1-0.3c0.1-0.2,0.2-0.3,0.2-0.5
		c0.2-0.4,0.5-0.7,0.8-1c0.5-0.6,1.2-1,1.9-1.3c1.8-0.8,3.6-0.1,5.4-0.4s3.3-1.6,5.2-1.5s3.4,0.8,5.2,0.9c2.1,0,3.6-1.4,5.6-1.8
		l-0.6-0.2c0.3,0.4-0.4,0.9-0.6,1.2c-0.2,0.2-0.4,0.5-0.5,0.8c-0.1,0.6,0,1.3,0.5,1.8c1.2,1.4,3.1,0.8,4.6,0.2l-0.8-0.4
		c0.1,1.5-1.2,2.6-2.3,3.5c-0.9,0.9-1.7,2-2.2,3.2c-0.5,1.1-1.3,2.1-2.2,2.9c-1.1,0.9-2.5,1.2-3.9,1c-3.1-0.2-6.1-0.1-9.2,0.2
		c-1.2,0.1-7.9,0.7-6.3-2c0.6-1.1,1.5-1.9,1.3-3.3c-0.2-1.2-1-2.2-2.1-2.7C726.3,503,725.8,503.8,726.4,504.1z"/>
	<path fill="#FFB172" d="M708.8,493.2c0.7-3.2,0.3-6.5-1.1-9.4c-0.7-1.2-1.3-2.6-1.7-3.9c-0.1-1.5,0-3,0.3-4.4
		c0.3-2.2,0.3-4.5,0.7-6.6c0.3-2.2,1.5-4.3,3.2-5.7l0.4,4.9c0.1,0.6,0.2,1.3,0.7,1.7c0.7,0.3,1.4,0,1.8-0.6c0.3-0.6,0.5-1.3,0.5-2
		c0.4-2.5,1.5-4.8,3.1-6.8c0.2-0.3,0.5-0.6,0.9-0.7c0.5-0.1,1,0.2,1.2,0.7c0.2,0.5,0.3,1,0.2,1.5c-0.1,1.1-0.3,2.1-0.7,3.1
		c-0.3,0.7-0.6,1.6,0.1,2c0.5,0.2,1,0.1,1.4-0.2c0.3-0.4,0.8-0.6,1.2-0.9c1-0.3,1.9,0.5,2.9,0.4c1.2-0.2,2.3-1.6,3.3-1.1
		c0.4,0.3,0.8,0.8,0.8,1.3c0.4,1.1,0.5,2.2,0.3,3.4c-0.4,1.6-1.9,2.6-3,3.8c-2,2.2-2.9,5.3-3.4,8.2s-0.7,6-1.6,8.9
		c-0.1,0.4-0.3,0.7-0.5,0.9c-0.5,0.2-1,0.3-1.5,0.2c-1.5-0.2-3,0.1-4.3,0.7c-0.9,0.6-1.9,1-2.9,1.4
		C710.4,494.6,709.3,494.1,708.8,493.2z"/>
	<path fill="#FFB172" d="M709.3,493.4c0.4-2,0.4-4,0.1-5.9c-0.4-1.9-1.1-3.8-2.1-5.5c-0.5-0.9-0.8-2-0.9-3.1c0-1.1,0.2-2.3,0.4-3.4
		c0.3-2.2,0.3-4.4,0.7-6.6c0.3-2.1,1.4-3.9,3-5.3l-0.8-0.4l0.4,4.7c0.1,1,0.3,2.2,1.4,2.5c1.1,0.1,2.1-0.6,2.3-1.6
		c0.2-0.6,0.3-1.2,0.4-1.8c0.1-0.7,0.3-1.3,0.6-2c0.5-1.3,1.1-2.5,1.9-3.6c0.3-0.4,0.9-1.5,1.6-0.9s0.4,1.4,0.3,2
		c-0.1,0.7-0.3,1.4-0.5,2.1c-0.2,0.5-0.4,1-0.5,1.6c-0.1,0.7,0.4,1.4,1.1,1.6c0.2,0,0.4,0,0.7,0c0.5-0.2,1-0.5,1.3-0.9
		c0.6-0.5,1.2-0.3,1.9-0.1c1,0.3,2.1,0.2,2.9-0.4c0.4-0.2,0.8-0.6,1.3-0.6c0.7,0.1,0.8,1,1,1.5c0.5,1.3,0.4,2.8-0.4,4
		c-0.7,1-1.7,1.7-2.5,2.6c-0.8,1-1.5,2.1-1.9,3.2c-0.9,2.5-1.5,5.2-1.8,7.9c-0.2,1.6-0.5,3.2-0.8,4.8c-0.2,0.7-0.3,1.8-1.2,1.9
		s-1.5-0.1-2.2-0.1c-1.4,0.2-2.8,0.6-4.1,1.4c-1.1,0.6-2.9,1.6-3.7,0.1c-0.3-0.6-1.2-0.1-0.9,0.5c0.5,1,1.6,1.5,2.6,1.3
		c1.2-0.3,2.4-0.9,3.5-1.6c1.4-0.6,2.9-0.8,4.4-0.6c0.5,0.1,1.1-0.1,1.5-0.4c0.4-0.5,0.7-1.1,0.8-1.8c1.5-5.4,0.7-12,4.8-16.3
		c0.9-0.8,1.7-1.7,2.4-2.7c0.7-1.1,0.9-2.5,0.5-3.8c-0.2-1.1-0.5-2.6-1.8-2.9c-1-0.3-1.9,0.6-2.7,1c-1.2,0.5-2.3-0.6-3.6-0.2
		c-0.5,0.2-0.9,0.5-1.3,0.9c-0.3,0.2-0.8,0.5-1,0.1c-0.1-0.3,0.1-0.7,0.2-1c0.5-1.3,0.8-2.6,0.9-4c0-1.1-0.6-2.3-1.9-2.3
		c-0.6,0.1-1.2,0.5-1.6,1.1c-1.4,1.8-2.4,3.9-2.9,6.1c-0.1,0.8-0.2,1.5-0.5,2.3c-0.2,0.3-0.5,0.7-1,0.7s-0.5-0.4-0.6-0.7
		c-0.2-0.8-0.2-1.7-0.3-2.5l-0.3-3c0-0.3-0.4-0.7-0.8-0.4c-3.4,2.4-3.7,6.8-4,10.6c-0.1,1.2-0.3,2.3-0.4,3.5c-0.2,1-0.2,2.1-0.1,3.2
		c0.4,2.1,1.8,3.8,2.4,5.8c0.8,2.4,0.9,4.9,0.5,7.3C708.2,493.7,709.1,494,709.3,493.4z"/>
	<path fill="#FFB172" d="M626.8,593.3c-1.3-1-3.1-0.6-4.4,0.5c-0.2,0.2-0.5,0.4-0.8,0.5c-0.5,0-0.9-0.1-1.3-0.4
		c-4.2-2.7-8.5-5.4-12-9c1.1,0,2.3,0.1,3.4,0.4c-0.5-1.7-1-3.3-1.7-4.9l3.6,1.6c0.4,0.2,0.8,0.3,1.1,0c0.1-0.2,0.2-0.4,0.2-0.7
		l0-2.4c0.5,0.5,1.5,1,1.9,0.4c0.3-0.5-0.2-1-0.2-1.6c0-0.7,0.5-1.3,1.2-1.4c0.7-0.1,1.3,0.1,1.9,0.4l-1.2-6.9
		c-0.1-0.5-0.1-1.2,0.4-1.4s1,0.3,1.3,0.8c2.4,3.7,4.8,7.3,6.3,11.5c0.5,1.3,0.8,2.7,1.3,4c0.6,1.2,1.1,2.4,1.4,3.7
		c0.1,0.9,0.2,1.8,0.2,2.7c0.1,0.8-0.1,1.6-0.6,2.3C628.3,594,627.1,594.1,626.8,593.3z"/>
	<path fill="#FFB172" d="M627,592.9c-1.3-0.9-3.1-0.8-4.4,0.1c-0.3,0.3-0.7,0.5-1,0.8c-0.4,0.2-0.9-0.2-1.3-0.4l-2.5-1.6
		c-3.3-2.1-6.4-4.5-9.2-7.2l-0.4,0.8c1.1,0,2.2,0.1,3.2,0.4c0.3,0.1,0.5-0.1,0.6-0.4c0-0.1,0-0.2,0-0.3c-0.5-1.7-1.1-3.4-1.8-5
		l-0.7,0.7l2.5,1.1c0.7,0.4,1.4,0.7,2.2,0.7c0.6-0.1,1-0.5,1-1.1c0.1-0.9,0.1-1.8,0.1-2.6l-0.8,0.4c0.7,0.7,2.2,1.4,2.7,0.2
		c0.1-0.3,0.1-0.6,0-0.9c-0.1-0.3-0.3-0.7-0.3-1.1c0.3-1.1,1.7-0.7,2.4-0.3c0.2,0.1,0.5,0.1,0.7-0.2c0.1-0.1,0.1-0.2,0-0.4l-0.6-3.8
		l-0.3-1.8c-0.2-0.6-0.2-1.1-0.3-1.7c0-0.9,0.7,0,0.9,0.3l1,1.6c0.6,1,1.3,2,1.9,3c1.3,2.1,2.3,4.2,3.1,6.5c0.4,1.2,0.7,2.4,1.2,3.6
		c0.4,1.2,1,2.1,1.4,3.2c0.4,1.3,0.5,2.7,0.4,4c0,0.6-0.1,1.1-0.4,1.6c-0.3,0.3-1,0.5-1.2,0c-0.2-0.5-1.2-0.1-0.9,0.5
		c0.5,0.8,1.6,1,2.3,0.5c0,0,0.1,0,0.1-0.1c1.1-0.7,1.1-2.1,1.1-3.2c0.1-1.5-0.2-2.9-0.7-4.3c-0.6-1.4-1.2-2.8-1.7-4.2
		c-0.9-2.9-2.1-5.8-3.7-8.4c-0.8-1.3-1.6-2.6-2.4-3.8c-0.5-0.8-1.3-2.6-2.6-2.1s-0.7,2.5-0.5,3.5l0.9,5.5l0.7-0.6
		c-1.2-0.5-2.7-0.8-3.6,0.4c-0.3,0.5-0.4,1.1-0.2,1.7c0.1,0.3,0.3,0.7-0.1,0.7c-0.4,0-0.7-0.3-0.8-0.5c-0.2-0.2-0.5-0.2-0.7,0
		c-0.1,0.1-0.1,0.2-0.1,0.3v1.9c0,0.2,0,0.5,0,0.7c-0.2,0.3-0.6,0-0.8-0.1c-1.1-0.5-2.3-1-3.4-1.5c-0.3-0.1-0.6,0-0.7,0.2
		c-0.1,0.1-0.1,0.3,0,0.5c0.7,1.5,1.2,3.1,1.7,4.8l0.6-0.6c-1.1-0.3-2.3-0.4-3.5-0.4c-0.3,0-0.5,0.2-0.5,0.5c0,0.1,0.1,0.3,0.1,0.3
		c2.8,2.8,5.9,5.2,9.2,7.3l2.5,1.6c0.6,0.6,1.4,0.8,2.2,0.6c0.3-0.2,0.6-0.4,0.9-0.6c0.3-0.3,0.7-0.5,1.1-0.7
		c0.9-0.4,1.9-0.3,2.6,0.3C627,594.2,627.5,593.3,627,592.9z"/>
	<path fill="#FFB172" d="M638.9,586.5c-0.5-1.9-0.4-3.8,0.5-5.6c0.8-1.7,1.5-3.5,2.1-5.3c0.4-2,0.1-4,0.7-5.9s2.1-3.5,2.8-5.5
		c0.3-0.9,0.4-1.8,0.8-2.7c0.3-0.9,1.1-1.6,2-1.8c0.4-0.1,0.9,0,1.3-0.1c1.1-0.2,1.8-1.3,2.9-1.3c1.3,0.1,1.9,1.7,1.6,3
		s-1,2.5-0.9,3.7c0.1,0.9,0.4,1.8,0.9,2.6c0.1,0.2,0.2,0.3,0.3,0.4c0.3,0.2,0.8-0.2,1.1,0c0.4,0.2,0.3,0.4,0.3,0.7
		c0.1,1.1,0,2.2-0.4,3.3c-0.3,0.6-0.4,1.2-0.3,1.8c0.2,0.6,1,1,1.4,0.5c1,2.1-1.5,4.5-0.9,6.8c0.4-0.1,0.8,0.1,0.9,0.5
		c0.1,0.4,0.1,0.8-0.1,1.1c-0.5,1.6-1.1,3.1-2,4.5c-0.4,0.7-0.9,1.2-1.5,1.6c-0.6,0.4-1.5,0.4-2.1-0.1c-0.4-0.4-0.6-0.9-1-1.3
		c-1-1.1-2.8-0.4-4,0.5c-1.2,0.9-2.4,2-3.8,1.8C641,589.5,639.3,586.9,638.9,586.5z"/>
	<path fill="#FFB172" d="M639.3,586.3c-1.4-3.9,2.1-7.4,2.6-11.1c0.3-1.9,0.1-4,0.8-5.8c0.6-1.7,1.9-3.1,2.5-4.7
		c0.6-1.4,0.6-4,2.4-4.5c0.5-0.1,0.9-0.1,1.4-0.2c0.4-0.1,0.7-0.2,1-0.4c0.6-0.3,1.3-1,2-0.9c0.7,0.1,1,1,1,1.5
		c0,0.8-0.2,1.7-0.5,2.4c-0.3,0.8-0.5,1.7-0.4,2.6c0.1,0.9,0.4,1.7,0.9,2.5c0.1,0.3,0.5,0.6,0.8,0.7c0.2,0,0.4,0,0.5,0
		c0.3,0,0.3,0,0.4,0.4c0.1,1.1-0.1,2.2-0.5,3.3c-0.4,0.8-0.3,1.7,0.3,2.4c0.5,0.5,1.3,0.5,1.8,0l-0.8-0.1c0.5,1.1-0.1,2.3-0.5,3.4
		c-0.5,1-0.6,2.2-0.5,3.3c0.1,0.3,0.4,0.4,0.6,0.3c0.3-0.1,0.3,0.5,0.3,0.7c-0.1,0.2-0.1,0.5-0.2,0.7c-0.2,0.5-0.3,1-0.6,1.5
		c-0.4,0.9-0.8,1.8-1.4,2.6c-0.5,0.8-1.2,1.7-2.2,1.6s-1.1-1.2-1.8-1.7c-1.2-1-2.9-0.4-4.1,0.3c-0.7,0.5-1.4,1.1-2.1,1.5
		c-0.5,0.3-1.3,0.7-1.8,0.3c-1-0.7-1.5-2-2.3-2.9c-0.4-0.5-1.1,0.2-0.7,0.7c0.9,1,1.4,2.3,2.5,3.1c0.7,0.4,1.5,0.4,2.2,0
		c0.9-0.5,1.8-1.1,2.6-1.7c0.7-0.5,1.9-1.1,2.8-0.7c0.5,0.2,0.7,0.7,0.9,1.1c0.3,0.4,0.6,0.7,1.1,0.9c2.2,0.8,3.7-1.8,4.5-3.4
		c0.6-1.1,1.1-2.4,1.4-3.6c0.2-1-0.3-2.2-1.5-1.9l0.6,0.3c-0.3-1.2,0.4-2.5,0.8-3.6c0.5-1,0.5-2.2,0.1-3.3c-0.1-0.2-0.5-0.3-0.7-0.2
		c0,0-0.1,0-0.1,0.1c-0.1,0.1-0.2,0.1-0.4,0c-0.2-0.2-0.3-0.5-0.2-0.7c0.1-0.5,0.3-1.1,0.4-1.6c0.2-0.9,0.3-1.9,0.2-2.9
		c-0.1-0.7-0.4-1.3-1.2-1.2c-0.1,0-0.4,0.1-0.5,0.1c-0.1,0-0.2-0.3-0.3-0.5c-0.2-0.5-0.4-1-0.6-1.5c-0.4-1.9,1.1-3.5,0.9-5.3
		c-0.1-1.2-0.9-2.5-2.3-2.5c-0.7,0.1-1.4,0.4-2,0.9c-0.4,0.2-0.8,0.4-1.2,0.5c-0.5,0-0.9,0.1-1.3,0.2c-1.7,0.6-2.1,2.5-2.5,4
		c-0.5,1.8-1.7,3.3-2.5,5c-0.8,1.8-1.1,3.7-1.1,5.7c-0.2,2.3-1.2,4.3-2.1,6.4c-0.9,2.1-1.4,4.2-0.7,6.3
		C638.6,587.2,639.6,586.9,639.3,586.3z"/>
	<path fill="#FFB172" d="M651.5,598c1.2-1,2.5-1.9,3.9-2.7c1.4-0.7,3.1-0.9,4.6-0.6c2.3,0.6,4.1,2.9,6.5,3c1-0.1,1.9-0.1,2.9-0.1
		c1.3,0.3,2.1,1.7,1.8,3c-0.3,1.3-1.6,2.1-2.9,1.8c-0.6-0.1-1.1-0.4-1.7-0.3c-0.9,0.3-0.9,1.5-1.4,2.2c-0.6,0.8-1.7,1.3-2.7,1.1
		c-1-0.2-2-0.6-2.9-1.2c-0.4,2.2,2.4,3.5,3.1,5.6c0.1,0.4,0.1,0.8,0,1.2c-0.3,0.4-0.7,0.6-1.1,0.6c-1-0.1-1.9-0.6-2.5-1.5
		c-0.6-0.8-1.2-1.6-2-2.2c-1-0.5-2-0.9-3-1.3c-1-0.5-1.8-1.7-1.3-2.6c0.3-0.5,0.9-0.9,1.1-1.5c0.3-0.9-0.6-1.7-1.3-2.3
		C651.7,599.9,651.2,598.9,651.5,598z"/>
	<path fill="#FFB172" d="M651.8,598.4c2-1.6,4.3-3.5,7.1-3.3c2.3,0.2,4,2.1,6,2.9c1.1,0.3,2.3,0.3,3.5,0.2c1.2-0.1,2.2,0.8,2.3,1.9
		c0,0,0,0,0,0.1c0,1.1-0.9,2-2,2c0,0,0,0-0.1,0c-0.6,0-1.1-0.3-1.7-0.3c-0.5,0-1,0.2-1.3,0.6c-0.7,0.8-0.6,2.1-1.8,2.6
		c-1.4,0.6-2.9-0.2-4.1-0.9c-0.2-0.1-0.5-0.1-0.7,0.2c0,0,0,0.1-0.1,0.1c-0.2,1.6,0.8,2.7,1.7,3.8c0.6,0.6,1,1.3,1.3,2
		c0.5,1.5-1.2,1.3-2,0.7c-0.7-0.7-1.4-1.4-2-2.3c-0.6-0.7-1.5-1.2-2.4-1.5c-1-0.2-1.9-0.7-2.5-1.4c-0.3-0.3-0.4-0.8-0.2-1.2
		c0.2-0.4,0.6-0.7,0.9-1c0.5-0.8,0.3-1.8-0.3-2.5c-0.7-0.8-2.2-1.5-1.7-2.7c0.2-0.6-0.7-0.9-1-0.3c-0.3,0.9,0,2,0.8,2.6
		c0.4,0.4,0.9,0.7,1.2,1.2c0.5,0.6,0.2,1-0.3,1.6c-1.6,1.7-0.2,3.6,1.7,4.3c1.2,0.3,2.2,0.9,3.1,1.7c0.6,0.9,1.4,1.7,2.2,2.4
		c0.8,0.6,1.8,0.8,2.7,0.4c0.8-0.5,1.1-1.6,0.7-2.4c-0.4-0.9-1-1.7-1.7-2.4c-0.6-0.7-1.4-1.6-1.3-2.6l-0.7,0.3
		c1.2,0.8,2.6,1.3,4,1.2c1.2-0.1,2.2-0.9,2.6-2c0.2-0.4,0.3-1.1,0.8-1.3s0.8,0.1,1.2,0.2c0.3,0.1,0.7,0.1,1,0.1
		c1.1-0.1,2.1-0.8,2.6-1.9c0.4-1.1,0.2-2.3-0.6-3.1c-1-1.2-2.4-1-3.8-0.9c-2.8,0.2-4.5-2.3-7-3c-3.4-1-6.5,1.4-9,3.4
		C650.6,598.1,651.3,598.8,651.8,598.4z"/>
	<path fill="#FFB172" d="M627.8,603.3c0.2-1.5-1.9-2.5-3.4-2.5c-0.8,0-1.5,0.3-2.2,0.6c-2.6,1.3-4.5,3.7-5.1,6.5
		c-0.3,0.7-0.1,1.4,0.3,1.9c0.8,0.6,1.9-0.2,2.8-0.7c0.1-0.1,0.2-0.1,0.3-0.1c0.3,0.1,0.2,0.5,0,0.8c-0.9,1.5-1.7,3.1-2.2,4.7
		c-0.3,0.8-0.4,1.9,0.3,2.4c0.7,0.3,1.5,0.3,2.1-0.2c0.9-0.5,1.6-1.2,2.2-2c0.1,0.9,0,1.7-0.2,2.5l6.1-7.8c0.9-1.2,1.9-2.6,1.6-4.1
		c0-0.1-0.1-0.3-0.2-0.4c-0.1,0-0.3,0-0.4,0l-2.1,0.3L627.8,603.3z"/>
	<path fill="#FFB172" d="M628.3,603.3c0.2-2.4-3.1-3.3-4.9-2.8c-2.5,0.8-4.7,2.5-5.9,4.9c-0.6,1.1-1,2.3-1,3.6
		c0.1,0.9,0.9,1.6,1.8,1.6c0.2,0,0.4-0.1,0.5-0.1c0.3-0.1,0.5-0.2,0.8-0.4l0.3-0.2l0.2-0.1c0.2,0,0.2-0.1,0.1-0.3
		c-0.2,0.1-0.4,0.7-0.5,0.9c-0.2,0.4-0.4,0.8-0.6,1.2c-0.7,1.2-1.2,2.6-1.4,4c-0.2,1,0.5,2,1.5,2.1c0.2,0,0.4,0,0.7,0
		c1.5-0.4,2.7-1.4,3.6-2.7l-0.9-0.3c0.1,0.8,0,1.6-0.2,2.4c-0.1,0.5,0.5,0.9,0.8,0.5c2.2-2.8,4.4-5.5,6.5-8.3c1-1,1.5-2.4,1.4-3.8
		c-0.1-0.5-0.4-1-1-1c-0.8,0.1-1.6,0.2-2.3,0.3l0.6,0.5L628.3,603.3c0-0.3-0.2-0.5-0.5-0.5s-0.5,0.2-0.5,0.5v2.1
		c0,0.3,0.2,0.5,0.5,0.5c0,0,0.1,0,0.1,0l0.9-0.1c0.3-0.1,0.7-0.2,1-0.2c0.2,0.1,0.1-0.1,0.2,0.2c0,0.1,0,0.3,0,0.4
		c0,0.3-0.1,0.6-0.2,0.9c-0.6,1.2-1.3,2.3-2.2,3.2l-5.2,6.6l0.8,0.5c0.3-0.9,0.3-1.8,0.3-2.7c0-0.3-0.2-0.5-0.5-0.5
		c-0.2,0-0.3,0.1-0.4,0.2c-0.6,1-1.6,1.7-2.7,2.1c-1.5,0.4-1.2-1.3-0.9-2.2c0.4-1.2,0.9-2.4,1.6-3.5c0.3-0.6,1.3-1.7,0.4-2.3
		c-0.8-0.6-1.9,0.7-2.6,0.8c-1.4,0.2-0.7-1.9-0.4-2.6c0.7-2,2.1-3.7,3.9-4.7c1-0.7,2.3-1,3.5-0.8c0.9,0.2,2,0.8,2,1.9
		C627.2,603.9,628.2,603.9,628.3,603.3z"/>
	<path fill="#FFB172" d="M635.2,613.8c0,1.8,0.4,3.6,1,5.3c0.7,1.7,2.2,2.9,4.1,3.2c0-0.6,0.1-1.1,0.2-1.6c0.4,0.1,0.6,0.5,1,0.8
		c0.8,0.5,1.9,0.2,2.4-0.6c0.4-0.8,0.7-1.7,0.6-2.7c0.2,0.8,1.4,0.8,2,0.3c0.5-0.6,0.7-1.4,0.7-2.2l0.2-3c0.1-1.9,0.2-3.9-0.7-5.6
		c-0.5-1-1.4-1.8-2.4-2.3c-0.2-0.1-0.5-0.2-0.7-0.1c-0.7,0.1-0.8,1-0.8,1.6v2.5c0,0.2,0,0.4-0.1,0.6c-0.3,0.4-0.8,0.5-1.3,0.3
		c-0.4-0.3-0.7-0.6-0.9-1.1l-2.1,2.8c-0.1,0.2-0.3,0.3-0.5,0.4s-0.4-0.2-0.6-0.4c-0.7-0.5-1.7-0.3-2.1,0.4c0,0.1-0.1,0.1-0.1,0.2
		C634.8,613.2,634.8,613.1,635.2,613.8z"/>
	<path fill="#FFB172" d="M634.7,613.8c0.2,2.1,0.3,4.3,1.5,6.2c0.9,1.5,2.4,2.6,4.1,2.8c0.3,0,0.5-0.2,0.5-0.5c0-0.5,0.1-1,0.2-1.5
		l-0.6,0.3c0.3,0.1,0.5,0.5,0.7,0.7c0.2,0.2,0.5,0.3,0.7,0.4c0.6,0.1,1.2,0,1.7-0.3c1.3-0.8,1.4-2.3,1.5-3.7l-1,0.1
		c0.5,1.4,2.4,1.2,3.1,0.1c0.4-0.8,0.6-1.7,0.6-2.6c0.1-1.1,0.2-2.2,0.2-3.3c0.1-2,0.1-4.1-1.1-5.7c-0.7-1-2.8-3.1-4-1.7
		c-0.6,0.7-0.5,1.8-0.5,2.7c0,0.4,0.2,1.8-0.2,1.9s-0.9-0.6-1.1-0.9c-0.1-0.2-0.5-0.3-0.7-0.2c-0.1,0-0.1,0.1-0.2,0.2l-1.1,1.5
		l-0.5,0.7c-0.1,0.1-0.4,0.7-0.6,0.7c-0.1-0.1-0.2-0.2-0.3-0.3c-0.1-0.1-0.3-0.2-0.5-0.3c-0.3-0.1-0.7-0.1-1,0
		c-0.7,0.2-1.3,0.7-1.6,1.3c-0.3,0.7-0.2,1.1,0.2,1.8s1.2,0.1,0.9-0.5c-0.1-0.2-0.3-0.4-0.3-0.6c0.1-0.3,0.3-0.6,0.6-0.8
		c0.3-0.2,0.6-0.2,0.9-0.2c0.3,0.1,0.5,0.5,0.8,0.6c0.7,0.3,1.1-0.4,1.5-0.8l1.9-2.5h-0.9c0.4,0.7,1,1.5,1.9,1.5s1.3-0.7,1.3-1.5
		s0-1.3,0-2c0-0.4,0-0.9,0.1-1.3c0.4-1,2.1,0.8,2.5,1.2c1.4,1.8,1.1,4.3,0.9,6.5c0,1.1-0.1,2.2-0.3,3.4c0,0.5-0.3,1-0.7,1.2
		c-0.3,0.1-0.8,0.1-0.9-0.2c0-0.3-0.3-0.5-0.6-0.4s-0.5,0.3-0.4,0.6c0,1-0.1,2.4-1.1,2.9c-1,0.5-1.4-0.5-2.2-0.9
		c-0.3-0.1-0.5,0.1-0.6,0.3c-0.2,0.6-0.3,1.2-0.3,1.8l0.5-0.5c-1.5-0.2-2.8-1.2-3.5-2.6c-0.7-1.7-1.1-3.5-1.1-5.3
		C635.7,613.2,634.7,613.2,634.7,613.8z"/>
</g>
</svg>
