<?xml version="1.0" encoding="utf-8"?>
<!-- Generator: Adobe Illustrator 21.0.0, SVG Export Plug-In . SVG Version: 6.00 Build 0)  -->
<svg version="1.1" id="Camada_1" xmlns="http://www.w3.org/2000/svg" xmlns:xlink="http://www.w3.org/1999/xlink" x="0px" y="0px"
	 viewBox="0 0 284.9 132.5" style="enable-background:new 0 0 284.9 132.5;" xml:space="preserve">
<style type="text/css">
	.st0{fill:#738C41;}
</style>
<title>idv sem ícone vazada</title>
<g>
	<path class="st0" d="M23.3,0c-0.9,0-1.8,0-2.6,0C21.6,0.2,22.5,0.2,23.3,0z"/>
	<path d="M158.7,51.5c0.6-1.5,0.8-3.1,1.1-4.8c0.2,0.6,0.3,0.9,0.4,1.3c0.1,0.4,0.3,0.8,0.5,1.2c3.5,8.3,9,14.4,18.4,15.5
		c7.6,0.9,13.8-1.7,18-8.3c0.6-0.9,0.8-0.9,1.5-0.2c4.1,4.1,10.7,3.4,13.8-1.5c0.6-0.9,1-2,1.6-2.9c0.5,0.8,1,1.7,1.6,2.5
		c2.7,3.8,6.2,5.1,10.7,4c0.6-0.1,0.9,0,1.1,0.5c3.3,5.9,11,5.4,14.8,1c1.4-1.6,2.5-3.4,3.3-5.6c0.6,1.9,1.2,3.6,2.2,5.2
		c3.4,5.4,11.3,5.9,15.3,1c2.7-3.3,3.4-7.1,3.5-11.2c0.2-8.3-1.6-16.4-3.3-24.4c-0.9-4.3-2.3-8.4-5.2-11.8c-5.1-6.3-13.6-7-19.8-1.8
		c-1.5,1.3-2.8,2.8-4,4.5c-0.1-0.5-0.2-0.9-0.3-1.3c-1.7-6.8-5.7-11.6-12.6-13.5c-0.7-0.2-4.4-0.7-6.6-0.6
		c-5.1,0.5-9.8,2.1-14.3,4.5c-2.7,1.4-4.7,3.5-5.5,6.5c-0.3,1.2-0.3,1.2-1.3,0.3c-3.7-3.5-8.6-3.9-12.7-1c-0.7,0.5-1.2,0.6-1.8-0.1
		c-1.9-2-4.2-3-7-2.9c-1,0.1-1.6-0.4-2-1.3c-0.9-1.9-2.4-3.3-4.2-4.3c-2.2-1.2-4.6-1.5-7.1-1.5c-5.4-0.1-10.8,0.6-16,2
		c-4.2,1.1-8.2,2.6-11.3,5.9c-0.5,0.6-1.1,0.4-1.8,0.3c-3.4-0.8-6.5-0.3-9,2.3c-1,1-1.7,2.2-2.4,3.6c-2.1-3.1-4.4-5.5-7.9-6.4
		c-3.6-0.9-6.8,0.2-9.6,2.6c0.1-2-0.5-3.6-1.5-5.2c-1.9-3.1-4.6-5-8.3-4.9C84.7,0.6,78.7,2,72.9,4.4C71.1,5,69.5,6,68.4,7.6
		c-0.5,0.7-1,0.9-1.8,0.7C63,7.4,60,8.3,57.4,11c-1.1,1.1-1.9,2.4-2.7,3.6c-0.8,1.3-1.5,2.8-2.2,4.1c-0.6-2.4-1.6-4.5-2.9-6.6
		C46.5,7.3,41.2,6.4,36.8,9c-0.9,0.5-1.1,0.3-1.6-0.5C32.7,4,29.3,0.5,23.8,0c-0.2,0-0.3,0-0.5,0c0,0,0,0,0,0c0,0,0,0,0,0
		c-0.9,0.4-1.8,0.4-2.6,0c0,0,0,0,0,0c0,0,0,0,0,0c-0.2,0-0.3,0-0.5,0C19,0.4,17.6,0.4,16.4,1C13,2.6,10.3,5.2,8.4,8.4
		c-3,5-4.9,10.4-6.2,16c-1,4.1-1.8,8.3-2.1,12.6c0,0.5-0.2,3.8,0,6.7c0.1,1,0,2.3,1.2,5.5c3.2,8.7,12.3,7.5,16,2.8
		c1.3-1.6,2.3-3.4,3.1-5.3c1.7,5.7,4.2,8.6,8.1,9.3c4.5,0.8,7.9-0.8,10.4-4.6c0.4,0.3,0.5,0.8,0.6,1.2c1.3,2.9,2.7,5.8,5,8.1
		c3.4,3.6,8.5,4.1,12.5,1.1c1.6-1.2,2.8-2.7,3.9-4.3c1.7-2.7,2.8-5.6,4-8.7c0.6,2.6,2.1,4.4,4.1,5.8c4.2,3,8.7,4.6,13.9,2.7
		c2.2-0.8,4.4-1.6,6.4-2.6c1.7-0.8,3.4-1.7,5.1-2.6c0.5,2.2,1.1,4.3,2.1,6.2c1.9,3.3,4.5,5.4,8.4,5.3c3.9-0.1,6.9-1.9,8.6-5.5
		c0.1-0.2,0.2-0.3,0.3-0.6c1.3,1.8,2.8,3.3,4.5,4.5c5,3.5,11.1,2.5,14.7-2.4c1-1.3,1.8-2.8,2.4-4.3c2.3-5.8,2.9-11.8,3.4-17.9
		c0.1-0.8,0-1.7,0.3-2.5c0.1,0.4,0.1,0.9,0.1,1.3c0.1,4,0,7.9,0.5,11.8c0.5,3.7,1.9,6.9,5.2,8.9C150.2,60,156.4,57.5,158.7,51.5z
		 M237.4,20.8c1.1-2.2,2.6-4.2,4.5-5.8c3.7-3,8.6-2.6,11.7,1.1c2.6,3,3.6,6.7,4.4,10.5c1.4,6.6,2.8,13.1,3,19.9c0.1,3,0,6-1.3,8.8
		c-0.9,1.8-2.1,3-4.3,2.9c-1.4-0.1-2.4-0.6-3.2-1.8c-1.3-2-1.7-4.3-1.9-6.6c-0.1-1.5-0.2-3-0.2-4.5c0-0.5-0.1-0.7-0.7-0.6
		c-2.2,0.4-4.5,0.7-6.7,1c-0.7,0.1-1,0.3-1.1,1.1c-0.3,2.1-0.7,4.3-1.5,6.3c-0.5,1.2-1.2,2.3-2,3.2c-2.2,2.4-5.1,1.9-6.4-1.1
		c-0.9-2.1-0.9-4.4-1-6.6C231.4,38.8,233.1,29.5,237.4,20.8z M200.3,13.3c0.2-1.5,0.9-2.6,2.2-3.3c4.3-2.5,8.9-4.1,13.8-4.4
		c6.3-0.4,11,3.6,12.3,9.9c1.4,6.5-0.5,11.8-5.4,16.2c-0.8,0.8-1,1.2-0.4,2.3c2.4,3.8,4,7.9,4.7,12.3c0.2,1.5,0.2,2.9-0.3,4.4
		c-1,2.7-4.2,3.4-6.2,1.3c-1.5-1.5-2.4-3.4-3.1-5.3c-1-2.5-1.9-5.1-2.9-7.6c-0.3-0.8-0.6-1.1-1.5-0.7c-3.1,1.2-3.1,1.2-3.3,4.6
		c-0.1,2.7-0.5,5.4-1.7,7.9c-0.7,1.4-1.6,2.5-3.3,2.5c-1.8,0-2.8-1-3.5-2.4c-1.1-2.3-1.4-4.8-1.5-7.3c-0.1-1.7,0.2-11.1,0.2-14.1
		c0-4-0.1-8.1-0.2-12.1C199.9,16,200.1,14.6,200.3,13.3z M35.1,46.5c-0.3,1-0.7,1.8-1.4,2.6c-1.8,2.3-5.2,2.1-6.7-0.4
		c-1.5-2.5-1.8-5.4-2-8.2c-0.1-1-0.1-1.9-0.1-2.9c0-0.5-0.1-0.7-0.7-0.6c-2.3,0.4-4.7,0.7-7,1c-0.8,0.1-0.8,0.6-0.9,1.2
		c-0.3,2.3-0.7,4.5-1.7,6.6c-0.6,1.3-1.4,2.6-2.6,3.5c-2,1.5-4.2,0.9-5.3-1.3c-1.2-2.2-1.3-4.7-1.2-7.1c0.4-9.2,2.3-18.1,6.1-26.6
		c1.1-2.5,2.6-4.8,4.8-6.7c4.1-3.4,9.2-2.9,12.4,1.4c2.2,2.9,3.2,6.3,4,9.8c1.5,7,3,13.9,3.1,21.1C35.9,42.2,35.8,44.4,35.1,46.5z
		 M66.7,24.7c-1,4.8-2.7,9.3-4.3,13.9c-1.4,4.1-2.5,8.3-4.2,12.2c-0.9,2-1.8,3.9-3.3,5.5c-2.5,2.8-4.9,2.7-7.2-0.3
		c-2.5-3.2-3.9-7-5.1-10.8C40.5,39,38.9,32.6,37.8,26c-0.4-2.8-0.6-5.6-0.1-8.5c0.1-0.8,0.4-1.6,0.8-2.4c1-1.9,4.2-2.8,6-0.3
		c1.7,2.5,2.6,5.2,3.3,8c1.2,4.4,2.2,8.9,3.4,13.3c0.1,0.6,0.4,1.1,0.6,2c1-3.1,1.8-5.8,2.7-8.6c1.3-3.9,2.6-7.7,4.6-11.3
		c0.7-1.3,1.5-2.5,2.5-3.5c2.1-2.1,4.6-1.4,5.4,1.4C67.9,19.1,67.2,21.9,66.7,24.7z M93.9,45.6c-0.7,0.6-1.4,1.1-2.1,1.6
		c-3.4,2.1-7,3.6-10.8,4.9c-2.1,0.8-4.2,0.6-6.3-0.3c-3.1-1.4-4.9-3.5-5.1-7.1c-0.4-7.1-1-14.2-0.2-21.3c0.4-3.5,1-7,2.4-10.3
		c0.7-1.7,1.9-2.9,3.6-3.6c4.9-1.8,9.9-2.8,15-3.4c1.8-0.2,3.6,1.2,4.3,3.1c0.7,1.9,0.1,3.8-1.6,5c-2.8,1.9-6,3.2-9.1,4.6
		c-0.3,0.1-0.5,0.2-0.8,0.3c-2.3,0.5-3.6,1.8-3.5,4.3c0,0.7-0.2,1.5-0.4,2.4c2.6-1.1,4.9-2.2,7.5-2.5c2.7-0.3,4.4,0.4,5,2.3
		c0.8,2.4,0,4.5-2.3,5.9c-2.8,1.7-5.8,2.9-8.9,3.8c-1.1,0.3-1.3,1-1.4,1.9c-0.1,1.3,0,2.6,0.4,3.9c3-0.9,5.9-2,8.9-2.7
		c1.1-0.3,2.2-0.6,3.3-0.2c1.7,0.5,2.7,1.7,3.1,3.4C95.5,43,95.1,44.5,93.9,45.6z M166.1,20.2c0.5-1.9,1.4-3.7,2.6-5.2
		c2.3-2.8,5.6-2.5,7.3,0.8c1.5,3,1.2,6,0.6,9.1c-0.9,4.4-1.6,8.7-1.5,13.2c0.1,2.6,0.2,5.3,1.4,7.7c1.2,2.5,2.9,3.5,5.2,3
		c1.2-0.3,2-1.1,2.6-2.1c1-1.6,1.4-3.5,1.5-5.4c0.7-6.6-0.6-12.9-2.3-19.2c-0.4-1.4-0.7-2.7-0.6-4.1c0.1-1.5,0.7-2.8,2.2-3.5
		c1.4-0.6,2.8-0.4,4.1,0.6c1.6,1.3,2.6,3,3.4,4.9c2.9,7.2,4,14.7,3.2,22.4c-0.3,3.2-0.9,6.3-2.3,9.3c-2.3,5.1-6.4,7.7-12,7.8
		c-7.2-0.1-11.7-4-14.8-10c-2.3-4.5-3-9.4-2.8-14.5C164.2,29.9,164.7,25,166.1,20.2z M130.8,52.2c-0.5,1.6-1.2,3-2.2,4.4
		c-1.8,2.3-4.4,2.8-6.9,1.2c-2.2-1.5-3.8-3.6-4.9-5.9c-2.1-4.3-3.8-8.8-5.7-13.2c-0.2-0.4-0.2-0.9-0.7-1.3c0,2.4,0.1,4.6,0,6.9
		c-0.1,3.3-0.4,6.6-1.2,9.8c-0.5,1.9-1.3,3.6-3.6,4c-1.7,0.3-2.9-0.4-3.8-1.7c-1.4-2-2-4.4-2.3-6.7c-1.3-10.1-0.2-19.9,2.6-29.6
		c0.5-1.7,1.3-3.3,2.5-4.8c1.9-2.3,4.6-2.5,6.8-0.4c2.1,2.1,3.4,4.6,4.4,7.3c2.2,5.7,4.1,11.6,6,17.4c0.2,0.1,0.3,0,0.3-0.2
		c0-1.4-0.1-2.6-0.1-4.1c0-5.3-0.4-10.6,0.7-15.8c0.3-1.5,0.8-3,1.7-4.3c1.3-1.8,3.5-1.9,5.1-0.3c1.7,1.7,2.4,3.9,2.8,6.1
		C134.4,31.5,133.8,41.9,130.8,52.2z M154.9,18.6c-0.7,8.1-1.1,16.3-0.6,24.4c0.1,2.3,0.1,4.6-0.8,6.8c-0.9,2.2-2.6,3.2-4.7,2.7
		c-1.5-0.3-2.3-1.5-2.9-2.8c-0.9-1.9-0.9-4-0.9-6.1c-0.1-4,0-8.1,0-12.1c0,0-0.1-8.1-0.1-12.1c0-0.9-0.1-1.2-1.1-1.1
		c-2.1,0.3-4.3,0.2-6.4-0.5c-3.1-1.1-3.7-3.7-1.3-6c2.2-2.1,4.9-3.1,7.8-3.8c5-1.3,10-2,15.2-2c1.2,0,2.3,0.1,3.4,0.5
		c3.1,1,3.9,4.2,1.6,6.5c-1.5,1.6-3.4,2.5-5.4,3.3c-0.8,0.3-1.6,0.7-2.5,0.8C155.1,17.3,155,17.8,154.9,18.6z"/>
	<path d="M23.3,0C23.3,0,23.3,0,23.3,0c-0.9,0.2-1.8,0.2-2.6,0c0,0,0,0,0,0C21.6,0.4,22.5,0.4,23.3,0z"/>
	<path d="M284.6,98.5c-0.4-4.5-1.3-8.8-3.3-12.9c-5.2-10.8-16.9-13.8-26.6-6.7c-0.1,0.1-0.2,0.2-0.4,0.1c0-0.7,0-1.3,0-1.9
		c-0.1-4.7-3.1-8.2-7.6-8.7c-3.7-0.4-6.6,1.1-9,3.8c-1.1,1.2-2,2.5-3,4c-0.2-0.7-0.4-1.2-0.6-1.7c-2.3-6-8.7-8.3-14-4.9
		c-3.2,2-4.6,5.2-4.9,8.9c-0.2,2.2-0.3,4.4-0.4,7c-3-5.4-6.9-9-13.1-9c-6.1,0-10.2,3.5-13.6,8.4c0.1-2.9-0.2-5.4-1.3-7.8
		c-3.1-6.2-8.5-8.7-15.1-8.8c-5.3-0.1-10.1,1.7-14.8,4.1c-3.1,1.6-4.7,3.9-5.2,7.3c-0.1,1-0.3,1.9-0.3,2.9
		c-0.4,6.5-0.6,12.9-0.5,19.4c0.1,4.9,0.2,9.7,0.9,14.6c0.7,4.2,2.9,6.8,7.2,7.7c5.1,1,10.2,0.7,15.1-0.9c1.9-0.6,3.7-1.6,5.5-2.6
		c0.3,1.6,0.5,3.1,1,4.6c1.2,3.2,3.1,5.8,6.6,6.5c3.8,0.8,7-0.5,9.5-3.4c1.3-1.5,2.2-3.2,3.1-5.3c0.6,1.9,1.1,3.5,2,5
		c2.4,3.9,7.2,5.6,11.5,4c3.4-1.2,5.1-3.9,6.3-7.1c0.3-0.8,0.5-0.9,1.3-0.7c4.4,1.2,8.4-0.4,11-4.1c0.8-1.2,1.4-2.6,1.8-4
		c0.4,0.2,0.5,0.6,0.7,1c1.3,2.3,2.9,4.4,5,6.1c2.7,2.1,5.7,2.7,9,1.8c0.8-0.2,1.2-0.1,1.7,0.5c2.5,3.4,5.8,5.9,10.1,6.9
		c0.8,0.2,2.2,0.5,3.2,0.5c0.9,0,1.8,0,2.6-0.2c2.2-0.2,4.4-0.8,6.4-1.9c5.2-2.8,8.3-7.3,10.2-12.7
		C284.9,111.5,285.3,105,284.6,98.5z M180.3,99.2c3.6,4.7,2.5,12-2.5,15.8c-4.5,3.5-9.8,4.4-15.4,3.9c0,0-0.1,0-0.1,0
		c-4.9-0.8-4.6-0.7-5.2-5.6c-0.8-6-0.6-12-0.6-18c0.1-4.5,0.2-8.9,0.5-13.4c0.2-2.6,1.1-4.5,3.6-5.5c3.7-1.6,7.4-3,11.5-2.9
		c4.2,0.2,7.9,1.6,9.8,5.7c1.7,3.6,1,7.2-0.7,10.6c-1.3,2.6-3.2,4.6-5.7,6.4C177.5,96.8,179.1,97.6,180.3,99.2z M214.3,123.7
		c-0.9,1.8-2,3.2-4.4,3.1c-1.4-0.1-2.4-0.6-3.2-1.8c-1.4-2.1-1.7-4.5-1.9-7c-0.1-1.4-0.2-2.7-0.2-4.1c0-0.6,0-0.9-0.8-0.7
		c-2.3,0.4-4.7,0.7-7,1c-0.6,0.1-0.7,0.4-0.7,0.9c-0.3,2.3-0.7,4.5-1.6,6.6c-0.6,1.2-1.2,2.4-2.3,3.4c-2.1,2-4.7,1.5-6-1.1
		c-0.7-1.6-1.1-3.9-1.1-8.2c0.7-8.1,2.4-17.4,6.5-26c1.2-2.5,2.8-4.8,5.2-6.5c3.5-2.5,8-2.1,10.9,1.2c1.9,2.1,3.1,4.7,3.8,7.4
		c2.2,8.3,3.8,16.6,4,25.2C215.6,119.3,215.3,121.6,214.3,123.7z M247.5,119.1c-1.6,0.8-3.1,0.4-4.5-0.6c-2.2-1.7-3.5-4-4.7-6.4
		c-1.6-3.2-3.1-6.4-4.6-9.6c-0.4-0.8-0.6-0.7-1.3-0.3c-1.9,0.9-2.8,2.1-2.8,4.4c0,2.4-0.3,4.8-0.8,7.1c-0.3,1.2-0.7,2.4-1.5,3.4
		c-2.1,2.7-5.8,2.4-7.4-0.6c-0.8-1.6-1-3.3-0.8-5c0.7-9.3,1.1-18.7,1.4-28c0.1-1.8,0.2-3.6,0.4-5.4c0.3-2.5,1.8-4.2,3.9-4.6
		c1.8-0.4,3.1,0.3,4,1.9c0.9,1.7,1.2,3.6,1.2,5.6c0.1,3.5,0,7-0.2,10.5c0,0.2-0.1,0.5,0.2,0.7c3-2.6,5.6-5.7,7.4-9.2
		c1.3-2.4,2.5-4.9,4.4-7c0.7-0.8,1.4-1.5,2.3-1.9c2.6-1.1,4.8,0.3,4.9,3.1c0.1,3.1-0.9,6.1-2.2,8.9c-1.5,3.2-3.4,6.1-5.9,8.7
		c-0.6,0.6-0.5,1-0.1,1.6c2.3,3.9,4.3,7.8,6.3,11.8c1.1,2.3,2.1,4.7,2.2,7.3C249.3,116.9,249,118.4,247.5,119.1z M279.4,103.9
		c0,5.5-0.7,10.9-3.5,15.7c-2.2,3.9-5.2,6.6-9.9,7.2c-5.1,0.6-9-1.3-11.8-5.5c-2.3-3.4-3.3-7.2-3.8-11.2c-0.8-6.2-0.3-12.4,1.8-18.3
		c1-2.9,2.6-5.5,4.7-7.7c4.9-5.1,14.6-5.6,19.1,3.2c1.8,3.5,2.6,7.3,3.1,11.2C279.4,100.3,279.5,102.1,279.4,103.9z"/>
	<path d="M128.6,79.7c-1.5-2.5-3.4-4.4-6.4-5c-2.8-0.5-5.5,0.2-7.9,1.6c-0.4,0.2-0.7,0.6-1.3,0.1c-3.8-3.2-8-2.9-12.2-0.8
		c-0.8,0.4-1.3,0.4-2.1,0.1c-4.2-1.9-8.7-0.5-11.2,3.4c-0.2,0.4-0.4,0.9-0.8,1.2c-1.5-1.5-3-2.9-5-3.9c-6.1-2.9-13.4-1.5-18.3,3.4
		c-1.1,1.1-1,1.1-1.9-0.1c-2-2.6-4.4-4.5-7.7-5.2c-6.6-1.4-12.1,0.7-16.4,5.8c-7.1,8.2-8.8,22.5-4,32.2c4.4,8.9,13.5,11.9,22.3,7.3
		c2.1-1.1,3.9-2.7,5.5-4.5c1.6,2,3.3,3.8,5.5,5c6.3,3.5,14.4,2,19.4-3.6c0.9-1,0.9-1,1.6,0.2c2.9,4.8,8.5,5.9,13.1,2.7
		c0.6-0.4,0.8-0.3,1.2,0.2c3.6,3.6,8.9,3.2,12.1-0.8c0.4-0.5,0.5-0.7,1.1-0.2c3.7,3.3,9.2,2.8,12.3-1.2c1.5-2,2.5-4.3,3-6.7
		c1.5-7.4,1.4-14.9,0.6-22.3C130.9,85.4,130.2,82.4,128.6,79.7z M51.5,90.4c-0.4-1.2-1.3-1.5-2.3-0.8c-0.3,0.2-0.7,0.6-0.9,0.9
		c-2.6,4.2-3.8,8.8-2.6,13.7c0.9,3.7,2.9,4.3,5.8,1.7c0.6-0.6,1.3-1.2,2-1.8c1.2-1,2.7-1.3,3.9-0.6c1.3,0.8,1.8,2.1,1.7,3.6
		c-0.1,1.5-0.6,2.9-1.5,4.1c-2.2,3-5.3,4.8-9,5.1c-4.3,0.4-7.4-1.8-9.5-5.3c-2.3-3.9-3-8.2-2.7-12.7c0.3-4.9,1.6-9.6,4.6-13.6
		c1.9-2.6,4.4-4.5,7.7-5c4.4-0.7,7.9,1.1,9.7,5.2c0.8,1.9,1.3,3.9,1.3,5.9c0,3-1.2,5-3.5,5.6c-2.4,0.7-4.3-0.7-4.4-3.3
		C51.6,92.2,51.7,91.3,51.5,90.4z M83.6,111.1c-2.9,4.6-7.7,6.6-12.4,5.1c-3.1-1-5.1-3.2-6.6-6c-2.9-5.3-3.3-11-2-16.9
		c0.9-4.2,2.6-8.1,6.1-10.8c4.3-3.4,10.3-2.8,13.9,1.2c2.6,3,3.8,6.5,4.3,10.3c0.1,1.1,0.2,2.2,0.3,3.2
		C86.9,102.2,86.2,106.9,83.6,111.1z M125.3,109.4c-0.3,1.7-0.9,3.2-1.9,4.6c-1.6,2.1-4,1.9-5.1-0.5c-1.1-2.6-0.9-5.4-0.9-8.2
		c0-3.6,0.4-7.1,0.3-10.7c0-0.8,0-1.6-0.3-2.4c-0.4-1.2-1.4-1.4-2.2-0.5c-0.6,0.7-0.9,1.5-1.2,2.3c-1.1,3.1-1.1,6.4-1.4,9.6
		c-0.2,2.9-0.5,5.7-1.2,8.5c-0.3,1.1-0.7,2.2-1.4,3.2c-1.2,1.7-3.3,1.7-4.3-0.1c-1-1.7-1.3-3.6-1.5-5.5c-0.4-4.1,0-8.2-0.2-12.3
		c-0.1-1.4-0.1-2.7-0.5-4c-0.2-0.6-0.3-1.3-1.1-1.4c-0.7-0.1-1.2,0.5-1.5,1c-1.5,2.6-2.2,5.4-2,8.4c0.2,2.8,0.4,5.6,0.6,8.4
		c0.1,1.3,0.1,2.6-0.5,3.9c-0.7,1.3-1.8,2.1-3.3,2.2c-1.5,0.1-2.5-0.8-3.1-2c-1.2-2.1-1.7-4.4-1.9-6.8c-0.6-6.5-0.8-13,0-19.5
		c0.2-1.9,0.6-3.7,1.6-5.4c1-1.7,2.2-2.2,4-1.7c1.6,0.4,2.3,1.4,2.3,3.3c0,0.2,0,0.4,0,0.9c1.2-1.4,2.3-2.5,3.5-3.4
		c4.5-3.2,8.3-2,10.1,3.2c0.1,0.4,0.2,0.8,0.4,1.3c0.6-0.8,1.2-1.6,1.8-2.4c1.3-1.6,3-2.8,5-3.2c1.7-0.4,3,0.1,4,1.5
		c1.5,2,2,4.4,2.3,6.8C126.6,95.4,126.6,102.4,125.3,109.4z"/>
	<path d="M210.3,27.9c2.7-0.9,4.8-2.1,6.4-4.1c1-1.2,1.3-2.6,1.1-4.2c-0.2-1.5-1-2.2-2.4-2.3c-1.7-0.1-3.1,0.4-4.6,1.1
		c-0.4,0.2-0.5,0.5-0.5,0.9C210.3,22.1,210.3,24.9,210.3,27.9z"/>
	<path d="M243.5,36.5c1.1-0.2,2.2-0.3,3.3-0.4c2.8-0.4,2.8-0.3,2.7-2.9c-0.1-2.7-0.2-5.2-1.3-7.5c-0.3-0.7-0.7-1.4-1.6-1.4
		c-0.9,0-1.2,0.7-1.5,1.3c-0.1,0.2-0.3,0.5-0.4,0.8c-1.1,3.1-1.6,6.2-2,9.4C242.6,36.4,242.8,36.6,243.5,36.5z"/>
	<path d="M23.3,19c-0.3-0.9-0.7-2-1.9-2.1c-1.3-0.1-1.6,1.1-1.9,2c-1.2,3.1-1.7,6.4-2.1,9.7c-0.1,0.7,0.3,0.6,0.7,0.6
		c1.2-0.1,2.5-0.3,3.7-0.4c2.6-0.4,2.6-0.4,2.5-2.9C24.2,23.5,24.1,21.2,23.3,19z"/>
	<path d="M167.1,86.6c-0.3,1.4-0.4,2.9-0.4,4.2c0,0.5,0,0.8,0,1.1c0,1.6,0.4,1.9,1.8,1c2.4-1.4,3.7-3.5,4.4-6.1
		c0.2-0.7,0.1-1.4-0.5-1.9C170.9,83.7,167.5,84.8,167.1,86.6z"/>
	<path d="M171.1,101.8c-2.3-0.6-4.3,0.9-4.5,3.2c0,0.4,0,0.8,0,1.2c0,0,0,0-0.1,0c0,0.6,0,1.1,0.1,1.7c0.1,0.4,0.2,0.7,0.8,0.7
		c1.9-0.1,4.8-2.6,5.1-4.5C172.8,102.9,172.3,102.1,171.1,101.8z"/>
	<path d="M265.1,93.7c-1.5,0-2.3,1.1-2.9,2.3c-0.3,0.5-0.4,1.1-0.6,1.7c-0.6,2-0.7,4.2-0.7,6.3c0,0.9-0.1,1.8,0,2.6
		c0.2,2.3,0.5,4.6,1.6,6.7c0.6,1.1,1.3,2.1,2.7,2.1c1.4-0.1,1.9-1.1,2.4-2.2c0.8-1.9,1.2-3.9,1.3-5.9c0.3-3.8,0.3-7.5-1.1-11.1
		C267.4,95,266.7,93.8,265.1,93.7z"/>
	<path d="M203.8,98.9c-0.2-1.5-0.4-3-1-4.4c-0.4-0.8-0.7-1.6-1.7-1.6c-1,0-1.2,0.9-1.6,1.5c-0.1,0.2-0.2,0.4-0.3,0.7
		c-1.1,3-1.6,6.2-2,9.3c-0.1,0.7,0.2,0.8,0.8,0.7c1.7-0.2,3.4-0.5,5.1-0.6c0.9-0.1,1.2-0.5,1-1.2
		C203.9,101.8,203.9,100.4,203.8,98.9z"/>
	<path d="M74.8,89.8c-1.3,0-1.7,1.1-2.2,1.9c-0.2,0.3-0.3,0.6-0.4,0.9c-1,3-1.4,6-0.8,9.1c0.3,1.9,0.7,3.7,1.9,5.3
		c0.9,1.2,2.2,1.2,3.1,0.1c0.5-0.7,0.9-1.4,1.1-2.2c0.6-1.9,0.8-3.8,0.8-5.8c0-2.5-0.3-4.9-1.4-7.2C76.6,90.8,76,89.8,74.8,89.8z"/>
</g>
</svg>
