<svg xmlns="http://www.w3.org/2000/svg" viewBox="0 0 189.42 214.35"><title>pattern_1</title><g id="Layer_2" data-name="Layer 2"><g id="Layer_1-2" data-name="Layer 1"><path d="M48.92,213.74c-3.66.21-7.31.5-11,.6s-5.64-1.36-4.64-5.52c2.92-12.09,4.55-24.55,9.84-36,1-2.23.1-3.38-1.29-4.73-16-15.55-24.29-34.53-26.21-56.68-1-11.54-6-22.11-10-32.84-5.74-15.36-6.87-31-4.52-47.16C2.36,23.2,3,14.9,4,6.64,4.33,4.27,4,1.26,6.88.22c2.71-1,4.19,1.43,5.85,3,7,6.62,14,13.38,21.12,19.85,13.8,12.46,22,28.17,27.44,45.65A110.28,110.28,0,0,0,67.9,84.84c1.25,2.55,2.69,3.73,5.76,3.22,17.14-2.87,31.53,2.13,42.84,15.47,1.1,1.29,2,2,3.72.76C138,90.67,159.76,88.46,180.43,83.13c2.56-.66,5.65-2.73,8,0,2.52,2.92-.28,5.68-1.36,8.26C183.14,100.7,179,110,175,119.27a82.54,82.54,0,0,1-24.61,32.23,191.37,191.37,0,0,0-30.68,30.6c-16.39,20.68-38.56,30.44-64.76,31.36-2,.07-4,0-6,0Zm.4-6.91c27.14,0,49.39-8.83,65.66-29.7a170.71,170.71,0,0,1,28.79-28.95c9.37-7.42,17.52-16,22.75-26.85,4.4-9.13,8.26-18.53,12.28-27.84.34-.79,1.37-1.79.4-2.67-.82-.74-1.88-.18-2.85.06-3.71.89-7.42,1.85-11.16,2.59C147.31,97,130.56,103,116.82,115.61c-10.46,9.62-22.19,17.28-34.71,24.18-24.53,13.53-36.57,35.7-40.41,63.32C59.85,192.9,76.79,182,88.11,164.19a93.22,93.22,0,0,1,38.46-34c2.08-1,4.53-2.35,6,.72,1.39,2.9-.78,4.26-3,5.32-15.77,7.57-27.82,19.17-37.38,33.68a84.28,84.28,0,0,1-22,23C63.67,197.46,57,201.75,49.32,206.83ZM7.16,50.12c-.48,8.72,2.68,19.19,6.58,29.52,4.28,11.36,8.39,22.72,9.57,35,1.71,17.65,8.93,32.91,21.14,45.78.87.91,1.76,3.26,3.36,1.86s-.71-2.55-1.44-3.59c-10.73-15.25-12.32-31.26-3.83-47.94a11.35,11.35,0,0,0,.85-9A95.45,95.45,0,0,0,31.53,76c-1.37-2.11-3.24-4.53-.19-6.44s4.49.74,5.89,2.85A92.14,92.14,0,0,1,48.81,96.63c.8,2.62,1.54,3.34,3.89,1.24a41.56,41.56,0,0,1,7.69-5.49c2.16-1.18,2.38-2.23,1.29-4.25A117.43,117.43,0,0,1,52.3,64.54C45.88,42.28,29,28.22,13.12,13.28c-1.64-1.55-2.61-1.24-2.79,1.05C9.43,25.44,7.26,36.42,7.16,50.12Zm37.6,80.45a38.73,38.73,0,0,0,5.75,20.75c1.83,2.93,2.93,3.7,5.55.46a71.68,71.68,0,0,1,24.5-19.39c10.75-5.23,20.15-12.21,29.19-19.89,2.76-2.34,2.27-3.52.16-5.8A37.6,37.6,0,0,0,68.82,96.62C55.19,101.53,45.23,115.74,44.76,130.57Z" fill="#fff"/></g></g></svg>