<?xml version="1.0" encoding="utf-8"?>
<!-- Generator: Adobe Illustrator 24.0.1, SVG Export Plug-In . SVG Version: 6.00 Build 0)  -->
<svg version="1.1" id="Layer_1" xmlns="http://www.w3.org/2000/svg" xmlns:xlink="http://www.w3.org/1999/xlink" x="0px" y="0px"
	 viewBox="0 0 189.4 214.4" style="enable-background:new 0 0 189.4 214.4;" xml:space="preserve">
<style type="text/css">
	.st0{fill:#DFDFDF;}
</style>
<title>pattern_1</title>
<g id="Layer_2_1_">
	<g id="Layer_1-2">
		<path class="st0" d="M64.2,184.4c-2.7,0.2-5.3,0.4-8,0.4s-4.1-1-3.4-4C55,172,56.2,163,60,154.7c0.7-1.6,0.1-2.4-0.9-3.4
			c-11.6-11.3-17.6-25-19-41c-0.7-8.4-4.3-16-7.2-23.8c-4.2-11.1-5-22.5-3.3-34.2c0.9-5.9,1.4-12,2.1-17.9c0.2-1.7,0-3.9,2.1-4.6
			c2-0.7,3,1,4.2,2.2c5.1,4.8,10.1,9.7,15.3,14.4c10,9,15.9,20.4,19.9,33.1c1.3,4,2.9,7.9,4.8,11.7c0.9,1.8,1.9,2.7,4.2,2.3
			c12.4-2.1,22.8,1.5,31,11.2c0.8,0.9,1.4,1.4,2.7,0.6c12.9-9.9,28.6-11.5,43.6-15.3c1.9-0.5,4.1-2,5.8,0c1.8,2.1-0.2,4.1-1,6
			c-2.8,6.7-5.8,13.5-8.7,20.2c-3.9,9.1-10,17.2-17.8,23.3c-8.2,6.5-15.7,14-22.2,22.2c-11.9,15-27.9,22-46.9,22.7
			c-1.4,0.1-2.9,0-4.3,0L64.2,184.4z M64.5,179.4c19.7,0,35.8-6.4,47.6-21.5c6.1-7.8,13.1-14.8,20.8-21c6.8-5.4,12.7-11.6,16.5-19.4
			c3.2-6.6,6-13.4,8.9-20.2c0.2-0.6,1-1.3,0.3-1.9c-0.6-0.5-1.4-0.1-2.1,0c-2.7,0.6-5.4,1.3-8.1,1.9c-12.9,2.6-25.1,6.9-35,16
			c-7.6,7-16.1,12.5-25.1,17.5c-17.8,9.8-26.5,25.9-29.3,45.9c13.1-7.4,25.4-15.3,33.6-28.2c6.8-10.7,16.4-19.2,27.9-24.6
			c1.5-0.7,3.3-1.7,4.3,0.5c1,2.1-0.6,3.1-2.2,3.9c-11.4,5.5-20.1,13.9-27.1,24.4c-4.2,6.5-9.6,12.2-15.9,16.7
			C74.9,172.6,70.1,175.7,64.5,179.4z M34,65.9c-0.3,6.3,1.9,13.9,4.8,21.4c3.1,8.2,6.1,16.5,6.9,25.3c1.2,12.8,6.5,23.8,15.3,33.2
			c0.6,0.7,1.3,2.4,2.4,1.3s-0.5-1.8-1-2.6c-7.8-11-8.9-22.6-2.8-34.7c1.1-2,1.3-4.4,0.6-6.5c-1.9-6.6-4.8-12.9-8.6-18.6
			c-1-1.5-2.3-3.3-0.1-4.7c2.2-1.4,3.3,0.5,4.3,2.1c3.6,5.4,6.5,11.3,8.4,17.5c0.6,1.9,1.1,2.4,2.8,0.9c1.7-1.5,3.6-2.9,5.6-4
			c1.6-0.9,1.7-1.6,0.9-3.1c-2.9-5.4-5.2-11.2-6.8-17.1C62,60.2,49.8,50,38.3,39.2c-1.2-1.1-1.9-0.9-2,0.8
			C35.6,48,34.1,55.9,34,65.9z M61.2,124.1c-0.1,5.3,1.4,10.5,4.2,15c1.3,2.1,2.1,2.7,4,0.3c4.8-5.9,10.9-10.7,17.7-14
			c7.8-3.8,14.6-8.8,21.1-14.4c2-1.7,1.6-2.5,0.1-4.2c-7.5-8.3-19.3-11.2-29.8-7.3C68.8,103.1,61.6,113.4,61.2,124.1L61.2,124.1z"/>
	</g>
</g>
</svg>
